<?xml version="1.0" encoding="UTF-8"?>
<!DOCTYPE svg PUBLIC "-//W3C//DTD SVG 1.1//EN" "http://www.w3.org/Graphics/SVG/1.1/DTD/svg11.dtd">
<svg xmlns="http://www.w3.org/2000/svg" version="1.1" width="2048px" height="2048px" style="shape-rendering:geometricPrecision; text-rendering:geometricPrecision; image-rendering:optimizeQuality; fill-rule:evenodd; clip-rule:evenodd" xmlns:xlink="http://www.w3.org/1999/xlink">
<g><path style="opacity:0.994" fill="#292d3a" d="M 351.5,-0.5 C 795.833,-0.5 1240.17,-0.5 1684.5,-0.5C 1684.83,0.833333 1685.17,0.833333 1685.5,-0.5C 1688.17,-0.5 1690.83,-0.5 1693.5,-0.5C 1823.9,16.3144 1923.9,79.9811 1993.5,190.5C 2015.22,227.951 2030.88,267.951 2040.5,310.5C 2042.95,324.304 2045.28,337.97 2047.5,351.5C 2047.5,798.833 2047.5,1246.17 2047.5,1693.5C 2030.66,1823.46 1967.33,1923.29 1857.5,1993C 1819.5,2015.13 1779,2030.96 1736,2040.5C 1721.78,2043.44 1707.62,2045.77 1693.5,2047.5C 1690.83,2047.5 1688.17,2047.5 1685.5,2047.5C 1685.17,2046.17 1684.83,2046.17 1684.5,2047.5C 1240.17,2047.5 795.833,2047.5 351.5,2047.5C 222.13,2029.64 122.797,1965.97 53.5,1856.5C 35.0084,1823.89 20.6751,1789.39 10.5,1753C 6.39221,1733.01 2.72554,1713.18 -0.5,1693.5C -0.5,1246.17 -0.5,798.833 -0.5,351.5C 17.0717,224.838 78.7384,126.672 184.5,57C 236.021,25.9119 291.687,6.7452 351.5,-0.5 Z M 390.5,157.5 C 812.501,157.167 1234.5,157.5 1656.5,158.5C 1748.76,163.181 1817.42,205.514 1862.5,285.5C 1872.31,306.432 1879.81,328.099 1885,350.5C 1886.67,363.788 1887.84,377.122 1888.5,390.5C 1889.83,812.5 1889.83,1234.5 1888.5,1656.5C 1883.61,1753.09 1838.44,1823.09 1753,1866.5C 1722.87,1880.44 1690.71,1887.77 1656.5,1888.5C 1234.5,1889.83 812.5,1889.83 390.5,1888.5C 320.55,1886.31 262.216,1859.31 215.5,1807.5C 188.7,1774.87 170.867,1737.87 162,1696.5C 160.328,1683.21 159.161,1669.88 158.5,1656.5C 158.167,1445.5 157.833,1234.5 157.5,1023.5C 157.833,812.5 158.167,601.5 158.5,390.5C 162.087,307.453 197.754,242.62 265.5,196C 287.82,182.54 311.154,172.373 335.5,165.5C 341.914,164.536 348.248,163.203 354.5,161.5C 366.842,160.549 378.842,159.215 390.5,157.5 Z"/></g>
<g><path style="opacity:0.984" fill="#292d3a" d="M 1009.5,471.5 C 1038.79,467.919 1063.63,476.586 1084,497.5C 1093.71,509.119 1099.88,522.453 1102.5,537.5C 1103.5,672.832 1103.83,808.165 1103.5,943.5C 1238.83,943.333 1374.17,943.5 1509.5,944C 1540.58,950.408 1561.74,968.908 1573,999.5C 1582.55,1041.51 1569.22,1073.51 1533,1095.5C 1532.67,1095.17 1532.33,1094.83 1532,1094.5C 1529.24,1096.46 1526.24,1098.12 1523,1099.5C 1518.36,1100.41 1513.86,1101.57 1509.5,1103C 1374.17,1103.5 1238.83,1103.67 1103.5,1103.5C 1103.83,1241.83 1103.5,1380.17 1102.5,1518.5C 1092.53,1560.3 1066.2,1582.63 1023.5,1585.5C 980.747,1582.61 954.414,1560.28 944.5,1518.5C 943.5,1380.17 943.167,1241.83 943.5,1103.5C 808.166,1103.67 672.833,1103.5 537.5,1103C 506.425,1096.59 485.258,1078.09 474,1047.5C 464.449,1005.49 477.782,973.489 514,951.5C 514.333,951.833 514.667,952.167 515,952.5C 517.76,950.542 520.76,948.875 524,947.5C 528.638,946.594 533.138,945.428 537.5,944C 672.833,943.5 808.166,943.333 943.5,943.5C 943.167,808.165 943.5,672.832 944.5,537.5C 952.111,501.556 973.778,479.556 1009.5,471.5 Z"/></g>
</svg>
