<?xml version="1.0" encoding="UTF-8"?>
<!DOCTYPE svg PUBLIC "-//W3C//DTD SVG 1.1//EN" "http://www.w3.org/Graphics/SVG/1.1/DTD/svg11.dtd">
<svg xmlns="http://www.w3.org/2000/svg" version="1.1" width="2048px" height="2048px" style="shape-rendering:geometricPrecision; text-rendering:geometricPrecision; image-rendering:optimizeQuality; fill-rule:evenodd; clip-rule:evenodd" xmlns:xlink="http://www.w3.org/1999/xlink">
<g><path style="opacity:0.091" fill="#282c39" d="M 351.5,-0.5 C 358.833,-0.5 366.167,-0.5 373.5,-0.5C 365.005,0.456615 356.338,1.12328 347.5,1.5C 348.833,0.833333 350.167,0.166667 351.5,-0.5 Z"/></g>
<g><path style="opacity:1" fill="#c2c2c2" d="M 373.5,-0.5 C 810.5,-0.5 1247.5,-0.5 1684.5,-0.5C 1684.5,0.166667 1684.83,0.5 1685.5,0.5C 1689.47,1.16213 1693.47,1.49546 1697.5,1.5C 1698.5,1.5 1699.5,1.5 1700.5,1.5C 1706.37,2.49277 1712.37,3.49277 1718.5,4.5C 1721.28,4.27863 1723.95,4.61197 1726.5,5.5C 1730.62,6.94341 1734.95,7.94341 1739.5,8.5C 1741.74,8.20528 1743.74,8.53862 1745.5,9.5C 1748.8,11.4835 1752.47,12.4835 1756.5,12.5C 1758.1,12.2322 1759.43,12.5655 1760.5,13.5C 1763.5,15.2766 1766.84,16.2766 1770.5,16.5C 1772.1,16.2322 1773.43,16.5655 1774.5,17.5C 1776.79,19.2671 1779.46,20.2671 1782.5,20.5C 1784.1,20.2322 1785.43,20.5655 1786.5,21.5C 1788.43,23.2927 1790.76,24.2927 1793.5,24.5C 1794.79,24.2627 1795.79,24.596 1796.5,25.5C 1801.86,28.4027 1807.53,30.736 1813.5,32.5C 1815.03,34.3465 1817.03,35.3465 1819.5,35.5C 1822.75,37.9569 1826.42,39.6236 1830.5,40.5C 1832.58,42.873 1835.25,44.2064 1838.5,44.5C 1842.01,47.5697 1846.01,49.903 1850.5,51.5C 1852.34,53.588 1854.67,54.9213 1857.5,55.5C 1859.15,57.3264 1861.15,58.6597 1863.5,59.5C 1866.89,62.2205 1870.56,64.5538 1874.5,66.5C 1883.49,73.1596 1892.49,79.8263 1901.5,86.5C 1902.17,86.5 1902.5,86.8333 1902.5,87.5C 1904.23,90.2003 1906.57,92.2003 1909.5,93.5C 1914.2,98.2003 1919.2,102.534 1924.5,106.5C 1925.17,106.5 1925.5,106.833 1925.5,107.5C 1925.5,108.833 1926.17,109.5 1927.5,109.5C 1928.17,109.5 1928.5,109.833 1928.5,110.5C 1931.17,113.833 1934.17,116.833 1937.5,119.5C 1937.5,120.833 1938.17,121.5 1939.5,121.5C 1940.17,121.5 1940.5,121.833 1940.5,122.5C 1945.49,128.823 1950.82,134.823 1956.5,140.5C 1957.08,142.749 1958.41,144.415 1960.5,145.5C 1961.08,147.749 1962.41,149.415 1964.5,150.5C 1966.46,153.792 1968.79,156.792 1971.5,159.5C 1971.74,161.404 1972.74,162.738 1974.5,163.5C 1975.43,166.37 1977.1,168.704 1979.5,170.5C 1979.84,173.198 1981.18,175.198 1983.5,176.5C 1985.09,180.683 1987.42,184.35 1990.5,187.5C 1991.34,187.842 1991.67,188.508 1991.5,189.5C 1991.75,191.674 1992.75,193.341 1994.5,194.5C 1995.34,194.842 1995.67,195.508 1995.5,196.5C 1995.75,198.674 1996.75,200.341 1998.5,201.5C 1999.34,201.842 1999.67,202.508 1999.5,203.5C 1999.75,205.674 2000.75,207.341 2002.5,208.5C 2003.34,208.842 2003.67,209.508 2003.5,210.5C 2003.23,212.38 2003.9,213.713 2005.5,214.5C 2006.34,214.842 2006.67,215.508 2006.5,216.5C 2006.46,219.089 2007.46,221.089 2009.5,222.5C 2010.93,223.78 2011.6,225.447 2011.5,227.5C 2011.99,229.819 2012.99,231.819 2014.5,233.5C 2014.71,236.241 2015.71,238.574 2017.5,240.5C 2018.4,241.209 2018.74,242.209 2018.5,243.5C 2018.93,246.157 2019.93,248.491 2021.5,250.5C 2022.4,251.209 2022.74,252.209 2022.5,253.5C 2022.71,256.241 2023.71,258.574 2025.5,260.5C 2026.43,261.568 2026.77,262.901 2026.5,264.5C 2026.73,267.542 2027.73,270.208 2029.5,272.5C 2030.43,273.568 2030.77,274.901 2030.5,276.5C 2030.53,279.916 2031.53,282.916 2033.5,285.5C 2034.34,287.379 2034.67,289.379 2034.5,291.5C 2035.13,295.048 2036.13,298.381 2037.5,301.5C 2038.34,303.379 2038.67,305.379 2038.5,307.5C 2039.13,311.702 2040.13,315.702 2041.5,319.5C 2042.3,322.43 2042.63,325.43 2042.5,328.5C 2042.68,331.727 2043.34,334.727 2044.5,337.5C 2045.48,340.962 2045.81,344.629 2045.5,348.5C 2045.91,357.002 2046.58,365.335 2047.5,373.5C 2047.5,804.833 2047.5,1236.17 2047.5,1667.5C 2046.58,1677 2045.92,1686.67 2045.5,1696.5C 2045.82,1701.03 2045.48,1705.37 2044.5,1709.5C 2043.09,1712.22 2042.42,1715.22 2042.5,1718.5C 2042.6,1721.24 2042.27,1723.9 2041.5,1726.5C 2040.06,1730.62 2039.06,1734.95 2038.5,1739.5C 2038.67,1741.62 2038.34,1743.62 2037.5,1745.5C 2035.72,1748.5 2034.72,1751.84 2034.5,1755.5C 2034.78,1757.41 2034.45,1759.08 2033.5,1760.5C 2031.93,1763.22 2030.93,1766.22 2030.5,1769.5C 2030.78,1771.41 2030.45,1773.08 2029.5,1774.5C 2027.73,1776.79 2026.73,1779.46 2026.5,1782.5C 2026.77,1784.1 2026.43,1785.43 2025.5,1786.5C 2023.71,1788.43 2022.71,1790.76 2022.5,1793.5C 2022.74,1794.79 2022.4,1795.79 2021.5,1796.5C 2019.93,1798.51 2018.93,1800.84 2018.5,1803.5C 2018.74,1804.79 2018.4,1805.79 2017.5,1806.5C 2015.71,1808.43 2014.71,1810.76 2014.5,1813.5C 2012.99,1815.18 2011.99,1817.18 2011.5,1819.5C 2011.6,1821.55 2010.93,1823.22 2009.5,1824.5C 2007.46,1825.91 2006.46,1827.91 2006.5,1830.5C 2006.67,1831.49 2006.34,1832.16 2005.5,1832.5C 2003.9,1833.29 2003.23,1834.62 2003.5,1836.5C 2003.67,1837.49 2003.34,1838.16 2002.5,1838.5C 2000.75,1839.66 1999.75,1841.33 1999.5,1843.5C 1999.67,1844.49 1999.34,1845.16 1998.5,1845.5C 1996.75,1846.66 1995.75,1848.33 1995.5,1850.5C 1995.67,1851.49 1995.34,1852.16 1994.5,1852.5C 1992.75,1853.66 1991.75,1855.33 1991.5,1857.5C 1991.67,1858.49 1991.34,1859.16 1990.5,1859.5C 1987.42,1862.65 1985.09,1866.32 1983.5,1870.5C 1981.18,1871.8 1979.84,1873.8 1979.5,1876.5C 1977.1,1878.3 1975.43,1880.63 1974.5,1883.5C 1972.74,1884.26 1971.74,1885.6 1971.5,1887.5C 1968.79,1890.21 1966.46,1893.21 1964.5,1896.5C 1962.41,1897.58 1961.08,1899.25 1960.5,1901.5C 1958.41,1902.58 1957.08,1904.25 1956.5,1906.5C 1950.82,1912.18 1945.49,1918.18 1940.5,1924.5C 1940.5,1925.17 1940.17,1925.5 1939.5,1925.5C 1938.17,1925.5 1937.5,1926.17 1937.5,1927.5C 1933.83,1930.5 1930.5,1933.83 1927.5,1937.5C 1926.17,1937.5 1925.5,1938.17 1925.5,1939.5C 1925.5,1940.17 1925.17,1940.5 1924.5,1940.5C 1918.18,1945.49 1912.18,1950.82 1906.5,1956.5C 1904.25,1957.08 1902.58,1958.41 1901.5,1960.5C 1899.25,1961.08 1897.58,1962.41 1896.5,1964.5C 1888.88,1969.45 1881.55,1974.79 1874.5,1980.5C 1872.6,1980.74 1871.26,1981.74 1870.5,1983.5C 1866.32,1985.09 1862.65,1987.42 1859.5,1990.5C 1856.01,1991.41 1853.01,1993.08 1850.5,1995.5C 1847.67,1996.08 1845.34,1997.41 1843.5,1999.5C 1841.33,1999.75 1839.66,2000.75 1838.5,2002.5C 1838.16,2003.34 1837.49,2003.67 1836.5,2003.5C 1834.62,2003.23 1833.29,2003.9 1832.5,2005.5C 1832.16,2006.34 1831.49,2006.67 1830.5,2006.5C 1827.91,2006.46 1825.91,2007.46 1824.5,2009.5C 1823.22,2010.93 1821.55,2011.6 1819.5,2011.5C 1817.18,2011.99 1815.18,2012.99 1813.5,2014.5C 1807.53,2016.26 1801.86,2018.6 1796.5,2021.5C 1795.79,2022.4 1794.79,2022.74 1793.5,2022.5C 1790.76,2022.71 1788.43,2023.71 1786.5,2025.5C 1785.43,2026.43 1784.1,2026.77 1782.5,2026.5C 1779.46,2026.73 1776.79,2027.73 1774.5,2029.5C 1773.43,2030.43 1772.1,2030.77 1770.5,2030.5C 1766.84,2030.72 1763.5,2031.72 1760.5,2033.5C 1759.43,2034.43 1758.1,2034.77 1756.5,2034.5C 1752.47,2034.52 1748.8,2035.52 1745.5,2037.5C 1743.74,2038.46 1741.74,2038.79 1739.5,2038.5C 1734.95,2039.06 1730.62,2040.06 1726.5,2041.5C 1723.95,2042.39 1721.28,2042.72 1718.5,2042.5C 1712.05,2043.57 1705.71,2044.57 1699.5,2045.5C 1698.83,2045.5 1698.17,2045.5 1697.5,2045.5C 1693.45,2045.39 1689.45,2045.73 1685.5,2046.5C 1684.83,2046.5 1684.5,2046.83 1684.5,2047.5C 1247.5,2047.5 810.5,2047.5 373.5,2047.5C 365.005,2046.54 356.338,2045.88 347.5,2045.5C 346.833,2045.5 346.167,2045.5 345.5,2045.5C 339.982,2044.4 334.315,2043.4 328.5,2042.5C 325.391,2042.74 322.391,2042.4 319.5,2041.5C 315.702,2040.13 311.702,2039.13 307.5,2038.5C 305.265,2038.79 303.265,2038.46 301.5,2037.5C 298.093,2035.93 294.427,2034.93 290.5,2034.5C 288.585,2034.78 286.919,2034.45 285.5,2033.5C 282.916,2031.53 279.916,2030.53 276.5,2030.5C 274.901,2030.77 273.568,2030.43 272.5,2029.5C 270.208,2027.73 267.542,2026.73 264.5,2026.5C 262.901,2026.77 261.568,2026.43 260.5,2025.5C 258.574,2023.71 256.241,2022.71 253.5,2022.5C 250.203,2020.4 246.537,2019.07 242.5,2018.5C 239.912,2016.38 236.912,2015.04 233.5,2014.5C 231.819,2012.99 229.819,2011.99 227.5,2011.5C 225.447,2011.6 223.78,2010.93 222.5,2009.5C 221.089,2007.46 219.089,2006.46 216.5,2006.5C 215.508,2006.67 214.842,2006.34 214.5,2005.5C 213.713,2003.9 212.38,2003.23 210.5,2003.5C 209.508,2003.67 208.842,2003.34 208.5,2002.5C 207.341,2000.75 205.674,1999.75 203.5,1999.5C 201.337,1997.92 199.004,1996.58 196.5,1995.5C 193.992,1993.08 190.992,1991.41 187.5,1990.5C 184.35,1987.42 180.683,1985.09 176.5,1983.5C 175.738,1981.74 174.404,1980.74 172.5,1980.5C 165.452,1974.79 158.119,1969.45 150.5,1964.5C 149.415,1962.41 147.749,1961.08 145.5,1960.5C 144.415,1958.41 142.749,1957.08 140.5,1956.5C 136.133,1952.13 131.467,1948.13 126.5,1944.5C 125.833,1944.5 125.5,1944.17 125.5,1943.5C 125.19,1941.86 124.19,1940.86 122.5,1940.5C 121.833,1940.5 121.5,1940.17 121.5,1939.5C 121.5,1938.17 120.833,1937.5 119.5,1937.5C 116.833,1934.17 113.833,1931.17 110.5,1928.5C 109.833,1928.5 109.5,1928.17 109.5,1927.5C 109.5,1926.17 108.833,1925.5 107.5,1925.5C 106.833,1925.5 106.5,1925.17 106.5,1924.5C 100.16,1917.16 93.8268,1909.83 87.5,1902.5C 86.8333,1902.5 86.5,1902.17 86.5,1901.5C 84.2065,1897.87 81.5398,1894.54 78.5,1891.5C 78.2624,1889.6 77.2624,1888.26 75.5,1887.5C 73.5998,1883.27 70.9331,1879.6 67.5,1876.5C 65.5824,1871.66 62.9157,1867.32 59.5,1863.5C 58.6597,1861.15 57.3264,1859.15 55.5,1857.5C 55.2503,1855.33 54.2503,1853.66 52.5,1852.5C 51.6618,1852.16 51.3284,1851.49 51.5,1850.5C 51.2503,1848.33 50.2503,1846.66 48.5,1845.5C 47.6618,1845.16 47.3284,1844.49 47.5,1843.5C 47.2503,1841.33 46.2503,1839.66 44.5,1838.5C 44.5,1838.17 44.5,1837.83 44.5,1837.5C 43.9213,1834.67 42.588,1832.34 40.5,1830.5C 40.2064,1827.25 38.873,1824.58 36.5,1822.5C 35.8902,1821.61 35.5569,1820.61 35.5,1819.5C 35.7709,1817.62 35.1042,1816.29 33.5,1815.5C 32.6618,1815.16 32.3284,1814.49 32.5,1813.5C 32.2927,1810.76 31.2927,1808.43 29.5,1806.5C 28.596,1805.79 28.2627,1804.79 28.5,1803.5C 28.0652,1800.84 27.0652,1798.51 25.5,1796.5C 24.596,1795.79 24.2627,1794.79 24.5,1793.5C 24.2927,1790.76 23.2927,1788.43 21.5,1786.5C 20.5655,1785.43 20.2322,1784.1 20.5,1782.5C 20.2671,1779.46 19.2671,1776.79 17.5,1774.5C 16.5489,1773.08 16.2155,1771.41 16.5,1769.5C 16.0719,1766.22 15.0719,1763.22 13.5,1760.5C 12.5489,1759.08 12.2155,1757.41 12.5,1755.5C 12.2766,1751.84 11.2766,1748.5 9.5,1745.5C 8.65859,1743.62 8.32526,1741.62 8.5,1739.5C 7.94341,1734.95 6.94341,1730.62 5.5,1726.5C 4.61197,1723.95 4.27863,1721.28 4.5,1718.5C 4.57968,1715.22 3.91301,1712.22 2.5,1709.5C 1.51511,1705.37 1.18178,1701.03 1.5,1696.5C 1.05124,1687 0.384574,1677.67 -0.5,1668.5C -0.5,1236.83 -0.5,805.167 -0.5,373.5C 0.420174,365.335 1.08684,357.002 1.5,348.5C 1.18503,344.629 1.51836,340.962 2.5,337.5C 3.65719,334.727 4.32385,331.727 4.5,328.5C 4.36772,325.43 4.70105,322.43 5.5,319.5C 6.86843,315.702 7.86843,311.702 8.5,307.5C 8.32526,305.379 8.65859,303.379 9.5,301.5C 10.8699,298.381 11.8699,295.048 12.5,291.5C 12.3253,289.379 12.6586,287.379 13.5,285.5C 15.4725,282.916 16.4725,279.916 16.5,276.5C 16.2322,274.901 16.5655,273.568 17.5,272.5C 19.2671,270.208 20.2671,267.542 20.5,264.5C 20.2322,262.901 20.5655,261.568 21.5,260.5C 23.2927,258.574 24.2927,256.241 24.5,253.5C 24.2627,252.209 24.596,251.209 25.5,250.5C 27.0652,248.491 28.0652,246.157 28.5,243.5C 28.2627,242.209 28.596,241.209 29.5,240.5C 31.2927,238.574 32.2927,236.241 32.5,233.5C 32.3284,232.508 32.6618,231.842 33.5,231.5C 35.1042,230.713 35.7709,229.38 35.5,227.5C 35.5569,226.391 35.8902,225.391 36.5,224.5C 38.873,222.421 40.2064,219.754 40.5,216.5C 42.588,214.664 43.9213,212.331 44.5,209.5C 44.5,209.167 44.5,208.833 44.5,208.5C 46.2503,207.341 47.2503,205.674 47.5,203.5C 47.3284,202.508 47.6618,201.842 48.5,201.5C 50.2503,200.341 51.2503,198.674 51.5,196.5C 51.3284,195.508 51.6618,194.842 52.5,194.5C 54.2503,193.341 55.2503,191.674 55.5,189.5C 57.3264,187.853 58.6597,185.853 59.5,183.5C 61.588,181.664 62.9213,179.331 63.5,176.5C 65.8218,175.198 67.1551,173.198 67.5,170.5C 70.1846,167.81 72.5179,164.81 74.5,161.5C 74.3284,160.508 74.6618,159.842 75.5,159.5C 77.2624,158.738 78.2624,157.404 78.5,155.5C 81.5398,152.461 84.2065,149.127 86.5,145.5C 86.5,144.833 86.8333,144.5 87.5,144.5C 93.8268,137.172 100.16,129.839 106.5,122.5C 106.5,121.833 106.833,121.5 107.5,121.5C 108.833,121.5 109.5,120.833 109.5,119.5C 109.5,118.833 109.833,118.5 110.5,118.5C 113.5,116.167 116.167,113.5 118.5,110.5C 118.5,109.833 118.833,109.5 119.5,109.5C 120.833,109.5 121.5,108.833 121.5,107.5C 121.5,106.833 121.833,106.5 122.5,106.5C 127.801,102.534 132.801,98.2003 137.5,93.5C 140.432,92.2003 142.766,90.2003 144.5,87.5C 144.5,86.8333 144.833,86.5 145.5,86.5C 154.505,79.8263 163.505,73.1596 172.5,66.5C 174.404,66.2624 175.738,65.2624 176.5,63.5C 179.331,62.9213 181.664,61.588 183.5,59.5C 185.853,58.6597 187.853,57.3264 189.5,55.5C 192.331,54.9213 194.664,53.588 196.5,51.5C 200.992,49.903 204.992,47.5697 208.5,44.5C 211.754,44.2064 214.421,42.873 216.5,40.5C 220.582,39.6236 224.249,37.9569 227.5,35.5C 229.97,35.3465 231.97,34.3465 233.5,32.5C 236.912,31.9579 239.912,30.6246 242.5,28.5C 246.537,27.9347 250.203,26.6013 253.5,24.5C 256.241,24.2927 258.574,23.2927 260.5,21.5C 261.568,20.5655 262.901,20.2322 264.5,20.5C 267.542,20.2671 270.208,19.2671 272.5,17.5C 273.568,16.5655 274.901,16.2322 276.5,16.5C 279.916,16.4725 282.916,15.4725 285.5,13.5C 286.919,12.5489 288.585,12.2155 290.5,12.5C 294.427,12.0743 298.093,11.0743 301.5,9.5C 303.265,8.53862 305.265,8.20528 307.5,8.5C 311.702,7.86843 315.702,6.86843 319.5,5.5C 322.391,4.59748 325.391,4.26414 328.5,4.5C 334.315,3.60064 339.982,2.60064 345.5,1.5C 346.167,1.5 346.833,1.5 347.5,1.5C 356.338,1.12328 365.005,0.456615 373.5,-0.5 Z M 390.5,157.5 C 812.5,157.5 1234.5,157.5 1656.5,157.5C 1666.12,159.37 1676.12,160.37 1686.5,160.5C 1689.76,161.324 1693.1,161.658 1696.5,161.5C 1697.15,162.725 1698.32,163.392 1700,163.5C 1702.82,164.031 1705.65,164.364 1708.5,164.5C 1710.26,165.461 1712.26,165.795 1714.5,165.5C 1715.55,167.256 1717.22,167.923 1719.5,167.5C 1720.57,168.434 1721.9,168.768 1723.5,168.5C 1724.67,170.109 1726,170.443 1727.5,169.5C 1729.83,171.29 1732.5,172.79 1735.5,174C 1737.74,174.977 1740.07,175.477 1742.5,175.5C 1743.21,176.404 1744.21,176.737 1745.5,176.5C 1747.9,178.974 1750.9,180.308 1754.5,180.5C 1756.51,182.837 1759.17,184.171 1762.5,184.5C 1766.1,187.308 1770.1,189.641 1774.5,191.5C 1774.84,192.338 1775.51,192.672 1776.5,192.5C 1777.4,194.727 1779.07,195.727 1781.5,195.5C 1789.99,202.907 1798.99,209.574 1808.5,215.5C 1808.83,217.833 1810.17,219.167 1812.5,219.5C 1816.53,224.271 1820.7,228.938 1825,233.5C 1825.67,234.252 1826.5,234.586 1827.5,234.5C 1827.76,237.699 1829.43,239.699 1832.5,240.5C 1832.5,242.5 1833.5,243.5 1835.5,243.5C 1835.71,244.922 1836.21,246.255 1837,247.5C 1839.28,250.432 1841.78,253.098 1844.5,255.5C 1844.47,257.619 1845.47,258.952 1847.5,259.5C 1847.84,262.198 1849.18,264.198 1851.5,265.5C 1851.33,266.492 1851.66,267.158 1852.5,267.5C 1852.29,269.179 1852.95,270.179 1854.5,270.5C 1854.33,271.492 1854.66,272.158 1855.5,272.5C 1857.36,276.899 1859.69,280.899 1862.5,284.5C 1862.33,285.492 1862.66,286.158 1863.5,286.5C 1863.39,289.216 1864.39,291.216 1866.5,292.5C 1866.26,293.791 1866.6,294.791 1867.5,295.5C 1867.46,298.089 1868.46,300.089 1870.5,301.5C 1870.26,302.791 1870.6,303.791 1871.5,304.5C 1871.18,307.577 1872.18,309.91 1874.5,311.5C 1874.48,315.787 1875.81,319.453 1878.5,322.5C 1878.22,324.415 1878.55,326.081 1879.5,327.5C 1879.08,329.781 1879.74,331.448 1881.5,332.5C 1881.33,334.621 1881.66,336.621 1882.5,338.5C 1882.78,342.188 1883.28,345.855 1884,349.5C 1884.38,350.056 1884.88,350.389 1885.5,350.5C 1885.34,353.902 1885.68,357.236 1886.5,360.5C 1886.63,370.88 1887.63,380.88 1889.5,390.5C 1889.5,812.5 1889.5,1234.5 1889.5,1656.5C 1887.63,1666.12 1886.63,1676.12 1886.5,1686.5C 1885.68,1689.76 1885.34,1693.1 1885.5,1696.5C 1884.88,1696.61 1884.38,1696.94 1884,1697.5C 1883.28,1701.15 1882.78,1704.81 1882.5,1708.5C 1881.66,1710.38 1881.33,1712.38 1881.5,1714.5C 1879.74,1715.55 1879.08,1717.22 1879.5,1719.5C 1878.55,1720.92 1878.22,1722.59 1878.5,1724.5C 1875.97,1727.24 1874.63,1730.57 1874.5,1734.5C 1874.5,1734.83 1874.5,1735.17 1874.5,1735.5C 1872.18,1737.09 1871.18,1739.42 1871.5,1742.5C 1870.6,1743.21 1870.26,1744.21 1870.5,1745.5C 1868.55,1747.32 1867.55,1749.65 1867.5,1752.5C 1866.66,1752.84 1866.33,1753.51 1866.5,1754.5C 1864.39,1755.78 1863.39,1757.78 1863.5,1760.5C 1862.66,1760.84 1862.33,1761.51 1862.5,1762.5C 1859.69,1766.1 1857.36,1770.1 1855.5,1774.5C 1854.66,1774.84 1854.33,1775.51 1854.5,1776.5C 1852.75,1777.66 1851.75,1779.33 1851.5,1781.5C 1849.18,1782.8 1847.84,1784.8 1847.5,1787.5C 1845.47,1788.05 1844.47,1789.38 1844.5,1791.5C 1841.78,1793.9 1839.28,1796.57 1837,1799.5C 1836.21,1800.74 1835.71,1802.08 1835.5,1803.5C 1833,1804.13 1831.67,1805.8 1831.5,1808.5C 1829.17,1808.83 1827.83,1810.17 1827.5,1812.5C 1826.76,1812.37 1826.09,1812.54 1825.5,1813C 1821.13,1817.84 1816.8,1822.67 1812.5,1827.5C 1810.17,1827.83 1808.83,1829.17 1808.5,1831.5C 1806.03,1831.09 1804.69,1832.09 1804.5,1834.5C 1797.2,1839.46 1789.86,1844.46 1782.5,1849.5C 1782.14,1850.18 1781.8,1850.85 1781.5,1851.5C 1779.07,1851.27 1777.4,1852.27 1776.5,1854.5C 1775.51,1854.33 1774.84,1854.66 1774.5,1855.5C 1770.1,1857.36 1766.1,1859.69 1762.5,1862.5C 1759.17,1862.83 1756.51,1864.16 1754.5,1866.5C 1750.9,1866.69 1747.9,1868.03 1745.5,1870.5C 1744.21,1870.26 1743.21,1870.6 1742.5,1871.5C 1739.28,1871.35 1736.62,1872.35 1734.5,1874.5C 1731.54,1874.46 1729.21,1875.46 1727.5,1877.5C 1726,1876.56 1724.67,1876.89 1723.5,1878.5C 1721.9,1878.23 1720.57,1878.57 1719.5,1879.5C 1717.22,1879.08 1715.55,1879.74 1714.5,1881.5C 1712.26,1881.21 1710.26,1881.54 1708.5,1882.5C 1705.65,1882.64 1702.82,1882.97 1700,1883.5C 1698.32,1883.61 1697.15,1884.27 1696.5,1885.5C 1693.06,1885.25 1689.73,1885.59 1686.5,1886.5C 1676.12,1886.63 1666.12,1887.63 1656.5,1889.5C 1234.5,1889.5 812.5,1889.5 390.5,1889.5C 380.88,1887.63 370.88,1886.63 360.5,1886.5C 357.272,1885.59 353.939,1885.25 350.5,1885.5C 349.848,1884.27 348.681,1883.61 347,1883.5C 344.183,1882.97 341.35,1882.64 338.5,1882.5C 336.735,1881.54 334.735,1881.21 332.5,1881.5C 331.448,1879.74 329.781,1879.08 327.5,1879.5C 326.432,1878.57 325.099,1878.23 323.5,1878.5C 322.335,1876.89 321.001,1876.56 319.5,1877.5C 317.17,1875.71 314.503,1874.21 311.5,1873C 309.26,1872.02 306.927,1871.52 304.5,1871.5C 303.791,1870.6 302.791,1870.26 301.5,1870.5C 300.089,1868.46 298.089,1867.46 295.5,1867.5C 294.791,1866.6 293.791,1866.26 292.5,1866.5C 290.493,1864.16 287.827,1862.83 284.5,1862.5C 280.899,1859.69 276.899,1857.36 272.5,1855.5C 272.158,1854.66 271.492,1854.33 270.5,1854.5C 269.7,1852.26 268.034,1851.26 265.5,1851.5C 255.84,1844.32 246.506,1836.66 237.5,1828.5C 236.583,1827.87 235.583,1827.54 234.5,1827.5C 234.631,1826.76 234.464,1826.09 234,1825.5C 228.952,1821.28 224.119,1816.95 219.5,1812.5C 219.167,1810.17 217.833,1808.83 215.5,1808.5C 215.33,1805.8 213.997,1804.13 211.5,1803.5C 211.291,1802.08 210.791,1800.74 210,1799.5C 207.715,1796.57 205.215,1793.9 202.5,1791.5C 202.262,1789.6 201.262,1788.26 199.5,1787.5C 199.155,1784.8 197.822,1782.8 195.5,1781.5C 195.155,1778.8 193.822,1776.8 191.5,1775.5C 191.5,1775.17 191.5,1774.83 191.5,1774.5C 189.641,1770.1 187.308,1766.1 184.5,1762.5C 184.672,1761.51 184.338,1760.84 183.5,1760.5C 183.614,1757.78 182.614,1755.78 180.5,1754.5C 180.672,1753.51 180.338,1752.84 179.5,1752.5C 179.448,1749.65 178.448,1747.32 176.5,1745.5C 176.737,1744.21 176.404,1743.21 175.5,1742.5C 175.821,1739.42 174.821,1737.09 172.5,1735.5C 172.524,1731.21 171.19,1727.55 168.5,1724.5C 168.634,1722.71 168.301,1721.04 167.5,1719.5C 167.923,1717.22 167.256,1715.55 165.5,1714.5C 165.451,1710.92 164.785,1707.59 163.5,1704.5C 163.663,1702.14 163.497,1699.81 163,1697.5C 162.617,1696.94 162.117,1696.61 161.5,1696.5C 161.658,1693.1 161.324,1689.76 160.5,1686.5C 160.37,1676.12 159.37,1666.12 157.5,1656.5C 157.5,1234.5 157.5,812.5 157.5,390.5C 159.37,380.88 160.37,370.88 160.5,360.5C 161.324,357.236 161.658,353.902 161.5,350.5C 162.117,350.389 162.617,350.056 163,349.5C 163.497,347.19 163.663,344.857 163.5,342.5C 164.785,339.411 165.451,336.078 165.5,332.5C 167.256,331.448 167.923,329.781 167.5,327.5C 168.301,325.958 168.634,324.292 168.5,322.5C 171.19,319.453 172.524,315.787 172.5,311.5C 174.821,309.91 175.821,307.577 175.5,304.5C 176.404,303.791 176.737,302.791 176.5,301.5C 178.245,299.967 179.245,297.967 179.5,295.5C 180.404,294.791 180.737,293.791 180.5,292.5C 182.614,291.216 183.614,289.216 183.5,286.5C 184.338,286.158 184.672,285.492 184.5,284.5C 187.308,280.899 189.641,276.899 191.5,272.5C 192.338,272.158 192.672,271.492 192.5,270.5C 194.048,270.179 194.715,269.179 194.5,267.5C 195.338,267.158 195.672,266.492 195.5,265.5C 197.822,264.198 199.155,262.198 199.5,259.5C 201.532,258.952 202.532,257.619 202.5,255.5C 205.215,253.098 207.715,250.432 210,247.5C 210.791,246.255 211.291,244.922 211.5,243.5C 212.496,243.586 213.329,243.252 214,242.5C 216.437,240.233 218.271,237.566 219.5,234.5C 220.239,234.631 220.906,234.464 221.5,234C 225.992,229.139 230.325,224.306 234.5,219.5C 244.845,211.485 255.178,203.485 265.5,195.5C 268.034,195.741 269.7,194.741 270.5,192.5C 271.492,192.672 272.158,192.338 272.5,191.5C 276.899,189.641 280.899,187.308 284.5,184.5C 287.827,184.171 290.493,182.837 292.5,180.5C 293.791,180.737 294.791,180.404 295.5,179.5C 297.967,179.245 299.967,178.245 301.5,176.5C 302.791,176.737 303.791,176.404 304.5,175.5C 306.927,175.477 309.26,174.977 311.5,174C 314.503,172.79 317.17,171.29 319.5,169.5C 321.001,170.443 322.335,170.109 323.5,168.5C 325.099,168.768 326.432,168.434 327.5,167.5C 329.781,167.923 331.448,167.256 332.5,165.5C 334.735,165.795 336.735,165.461 338.5,164.5C 341.35,164.364 344.183,164.031 347,163.5C 348.681,163.392 349.848,162.725 350.5,161.5C 353.902,161.658 357.236,161.324 360.5,160.5C 370.88,160.37 380.88,159.37 390.5,157.5 Z"/></g>
<g><path style="opacity:0.109" fill="#282e37" d="M 1685.5,0.5 C 1685.5,0.166667 1685.5,-0.166667 1685.5,-0.5C 1688.17,-0.5 1690.83,-0.5 1693.5,-0.5C 1694.83,0.166667 1696.17,0.833333 1697.5,1.5C 1693.47,1.49546 1689.47,1.16213 1685.5,0.5 Z"/></g>
<g><path style="opacity:0.114" fill="#282c39" d="M 345.5,1.5 C 339.982,2.60064 334.315,3.60064 328.5,4.5C 329.334,3.2521 330.667,2.58544 332.5,2.5C 336.808,1.79903 341.141,1.4657 345.5,1.5 Z"/></g>
<g><path style="opacity:0.155" fill="#292b39" d="M 1700.5,1.5 C 1705.19,1.43589 1709.86,1.76922 1714.5,2.5C 1716.33,2.58544 1717.67,3.2521 1718.5,4.5C 1712.37,3.49277 1706.37,2.49277 1700.5,1.5 Z"/></g>
<g><path style="opacity:0.167" fill="#292c3a" d="M 319.5,5.5 C 315.702,6.86843 311.702,7.86843 307.5,8.5C 307.97,7.30652 308.97,6.63985 310.5,6.5C 313.468,5.83838 316.468,5.50505 319.5,5.5 Z"/></g>
<g><path style="opacity:0.14" fill="#282c39" d="M 1726.5,5.5 C 1729.69,5.55922 1732.86,5.89255 1736,6.5C 1737.68,6.60826 1738.85,7.27493 1739.5,8.5C 1734.95,7.94341 1730.62,6.94341 1726.5,5.5 Z"/></g>
<g><path style="opacity:0.259" fill="#292b39" d="M 301.5,9.5 C 298.093,11.0743 294.427,12.0743 290.5,12.5C 290.611,11.8826 290.944,11.3826 291.5,11C 294.757,9.95713 298.09,9.45713 301.5,9.5 Z"/></g>
<g><path style="opacity:0.173" fill="#292b39" d="M 1745.5,9.5 C 1748.87,9.67436 1752.21,10.1744 1755.5,11C 1756.06,11.3826 1756.39,11.8826 1756.5,12.5C 1752.47,12.4835 1748.8,11.4835 1745.5,9.5 Z"/></g>
<g><path style="opacity:0.154" fill="#292c39" d="M 285.5,13.5 C 282.916,15.4725 279.916,16.4725 276.5,16.5C 276.791,15.3509 277.624,14.6842 279,14.5C 281.137,13.9233 283.304,13.59 285.5,13.5 Z"/></g>
<g><path style="opacity:0.206" fill="#272e37" d="M 1760.5,13.5 C 1764.35,13.2878 1767.68,14.2878 1770.5,16.5C 1766.84,16.2766 1763.5,15.2766 1760.5,13.5 Z"/></g>
<g><path style="opacity:0.259" fill="#282b38" d="M 272.5,17.5 C 270.208,19.2671 267.542,20.2671 264.5,20.5C 266.522,18.3072 269.189,17.3072 272.5,17.5 Z"/></g>
<g><path style="opacity:0.107" fill="#282b38" d="M 1774.5,17.5 C 1777.81,17.3072 1780.48,18.3072 1782.5,20.5C 1779.46,20.2671 1776.79,19.2671 1774.5,17.5 Z"/></g>
<g><path style="opacity:0.146" fill="#292d39" d="M 260.5,21.5 C 258.574,23.2927 256.241,24.2927 253.5,24.5C 255.206,22.4642 257.539,21.4642 260.5,21.5 Z"/></g>
<g><path style="opacity:0.16" fill="#292c39" d="M 1786.5,21.5 C 1789.46,21.4642 1791.79,22.4642 1793.5,24.5C 1790.76,24.2927 1788.43,23.2927 1786.5,21.5 Z"/></g>
<g><path style="opacity:0.119" fill="#282b39" d="M 253.5,24.5 C 250.203,26.6013 246.537,27.9347 242.5,28.5C 245.626,26.0103 249.292,24.677 253.5,24.5 Z"/></g>
<g><path style="opacity:0.139" fill="#272d37" d="M 242.5,28.5 C 239.912,30.6246 236.912,31.9579 233.5,32.5C 235.898,30.0257 238.898,28.6924 242.5,28.5 Z"/></g>
<g><path style="opacity:0.161" fill="#272d38" d="M 1796.5,25.5 C 1798.93,25.523 1801.26,26.023 1803.5,27C 1807.17,28.3756 1810.5,30.2089 1813.5,32.5C 1807.53,30.736 1801.86,28.4027 1796.5,25.5 Z"/></g>
<g><path style="opacity:0.21" fill="#282a38" d="M 233.5,32.5 C 231.97,34.3465 229.97,35.3465 227.5,35.5C 228.784,33.3862 230.784,32.3862 233.5,32.5 Z"/></g>
<g><path style="opacity:0.07" fill="#282b38" d="M 1813.5,32.5 C 1816.22,32.3862 1818.22,33.3862 1819.5,35.5C 1817.03,35.3465 1815.03,34.3465 1813.5,32.5 Z"/></g>
<g><path style="opacity:0.168" fill="#272d38" d="M 227.5,35.5 C 224.249,37.9569 220.582,39.6236 216.5,40.5C 219.645,37.8872 223.311,36.2205 227.5,35.5 Z"/></g>
<g><path style="opacity:0.164" fill="#272d38" d="M 1819.5,35.5 C 1823.69,36.2205 1827.36,37.8872 1830.5,40.5C 1826.42,39.6236 1822.75,37.9569 1819.5,35.5 Z"/></g>
<g><path style="opacity:0.204" fill="#272d37" d="M 216.5,40.5 C 214.421,42.873 211.754,44.2064 208.5,44.5C 210.579,42.127 213.246,40.7936 216.5,40.5 Z"/></g>
<g><path style="opacity:0.204" fill="#272d37" d="M 1830.5,40.5 C 1833.75,40.7936 1836.42,42.127 1838.5,44.5C 1835.25,44.2064 1832.58,42.873 1830.5,40.5 Z"/></g>
<g><path style="opacity:0.255" fill="#282d38" d="M 208.5,44.5 C 204.992,47.5697 200.992,49.903 196.5,51.5C 197.348,49.9069 198.681,48.7403 200.5,48C 202.992,46.3904 205.659,45.2237 208.5,44.5 Z"/></g>
<g><path style="opacity:0.093" fill="#282c38" d="M 1838.5,44.5 C 1841.34,45.2237 1844.01,46.3904 1846.5,48C 1848.32,48.7403 1849.65,49.9069 1850.5,51.5C 1846.01,49.903 1842.01,47.5697 1838.5,44.5 Z"/></g>
<g><path style="opacity:0.196" fill="#272d37" d="M 1850.5,51.5 C 1853.68,51.584 1856.02,52.9173 1857.5,55.5C 1854.67,54.9213 1852.34,53.588 1850.5,51.5 Z"/></g>
<g><path style="opacity:0.125" fill="#272d37" d="M 196.5,51.5 C 194.664,53.588 192.331,54.9213 189.5,55.5C 190.985,52.9173 193.318,51.584 196.5,51.5 Z"/></g>
<g><path style="opacity:0.169" fill="#282b39" d="M 189.5,55.5 C 187.853,57.3264 185.853,58.6597 183.5,59.5C 184.487,56.9142 186.487,55.5809 189.5,55.5 Z"/></g>
<g><path style="opacity:0.296" fill="#292c39" d="M 1857.5,55.5 C 1860.51,55.5809 1862.51,56.9142 1863.5,59.5C 1861.15,58.6597 1859.15,57.3264 1857.5,55.5 Z"/></g>
<g><path style="opacity:0.227" fill="#262d35" d="M 183.5,59.5 C 181.664,61.588 179.331,62.9213 176.5,63.5C 178.052,60.8881 180.386,59.5548 183.5,59.5 Z"/></g>
<g><path style="opacity:0.047" fill="#272c36" d="M 1863.5,59.5 C 1867.15,60.3156 1870.48,61.8156 1873.5,64C 1874.25,64.6708 1874.59,65.5041 1874.5,66.5C 1870.56,64.5538 1866.89,62.2205 1863.5,59.5 Z"/></g>
<g><path style="opacity:0.214" fill="#282a38" d="M 176.5,63.5 C 175.738,65.2624 174.404,66.2624 172.5,66.5C 172.694,64.0882 174.027,63.0882 176.5,63.5 Z"/></g>
<g><path style="opacity:0.345" fill="#282b38" d="M 1874.5,66.5 C 1875.55,66.3505 1876.55,66.5172 1877.5,67C 1885.17,72.6667 1892.83,78.3333 1900.5,84C 1901.25,84.6708 1901.59,85.5041 1901.5,86.5C 1892.49,79.8263 1883.49,73.1596 1874.5,66.5 Z"/></g>
<g><path style="opacity:0.216" fill="#282c37" d="M 172.5,66.5 C 163.505,73.1596 154.505,79.8263 145.5,86.5C 145.414,85.5041 145.748,84.6708 146.5,84C 154.167,78.3333 161.833,72.6667 169.5,67C 170.448,66.5172 171.448,66.3505 172.5,66.5 Z"/></g>
<g><path style="opacity:0.296" fill="#2a2c39" d="M 144.5,87.5 C 142.766,90.2003 140.432,92.2003 137.5,93.5C 137.414,92.5041 137.748,91.6708 138.5,91C 140.24,89.3055 142.24,88.1389 144.5,87.5 Z"/></g>
<g><path style="opacity:0.284" fill="#292c39" d="M 1902.5,87.5 C 1904.76,88.1389 1906.76,89.3055 1908.5,91C 1909.25,91.6708 1909.59,92.5041 1909.5,93.5C 1906.57,92.2003 1904.23,90.2003 1902.5,87.5 Z"/></g>
<g><path style="opacity:0.153" fill="#282c39" d="M 137.5,93.5 C 132.801,98.2003 127.801,102.534 122.5,106.5C 126.476,101.008 131.476,96.6747 137.5,93.5 Z"/></g>
<g><path style="opacity:0.162" fill="#282d39" d="M 1909.5,93.5 C 1915.42,96.7485 1920.42,101.082 1924.5,106.5C 1919.2,102.534 1914.2,98.2003 1909.5,93.5 Z"/></g>
<g><path style="opacity:0.058" fill="#252f34" d="M 121.5,107.5 C 121.5,108.833 120.833,109.5 119.5,109.5C 119.5,108.167 120.167,107.5 121.5,107.5 Z"/></g>
<g><path style="opacity:0.058" fill="#252f34" d="M 1925.5,107.5 C 1926.83,107.5 1927.5,108.167 1927.5,109.5C 1927.5,108.167 1926.83,107.5 1925.5,107.5 Z"/></g>
<g><path style="opacity:0.016" fill="#2b2a39" d="M 118.5,110.5 C 116.167,113.5 113.5,116.167 110.5,118.5C 110.539,117.417 110.873,116.417 111.5,115.5C 113.629,113.344 115.962,111.677 118.5,110.5 Z"/></g>
<g><path style="opacity:0.031" fill="#2b2a39" d="M 1928.5,110.5 C 1929.68,110.281 1930.68,110.614 1931.5,111.5C 1934.29,113.615 1936.29,116.281 1937.5,119.5C 1934.17,116.833 1931.17,113.833 1928.5,110.5 Z"/></g>
<g><path style="opacity:0.058" fill="#252e34" d="M 109.5,119.5 C 109.5,120.833 108.833,121.5 107.5,121.5C 107.5,120.167 108.167,119.5 109.5,119.5 Z"/></g>
<g><path style="opacity:0.058" fill="#242f34" d="M 1937.5,119.5 C 1938.83,119.5 1939.5,120.167 1939.5,121.5C 1939.5,120.167 1938.83,119.5 1937.5,119.5 Z"/></g>
<g><path style="opacity:0.18" fill="#272d37" d="M 1940.5,122.5 C 1946.86,127.531 1952.19,133.531 1956.5,140.5C 1950.82,134.823 1945.49,128.823 1940.5,122.5 Z"/></g>
<g><path style="opacity:0.156" fill="#292d39" d="M 106.5,122.5 C 100.16,129.839 93.8268,137.172 87.5,144.5C 92.2788,136.038 98.6121,128.705 106.5,122.5 Z"/></g>
<g><path style="opacity:0.204" fill="#292c39" d="M 1956.5,140.5 C 1959,141.129 1960.33,142.796 1960.5,145.5C 1958.41,144.415 1957.08,142.749 1956.5,140.5 Z"/></g>
<g><path style="opacity:0.184" fill="#282c39" d="M 86.5,145.5 C 84.2065,149.127 81.5398,152.461 78.5,155.5C 79.7464,150.955 82.413,147.622 86.5,145.5 Z"/></g>
<g><path style="opacity:0.247" fill="#282d39" d="M 1960.5,145.5 C 1962.53,146.539 1963.86,148.205 1964.5,150.5C 1962.41,149.415 1961.08,147.749 1960.5,145.5 Z"/></g>
<g><path style="opacity:0.237" fill="#282c38" d="M 1964.5,150.5 C 1967.92,152.592 1970.25,155.592 1971.5,159.5C 1968.79,156.792 1966.46,153.792 1964.5,150.5 Z"/></g>
<g><path style="opacity:0.149" fill="#282b39" d="M 78.5,155.5 C 78.2624,157.404 77.2624,158.738 75.5,159.5C 75.5544,157.368 76.5544,156.035 78.5,155.5 Z"/></g>
<g><path style="opacity:0.152" fill="#292d39" d="M 390.5,157.5 C 380.88,159.37 370.88,160.37 360.5,160.5C 370.239,158.326 380.239,157.326 390.5,157.5 Z"/></g>
<g><path style="opacity:0.152" fill="#292d39" d="M 1656.5,157.5 C 1666.76,157.326 1676.76,158.326 1686.5,160.5C 1676.12,160.37 1666.12,159.37 1656.5,157.5 Z"/></g>
<g><path style="opacity:0.004" fill="#272537" d="M 1971.5,159.5 C 1973.53,160.048 1974.53,161.381 1974.5,163.5C 1972.74,162.738 1971.74,161.404 1971.5,159.5 Z"/></g>
<g><path style="opacity:0.155" fill="#2a2c39" d="M 350.5,161.5 C 349.848,162.725 348.681,163.392 347,163.5C 344.183,164.031 341.35,164.364 338.5,164.5C 342.2,162.719 346.2,161.719 350.5,161.5 Z"/></g>
<g><path style="opacity:0.158" fill="#292c39" d="M 1696.5,161.5 C 1700.8,161.719 1704.8,162.719 1708.5,164.5C 1705.65,164.364 1702.82,164.031 1700,163.5C 1698.32,163.392 1697.15,162.725 1696.5,161.5 Z"/></g>
<g><path style="opacity:0.163" fill="#292d39" d="M 332.5,165.5 C 331.448,167.256 329.781,167.923 327.5,167.5C 328.78,166.069 330.447,165.402 332.5,165.5 Z"/></g>
<g><path style="opacity:0.163" fill="#292d39" d="M 1714.5,165.5 C 1716.55,165.402 1718.22,166.069 1719.5,167.5C 1717.22,167.923 1715.55,167.256 1714.5,165.5 Z"/></g>
<g><path style="opacity:0.199" fill="#272d37" d="M 74.5,161.5 C 72.5179,164.81 70.1846,167.81 67.5,170.5C 68.7497,166.592 71.083,163.592 74.5,161.5 Z"/></g>
<g><path style="opacity:0.016" fill="#2a2b3a" d="M 319.5,169.5 C 320.568,168.566 321.901,168.232 323.5,168.5C 322.335,170.109 321.001,170.443 319.5,169.5 Z"/></g>
<g><path style="opacity:0.237" fill="#292c3a" d="M 1723.5,168.5 C 1725.1,168.232 1726.43,168.566 1727.5,169.5C 1726,170.443 1724.67,170.109 1723.5,168.5 Z"/></g>
<g><path style="opacity:0.137" fill="#272d37" d="M 1974.5,163.5 C 1977.32,164.992 1978.99,167.326 1979.5,170.5C 1977.1,168.704 1975.43,166.37 1974.5,163.5 Z"/></g>
<g><path style="opacity:0.17" fill="#282b3a" d="M 67.5,170.5 C 67.1551,173.198 65.8218,175.198 63.5,176.5C 63.8449,173.802 65.1782,171.802 67.5,170.5 Z"/></g>
<g><path style="opacity:0.172" fill="#282c39" d="M 1727.5,169.5 C 1732.93,170.747 1737.93,172.747 1742.5,175.5C 1740.07,175.477 1737.74,174.977 1735.5,174C 1732.5,172.79 1729.83,171.29 1727.5,169.5 Z"/></g>
<g><path style="opacity:0.17" fill="#282b3a" d="M 1979.5,170.5 C 1981.82,171.802 1983.16,173.802 1983.5,176.5C 1981.18,175.198 1979.84,173.198 1979.5,170.5 Z"/></g>
<g><path style="opacity:0.174" fill="#282c3a" d="M 319.5,169.5 C 317.17,171.29 314.503,172.79 311.5,174C 309.26,174.977 306.927,175.477 304.5,175.5C 304.611,174.883 304.944,174.383 305.5,174C 310.165,172.389 314.832,170.889 319.5,169.5 Z"/></g>
<g><path style="opacity:0.02" fill="#272c37" d="M 301.5,176.5 C 299.967,178.245 297.967,179.245 295.5,179.5C 296.911,177.461 298.911,176.461 301.5,176.5 Z"/></g>
<g><path style="opacity:0.134" fill="#272d37" d="M 1745.5,176.5 C 1748.91,177.042 1751.91,178.375 1754.5,180.5C 1750.9,180.308 1747.9,178.974 1745.5,176.5 Z"/></g>
<g><path style="opacity:0.033" fill="#262d35" d="M 1983.5,176.5 C 1986.55,179.576 1988.88,183.242 1990.5,187.5C 1987.42,184.35 1985.09,180.683 1983.5,176.5 Z"/></g>
<g><path style="opacity:0.176" fill="#272c37" d="M 63.5,176.5 C 62.9213,179.331 61.588,181.664 59.5,183.5C 59.9977,180.674 61.3311,178.34 63.5,176.5 Z"/></g>
<g><path style="opacity:0.129" fill="#282d39" d="M 292.5,180.5 C 290.493,182.837 287.827,184.171 284.5,184.5C 286.849,182.659 289.515,181.326 292.5,180.5 Z"/></g>
<g><path style="opacity:0.197" fill="#282c38" d="M 1754.5,180.5 C 1757.75,180.794 1760.42,182.127 1762.5,184.5C 1759.17,184.171 1756.51,182.837 1754.5,180.5 Z"/></g>
<g><path style="opacity:0.175" fill="#282c39" d="M 59.5,183.5 C 58.6597,185.853 57.3264,187.853 55.5,189.5C 55.8702,186.733 57.2036,184.733 59.5,183.5 Z"/></g>
<g><path style="opacity:0.122" fill="#282c39" d="M 284.5,184.5 C 280.899,187.308 276.899,189.641 272.5,191.5C 275.835,188.161 279.835,185.828 284.5,184.5 Z"/></g>
<g><path style="opacity:0.11" fill="#272c38" d="M 1762.5,184.5 C 1767.17,185.828 1771.17,188.161 1774.5,191.5C 1770.1,189.641 1766.1,187.308 1762.5,184.5 Z"/></g>
<g><path style="opacity:0.197" fill="#272c38" d="M 55.5,189.5 C 55.2503,191.674 54.2503,193.341 52.5,194.5C 52.2591,191.966 53.2591,190.3 55.5,189.5 Z"/></g>
<g><path style="opacity:0.137" fill="#282c39" d="M 270.5,192.5 C 269.7,194.741 268.034,195.741 265.5,195.5C 266.899,194.11 268.566,193.11 270.5,192.5 Z"/></g>
<g><path style="opacity:0.134" fill="#252e32" d="M 1776.5,192.5 C 1778.67,192.75 1780.34,193.75 1781.5,195.5C 1779.07,195.727 1777.4,194.727 1776.5,192.5 Z"/></g>
<g><path style="opacity:0.199" fill="#282b38" d="M 1991.5,189.5 C 1993.74,190.3 1994.74,191.966 1994.5,194.5C 1992.75,193.341 1991.75,191.674 1991.5,189.5 Z"/></g>
<g><path style="opacity:0.259" fill="#282e38" d="M 51.5,196.5 C 51.2503,198.674 50.2503,200.341 48.5,201.5C 48.5923,199.152 49.5923,197.486 51.5,196.5 Z"/></g>
<g><path style="opacity:0.208" fill="#282a38" d="M 1995.5,196.5 C 1997.74,197.3 1998.74,198.966 1998.5,201.5C 1996.75,200.341 1995.75,198.674 1995.5,196.5 Z"/></g>
<g><path style="opacity:0.16" fill="#282b38" d="M 265.5,195.5 C 255.178,203.485 244.845,211.485 234.5,219.5C 243.685,209.977 254.019,201.977 265.5,195.5 Z"/></g>
<g><path style="opacity:0.138" fill="#282d39" d="M 1999.5,203.5 C 2001.41,204.486 2002.41,206.152 2002.5,208.5C 2000.75,207.341 1999.75,205.674 1999.5,203.5 Z"/></g>
<g><path style="opacity:0.131" fill="#282c38" d="M 47.5,203.5 C 47.2503,205.674 46.2503,207.341 44.5,208.5C 44.5923,206.152 45.5923,204.486 47.5,203.5 Z"/></g>
<g><path style="opacity:0.228" fill="#282d38" d="M 1781.5,195.5 C 1791.4,200.95 1800.4,207.617 1808.5,215.5C 1798.99,209.574 1789.99,202.907 1781.5,195.5 Z"/></g>
<g><path style="opacity:0.237" fill="#262f34" d="M 2003.5,210.5 C 2005.1,211.287 2005.77,212.62 2005.5,214.5C 2003.9,213.713 2003.23,212.38 2003.5,210.5 Z"/></g>
<g><path style="opacity:0.169" fill="#272c36" d="M 44.5,209.5 C 43.9213,212.331 42.588,214.664 40.5,216.5C 40.5548,213.386 41.8881,211.052 44.5,209.5 Z"/></g>
<g><path style="opacity:0.031" fill="#23312f" d="M 1808.5,215.5 C 1810.17,216.5 1811.5,217.833 1812.5,219.5C 1810.17,219.167 1808.83,217.833 1808.5,215.5 Z"/></g>
<g><path style="opacity:0.206" fill="#282d3a" d="M 1812.5,219.5 C 1818.48,223.479 1823.48,228.479 1827.5,234.5C 1826.5,234.586 1825.67,234.252 1825,233.5C 1820.7,228.938 1816.53,224.271 1812.5,219.5 Z"/></g>
<g><path style="opacity:0.149" fill="#262d37" d="M 40.5,216.5 C 40.2064,219.754 38.873,222.421 36.5,224.5C 36.8961,221.279 38.2295,218.612 40.5,216.5 Z"/></g>
<g><path style="opacity:0.193" fill="#282d39" d="M 234.5,219.5 C 230.325,224.306 225.992,229.139 221.5,234C 220.906,234.464 220.239,234.631 219.5,234.5C 223.5,228.5 228.5,223.5 234.5,219.5 Z"/></g>
<g><path style="opacity:0.237" fill="#262e35" d="M 2006.5,216.5 C 2008.35,218.03 2009.35,220.03 2009.5,222.5C 2007.46,221.089 2006.46,219.089 2006.5,216.5 Z"/></g>
<g><path style="opacity:0.092" fill="#282b37" d="M 35.5,227.5 C 35.7709,229.38 35.1042,230.713 33.5,231.5C 33.1568,229.517 33.8235,228.183 35.5,227.5 Z"/></g>
<g><path style="opacity:0.124" fill="#282c38" d="M 2011.5,227.5 C 2013.61,228.784 2014.61,230.784 2014.5,233.5C 2012.99,231.819 2011.99,229.819 2011.5,227.5 Z"/></g>
<g><path style="opacity:0.158" fill="#272d36" d="M 32.5,233.5 C 32.2927,236.241 31.2927,238.574 29.5,240.5C 29.1663,237.509 30.1663,235.176 32.5,233.5 Z"/></g>
<g><path style="opacity:0.155" fill="#262c36" d="M 2014.5,233.5 C 2016.83,235.176 2017.83,237.509 2017.5,240.5C 2015.71,238.574 2014.71,236.241 2014.5,233.5 Z"/></g>
<g><path style="opacity:0.027" fill="#2a2c37" d="M 1827.5,234.5 C 1829.91,235.911 1831.58,237.911 1832.5,240.5C 1829.43,239.699 1827.76,237.699 1827.5,234.5 Z"/></g>
<g><path style="opacity:0.202" fill="#282c38" d="M 219.5,234.5 C 218.271,237.566 216.437,240.233 214,242.5C 213.329,243.252 212.496,243.586 211.5,243.5C 213.43,239.9 216.097,236.9 219.5,234.5 Z"/></g>
<g><path style="opacity:0.146" fill="#282d3a" d="M 1832.5,240.5 C 1834.19,240.856 1835.19,241.856 1835.5,243.5C 1833.5,243.5 1832.5,242.5 1832.5,240.5 Z"/></g>
<g><path style="opacity:0.14" fill="#282c39" d="M 28.5,243.5 C 28.0652,246.157 27.0652,248.491 25.5,250.5C 25.179,247.423 26.179,245.09 28.5,243.5 Z"/></g>
<g><path style="opacity:0.134" fill="#292c39" d="M 2018.5,243.5 C 2020.82,245.09 2021.82,247.423 2021.5,250.5C 2019.93,248.491 2018.93,246.157 2018.5,243.5 Z"/></g>
<g><path style="opacity:0.059" fill="#282b38" d="M 211.5,243.5 C 211.291,244.922 210.791,246.255 210,247.5C 207.715,250.432 205.215,253.098 202.5,255.5C 204.738,250.929 207.738,246.929 211.5,243.5 Z"/></g>
<g><path style="opacity:0.059" fill="#282b38" d="M 1835.5,243.5 C 1839.26,246.929 1842.26,250.929 1844.5,255.5C 1841.78,253.098 1839.28,250.432 1837,247.5C 1836.21,246.255 1835.71,244.922 1835.5,243.5 Z"/></g>
<g><path style="opacity:0.143" fill="#282838" d="M 202.5,255.5 C 202.532,257.619 201.532,258.952 199.5,259.5C 199.738,257.596 200.738,256.262 202.5,255.5 Z"/></g>
<g><path style="opacity:0.136" fill="#282d39" d="M 24.5,253.5 C 24.2927,256.241 23.2927,258.574 21.5,260.5C 21.4642,257.539 22.4642,255.206 24.5,253.5 Z"/></g>
<g><path style="opacity:0.035" fill="#272737" d="M 1844.5,255.5 C 1846.26,256.262 1847.26,257.596 1847.5,259.5C 1845.47,258.952 1844.47,257.619 1844.5,255.5 Z"/></g>
<g><path style="opacity:0.136" fill="#282d39" d="M 2022.5,253.5 C 2024.54,255.206 2025.54,257.539 2025.5,260.5C 2023.71,258.574 2022.71,256.241 2022.5,253.5 Z"/></g>
<g><path style="opacity:0.086" fill="#272c38" d="M 1847.5,259.5 C 1849.82,260.802 1851.16,262.802 1851.5,265.5C 1849.18,264.198 1847.84,262.198 1847.5,259.5 Z"/></g>
<g><path style="opacity:0.012" fill="#282c38" d="M 199.5,259.5 C 199.155,262.198 197.822,264.198 195.5,265.5C 195.845,262.802 197.178,260.802 199.5,259.5 Z"/></g>
<g><path style="opacity:0.119" fill="#282a39" d="M 20.5,264.5 C 20.2671,267.542 19.2671,270.208 17.5,272.5C 17.3072,269.189 18.3072,266.522 20.5,264.5 Z"/></g>
<g><path style="opacity:0.119" fill="#282a39" d="M 2026.5,264.5 C 2028.69,266.522 2029.69,269.189 2029.5,272.5C 2027.73,270.208 2026.73,267.542 2026.5,264.5 Z"/></g>
<g><path style="opacity:0.008" fill="#2a2a3a" d="M 194.5,267.5 C 194.715,269.179 194.048,270.179 192.5,270.5C 192.427,268.973 193.094,267.973 194.5,267.5 Z"/></g>
<g><path style="opacity:0.053" fill="#272c38" d="M 1852.5,267.5 C 1853.91,267.973 1854.57,268.973 1854.5,270.5C 1852.95,270.179 1852.29,269.179 1852.5,267.5 Z"/></g>
<g><path style="opacity:0.166" fill="#282b39" d="M 16.5,276.5 C 16.4725,279.916 15.4725,282.916 13.5,285.5C 13.59,283.304 13.9233,281.137 14.5,279C 14.6842,277.624 15.3509,276.791 16.5,276.5 Z"/></g>
<g><path style="opacity:0.166" fill="#282b39" d="M 2030.5,276.5 C 2031.65,276.791 2032.32,277.624 2032.5,279C 2033.08,281.137 2033.41,283.304 2033.5,285.5C 2031.53,282.916 2030.53,279.916 2030.5,276.5 Z"/></g>
<g><path style="opacity:0.082" fill="#272d38" d="M 191.5,272.5 C 189.641,276.899 187.308,280.899 184.5,284.5C 185.828,279.835 188.161,275.835 191.5,272.5 Z"/></g>
<g><path style="opacity:0.082" fill="#272d37" d="M 1855.5,272.5 C 1858.84,275.835 1861.17,279.835 1862.5,284.5C 1859.69,280.899 1857.36,276.899 1855.5,272.5 Z"/></g>
<g><path style="opacity:0.13" fill="#282d39" d="M 183.5,286.5 C 183.614,289.216 182.614,291.216 180.5,292.5C 180.992,290.181 181.992,288.181 183.5,286.5 Z"/></g>
<g><path style="opacity:0.043" fill="#272e37" d="M 1863.5,286.5 C 1865.01,288.181 1866.01,290.181 1866.5,292.5C 1864.39,291.216 1863.39,289.216 1863.5,286.5 Z"/></g>
<g><path style="opacity:0.186" fill="#282d38" d="M 2034.5,291.5 C 2035.65,291.791 2036.32,292.624 2036.5,294C 2037.16,296.462 2037.49,298.962 2037.5,301.5C 2036.13,298.381 2035.13,295.048 2034.5,291.5 Z"/></g>
<g><path style="opacity:0.259" fill="#282b38" d="M 12.5,291.5 C 11.8699,295.048 10.8699,298.381 9.5,301.5C 9.39745,298.781 9.73078,296.115 10.5,293.5C 10.7472,292.287 11.4138,291.62 12.5,291.5 Z"/></g>
<g><path style="opacity:0.078" fill="#282838" d="M 1867.5,295.5 C 1869.54,296.911 1870.54,298.911 1870.5,301.5C 1868.46,300.089 1867.46,298.089 1867.5,295.5 Z"/></g>
<g><path style="opacity:0.088" fill="#272937" d="M 179.5,295.5 C 179.245,297.967 178.245,299.967 176.5,301.5C 176.461,298.911 177.461,296.911 179.5,295.5 Z"/></g>
<g><path style="opacity:0.184" fill="#292c39" d="M 1871.5,304.5 C 1873.24,306.395 1874.24,308.728 1874.5,311.5C 1872.18,309.91 1871.18,307.577 1871.5,304.5 Z"/></g>
<g><path style="opacity:0.176" fill="#292b3a" d="M 175.5,304.5 C 175.821,307.577 174.821,309.91 172.5,311.5C 172.552,308.654 173.552,306.32 175.5,304.5 Z"/></g>
<g><path style="opacity:0.175" fill="#272d37" d="M 8.5,307.5 C 7.86843,311.702 6.86843,315.702 5.5,319.5C 5.50505,316.468 5.83838,313.468 6.5,310.5C 6.63985,308.97 7.30652,307.97 8.5,307.5 Z"/></g>
<g><path style="opacity:0.172" fill="#272d37" d="M 2038.5,307.5 C 2039.69,307.97 2040.36,308.97 2040.5,310.5C 2041.16,313.468 2041.49,316.468 2041.5,319.5C 2040.13,315.702 2039.13,311.702 2038.5,307.5 Z"/></g>
<g><path style="opacity:0.178" fill="#282c38" d="M 172.5,311.5 C 172.524,315.787 171.19,319.453 168.5,322.5C 169.065,318.463 170.399,314.797 172.5,311.5 Z"/></g>
<g><path style="opacity:0.179" fill="#282d39" d="M 1874.5,311.5 C 1876.6,314.797 1877.93,318.463 1878.5,322.5C 1875.81,319.453 1874.48,315.787 1874.5,311.5 Z"/></g>
<g><path style="opacity:0.165" fill="#292d39" d="M 167.5,327.5 C 167.923,329.781 167.256,331.448 165.5,332.5C 165.402,330.447 166.069,328.78 167.5,327.5 Z"/></g>
<g><path style="opacity:0.176" fill="#282d39" d="M 1879.5,327.5 C 1880.93,328.78 1881.6,330.447 1881.5,332.5C 1879.74,331.448 1879.08,329.781 1879.5,327.5 Z"/></g>
<g><path style="opacity:0.138" fill="#282d39" d="M 4.5,328.5 C 4.32385,331.727 3.65719,334.727 2.5,337.5C 1.9455,333.988 2.61216,330.988 4.5,328.5 Z"/></g>
<g><path style="opacity:0.138" fill="#282d39" d="M 2042.5,328.5 C 2044.39,330.988 2045.05,333.988 2044.5,337.5C 2043.34,334.727 2042.68,331.727 2042.5,328.5 Z"/></g>
<g><path style="opacity:0.156" fill="#292c39" d="M 163.5,342.5 C 163.663,344.857 163.497,347.19 163,349.5C 162.617,350.056 162.117,350.389 161.5,350.5C 161.294,347.505 161.96,344.838 163.5,342.5 Z"/></g>
<g><path style="opacity:0.16" fill="#292c39" d="M 1882.5,338.5 C 1884.28,342.2 1885.28,346.2 1885.5,350.5C 1884.88,350.389 1884.38,350.056 1884,349.5C 1883.28,345.855 1882.78,342.188 1882.5,338.5 Z"/></g>
<g><path style="opacity:0.087" fill="#282d39" d="M 1.5,348.5 C 1.08684,357.002 0.420174,365.335 -0.5,373.5C -0.5,366.167 -0.5,358.833 -0.5,351.5C 0.166667,350.5 0.833333,349.5 1.5,348.5 Z"/></g>
<g><path style="opacity:0.087" fill="#282d39" d="M 2045.5,348.5 C 2046.17,349.5 2046.83,350.5 2047.5,351.5C 2047.5,358.833 2047.5,366.167 2047.5,373.5C 2046.58,365.335 2045.91,357.002 2045.5,348.5 Z"/></g>
<g><path style="opacity:0.164" fill="#292d39" d="M 160.5,360.5 C 160.37,370.88 159.37,380.88 157.5,390.5C 157.198,380.228 158.198,370.228 160.5,360.5 Z"/></g>
<g><path style="opacity:0.152" fill="#292d39" d="M 1886.5,360.5 C 1888.67,370.239 1889.67,380.239 1889.5,390.5C 1887.63,380.88 1886.63,370.88 1886.5,360.5 Z"/></g>
<g><path style="opacity:1" fill="#c2c2c2" d="M 1038.5,472.5 C 1042.57,474.325 1046.9,475.658 1051.5,476.5C 1053.43,478.293 1055.76,479.293 1058.5,479.5C 1068.73,485.41 1077.73,492.743 1085.5,501.5C 1086.17,501.5 1086.5,501.833 1086.5,502.5C 1086.74,504.404 1087.74,505.738 1089.5,506.5C 1090.08,509.331 1091.41,511.664 1093.5,513.5C 1094.33,516.485 1095.66,519.151 1097.5,521.5C 1097.5,521.833 1097.5,522.167 1097.5,522.5C 1097.9,525.486 1098.9,528.152 1100.5,530.5C 1101.37,532.717 1101.7,535.05 1101.5,537.5C 1102.49,673.149 1102.82,808.816 1102.5,944.5C 1238.51,944.177 1374.51,944.51 1510.5,945.5C 1512.74,945.205 1514.74,945.539 1516.5,946.5C 1518.85,948.097 1521.51,949.097 1524.5,949.5C 1524.83,949.5 1525.17,949.5 1525.5,949.5C 1527.18,951.008 1529.18,952.008 1531.5,952.5C 1531.84,953.338 1532.51,953.672 1533.5,953.5C 1535.34,955.588 1537.67,956.921 1540.5,957.5C 1541.26,959.262 1542.6,960.262 1544.5,960.5C 1548.02,964.076 1551.69,967.41 1555.5,970.5C 1556.08,972.749 1557.41,974.415 1559.5,975.5C 1560.34,977.853 1561.67,979.853 1563.5,981.5C 1564.34,981.842 1564.67,982.508 1564.5,983.5C 1564.43,985.027 1565.09,986.027 1566.5,986.5C 1567.34,986.842 1567.67,987.508 1567.5,988.5C 1567.71,991.241 1568.71,993.574 1570.5,995.5C 1571.4,996.209 1571.74,997.209 1571.5,998.5C 1571.76,1002.17 1572.76,1005.5 1574.5,1008.5C 1575.83,1018.5 1575.83,1028.5 1574.5,1038.5C 1572.76,1041.5 1571.76,1044.83 1571.5,1048.5C 1571.74,1049.79 1571.4,1050.79 1570.5,1051.5C 1568.71,1053.43 1567.71,1055.76 1567.5,1058.5C 1567.67,1059.49 1567.34,1060.16 1566.5,1060.5C 1565.09,1060.97 1564.43,1061.97 1564.5,1063.5C 1564.67,1064.49 1564.34,1065.16 1563.5,1065.5C 1561.67,1067.15 1560.34,1069.15 1559.5,1071.5C 1557.41,1072.58 1556.08,1074.25 1555.5,1076.5C 1551.69,1079.59 1548.02,1082.92 1544.5,1086.5C 1542.6,1086.74 1541.26,1087.74 1540.5,1089.5C 1537.67,1090.08 1535.34,1091.41 1533.5,1093.5C 1532.51,1093.33 1531.84,1093.66 1531.5,1094.5C 1529.18,1094.99 1527.18,1095.99 1525.5,1097.5C 1525.17,1097.5 1524.83,1097.5 1524.5,1097.5C 1521.46,1097.73 1518.79,1098.73 1516.5,1100.5C 1514.74,1101.46 1512.74,1101.79 1510.5,1101.5C 1374.51,1102.49 1238.51,1102.82 1102.5,1102.5C 1102.83,1241.18 1102.49,1379.85 1101.5,1518.5C 1101.7,1520.95 1101.37,1523.28 1100.5,1525.5C 1098.73,1527.79 1097.73,1530.46 1097.5,1533.5C 1097.74,1534.79 1097.4,1535.79 1096.5,1536.5C 1094.99,1538.18 1093.99,1540.18 1093.5,1542.5C 1093.67,1543.49 1093.34,1544.16 1092.5,1544.5C 1091.09,1544.97 1090.43,1545.97 1090.5,1547.5C 1090.67,1548.49 1090.34,1549.16 1089.5,1549.5C 1083.5,1556.17 1077.17,1562.5 1070.5,1568.5C 1069.13,1569.51 1067.8,1570.51 1066.5,1571.5C 1064.15,1572.34 1062.15,1573.67 1060.5,1575.5C 1057.09,1576.04 1054.09,1577.38 1051.5,1579.5C 1051.17,1579.5 1050.83,1579.5 1050.5,1579.5C 1047.22,1579.93 1044.22,1580.93 1041.5,1582.5C 1039.39,1583.47 1037.06,1583.8 1034.5,1583.5C 1027.17,1583.5 1019.83,1583.5 1012.5,1583.5C 1009.94,1583.8 1007.61,1583.47 1005.5,1582.5C 1002.78,1580.93 999.785,1579.93 996.5,1579.5C 996.167,1579.5 995.833,1579.5 995.5,1579.5C 992.912,1577.38 989.912,1576.04 986.5,1575.5C 984.853,1573.67 982.853,1572.34 980.5,1571.5C 973.561,1565.9 966.894,1559.9 960.5,1553.5C 960.262,1551.6 959.262,1550.26 957.5,1549.5C 956.662,1549.16 956.328,1548.49 956.5,1547.5C 956.573,1545.97 955.906,1544.97 954.5,1544.5C 953.662,1544.16 953.328,1543.49 953.5,1542.5C 953.008,1540.18 952.008,1538.18 950.5,1536.5C 949.596,1535.79 949.263,1534.79 949.5,1533.5C 949.267,1530.46 948.267,1527.79 946.5,1525.5C 945.631,1523.28 945.298,1520.95 945.5,1518.5C 944.508,1379.85 944.175,1241.18 944.5,1102.5C 808.485,1102.82 672.485,1102.49 536.5,1101.5C 534.265,1101.79 532.265,1101.46 530.5,1100.5C 528.152,1098.9 525.486,1097.9 522.5,1097.5C 522.167,1097.5 521.833,1097.5 521.5,1097.5C 519.819,1095.99 517.819,1094.99 515.5,1094.5C 515.158,1093.66 514.492,1093.33 513.5,1093.5C 511.664,1091.41 509.331,1090.08 506.5,1089.5C 505.738,1087.74 504.404,1086.74 502.5,1086.5C 498.981,1082.92 495.315,1079.59 491.5,1076.5C 490.92,1074.25 489.587,1072.58 487.5,1071.5C 486.66,1069.15 485.326,1067.15 483.5,1065.5C 482.662,1065.16 482.328,1064.49 482.5,1063.5C 482.573,1061.97 481.906,1060.97 480.5,1060.5C 479.662,1060.16 479.328,1059.49 479.5,1058.5C 479.293,1055.76 478.293,1053.43 476.5,1051.5C 475.596,1050.79 475.263,1049.79 475.5,1048.5C 475.243,1044.83 474.243,1041.5 472.5,1038.5C 471.167,1028.5 471.167,1018.5 472.5,1008.5C 474.243,1005.5 475.243,1002.17 475.5,998.5C 475.263,997.209 475.596,996.209 476.5,995.5C 478.293,993.574 479.293,991.241 479.5,988.5C 479.328,987.508 479.662,986.842 480.5,986.5C 481.906,986.027 482.573,985.027 482.5,983.5C 482.328,982.508 482.662,981.842 483.5,981.5C 485.326,979.853 486.66,977.853 487.5,975.5C 489.587,974.415 490.92,972.749 491.5,970.5C 495.315,967.41 498.981,964.076 502.5,960.5C 504.404,960.262 505.738,959.262 506.5,957.5C 509.331,956.921 511.664,955.588 513.5,953.5C 514.492,953.672 515.158,953.338 515.5,952.5C 517.819,952.008 519.819,951.008 521.5,949.5C 521.833,949.5 522.167,949.5 522.5,949.5C 525.486,949.097 528.152,948.097 530.5,946.5C 532.265,945.539 534.265,945.205 536.5,945.5C 672.485,944.51 808.485,944.177 944.5,944.5C 944.175,808.816 944.508,673.149 945.5,537.5C 945.298,535.05 945.631,532.717 946.5,530.5C 948.097,528.152 949.097,525.486 949.5,522.5C 949.5,522.167 949.5,521.833 949.5,521.5C 951.341,519.151 952.674,516.485 953.5,513.5C 955.588,511.664 956.921,509.331 957.5,506.5C 959.262,505.738 960.262,504.404 960.5,502.5C 960.5,501.833 960.833,501.5 961.5,501.5C 969.265,492.743 978.265,485.41 988.5,479.5C 991.241,479.293 993.574,478.293 995.5,476.5C 1000.1,475.658 1004.43,474.325 1008.5,472.5C 1018.5,471.167 1028.5,471.167 1038.5,472.5 Z"/></g>
<g><path style="opacity:0.131" fill="#282c39" d="M 1008.5,472.5 C 1004.43,474.325 1000.1,475.658 995.5,476.5C 999.307,473.793 1003.64,472.46 1008.5,472.5 Z"/></g>
<g><path style="opacity:0.131" fill="#282c39" d="M 1038.5,472.5 C 1043.36,472.46 1047.69,473.793 1051.5,476.5C 1046.9,475.658 1042.57,474.325 1038.5,472.5 Z"/></g>
<g><path style="opacity:0.184" fill="#282d3a" d="M 995.5,476.5 C 993.574,478.293 991.241,479.293 988.5,479.5C 990.185,477.182 992.519,476.182 995.5,476.5 Z"/></g>
<g><path style="opacity:0.184" fill="#282d3a" d="M 1051.5,476.5 C 1054.48,476.182 1056.81,477.182 1058.5,479.5C 1055.76,479.293 1053.43,478.293 1051.5,476.5 Z"/></g>
<g><path style="opacity:0.063" fill="#282b37" d="M 988.5,479.5 C 978.265,485.41 969.265,492.743 961.5,501.5C 963.836,496.651 967.169,492.484 971.5,489C 976.619,484.776 982.285,481.609 988.5,479.5 Z"/></g>
<g><path style="opacity:0.065" fill="#282a37" d="M 1058.5,479.5 C 1068.39,483.375 1076.89,489.375 1084,497.5C 1084.79,498.745 1085.29,500.078 1085.5,501.5C 1077.73,492.743 1068.73,485.41 1058.5,479.5 Z"/></g>
<g><path style="opacity:0.21" fill="#282b39" d="M 960.5,502.5 C 960.262,504.404 959.262,505.738 957.5,506.5C 957.554,504.368 958.554,503.035 960.5,502.5 Z"/></g>
<g><path style="opacity:0.21" fill="#282b39" d="M 1086.5,502.5 C 1088.45,503.035 1089.45,504.368 1089.5,506.5C 1087.74,505.738 1086.74,504.404 1086.5,502.5 Z"/></g>
<g><path style="opacity:0.043" fill="#282a38" d="M 1089.5,506.5 C 1092.11,508.052 1093.45,510.386 1093.5,513.5C 1091.41,511.664 1090.08,509.331 1089.5,506.5 Z"/></g>
<g><path style="opacity:0.106" fill="#272a37" d="M 957.5,506.5 C 956.921,509.331 955.588,511.664 953.5,513.5C 953.555,510.386 954.888,508.052 957.5,506.5 Z"/></g>
<g><path style="opacity:0.125" fill="#272c38" d="M 953.5,513.5 C 952.674,516.485 951.341,519.151 949.5,521.5C 949.829,518.173 951.163,515.507 953.5,513.5 Z"/></g>
<g><path style="opacity:0.118" fill="#282c38" d="M 1093.5,513.5 C 1095.84,515.507 1097.17,518.173 1097.5,521.5C 1095.66,519.151 1094.33,516.485 1093.5,513.5 Z"/></g>
<g><path style="opacity:0.195" fill="#282b38" d="M 949.5,522.5 C 949.097,525.486 948.097,528.152 946.5,530.5C 946.023,527.083 947.023,524.416 949.5,522.5 Z"/></g>
<g><path style="opacity:0.195" fill="#282b38" d="M 1097.5,522.5 C 1099.98,524.416 1100.98,527.083 1100.5,530.5C 1098.9,528.152 1097.9,525.486 1097.5,522.5 Z"/></g>
<g><path style="opacity:0.037" fill="#292d3a" d="M 945.5,537.5 C 944.508,673.149 944.175,808.816 944.5,944.5C 808.485,944.177 672.485,944.51 536.5,945.5C 536.611,944.883 536.944,944.383 537.5,944C 672.833,943.5 808.166,943.333 943.5,943.5C 942.835,807.829 943.502,672.496 945.5,537.5 Z"/></g>
<g><path style="opacity:0.037" fill="#292d3a" d="M 1101.5,537.5 C 1103.5,672.496 1104.17,807.829 1103.5,943.5C 1238.83,943.333 1374.17,943.5 1509.5,944C 1510.06,944.383 1510.39,944.883 1510.5,945.5C 1374.51,944.51 1238.51,944.177 1102.5,944.5C 1102.82,808.816 1102.49,673.149 1101.5,537.5 Z"/></g>
<g><path style="opacity:0.191" fill="#282c39" d="M 530.5,946.5 C 528.152,948.097 525.486,949.097 522.5,949.5C 524.416,947.023 527.083,946.023 530.5,946.5 Z"/></g>
<g><path style="opacity:0.191" fill="#282c39" d="M 1516.5,946.5 C 1519.92,946.023 1522.58,947.023 1524.5,949.5C 1521.51,949.097 1518.85,948.097 1516.5,946.5 Z"/></g>
<g><path style="opacity:0.109" fill="#282d3a" d="M 521.5,949.5 C 519.819,951.008 517.819,952.008 515.5,952.5C 516.784,950.386 518.784,949.386 521.5,949.5 Z"/></g>
<g><path style="opacity:0.109" fill="#282d3a" d="M 1525.5,949.5 C 1528.22,949.386 1530.22,950.386 1531.5,952.5C 1529.18,952.008 1527.18,951.008 1525.5,949.5 Z"/></g>
<g><path style="opacity:0.156" fill="#272e3a" d="M 515.5,952.5 C 515.158,953.338 514.492,953.672 513.5,953.5C 513.409,951.302 514.075,950.969 515.5,952.5 Z"/></g>
<g><path style="opacity:0.156" fill="#272e3a" d="M 1533.5,953.5 C 1532.51,953.672 1531.84,953.338 1531.5,952.5C 1532.92,950.969 1533.59,951.302 1533.5,953.5 Z"/></g>
<g><path style="opacity:0.214" fill="#282b38" d="M 513.5,953.5 C 511.664,955.588 509.331,956.921 506.5,957.5C 508.052,954.888 510.386,953.555 513.5,953.5 Z"/></g>
<g><path style="opacity:0.214" fill="#282b38" d="M 1533.5,953.5 C 1536.61,953.555 1538.95,954.888 1540.5,957.5C 1537.67,956.921 1535.34,955.588 1533.5,953.5 Z"/></g>
<g><path style="opacity:0.21" fill="#282938" d="M 506.5,957.5 C 505.738,959.262 504.404,960.262 502.5,960.5C 502.694,958.088 504.027,957.088 506.5,957.5 Z"/></g>
<g><path style="opacity:0.21" fill="#282938" d="M 1540.5,957.5 C 1542.97,957.088 1544.31,958.088 1544.5,960.5C 1542.6,960.262 1541.26,959.262 1540.5,957.5 Z"/></g>
<g><path style="opacity:0.098" fill="#2a2a39" d="M 1544.5,960.5 C 1549.44,962.442 1553.11,965.775 1555.5,970.5C 1551.69,967.41 1548.02,964.076 1544.5,960.5 Z"/></g>
<g><path style="opacity:0.06" fill="#2a2a39" d="M 502.5,960.5 C 498.981,964.076 495.315,967.41 491.5,970.5C 493.892,965.775 497.559,962.442 502.5,960.5 Z"/></g>
<g><path style="opacity:0.144" fill="#252e34" d="M 491.5,970.5 C 490.92,972.749 489.587,974.415 487.5,975.5C 487.731,972.937 489.065,971.27 491.5,970.5 Z"/></g>
<g><path style="opacity:0.144" fill="#252e34" d="M 1555.5,970.5 C 1557.94,971.27 1559.27,972.937 1559.5,975.5C 1557.41,974.415 1556.08,972.749 1555.5,970.5 Z"/></g>
<g><path style="opacity:0.175" fill="#292b39" d="M 487.5,975.5 C 486.66,977.853 485.326,979.853 483.5,981.5C 483.633,978.634 484.966,976.634 487.5,975.5 Z"/></g>
<g><path style="opacity:0.171" fill="#282a38" d="M 1559.5,975.5 C 1562.03,976.634 1563.37,978.634 1563.5,981.5C 1561.67,979.853 1560.34,977.853 1559.5,975.5 Z"/></g>
<g><path style="opacity:0.21" fill="#282c38" d="M 482.5,983.5 C 482.573,985.027 481.906,986.027 480.5,986.5C 480.285,984.821 480.952,983.821 482.5,983.5 Z"/></g>
<g><path style="opacity:0.2" fill="#282c38" d="M 1564.5,983.5 C 1566.05,983.821 1566.71,984.821 1566.5,986.5C 1565.09,986.027 1564.43,985.027 1564.5,983.5 Z"/></g>
<g><path style="opacity:0.167" fill="#282c39" d="M 479.5,988.5 C 479.293,991.241 478.293,993.574 476.5,995.5C 476.182,992.519 477.182,990.185 479.5,988.5 Z"/></g>
<g><path style="opacity:0.167" fill="#282c38" d="M 1567.5,988.5 C 1569.82,990.185 1570.82,992.519 1570.5,995.5C 1568.71,993.574 1567.71,991.241 1567.5,988.5 Z"/></g>
<g><path style="opacity:0.214" fill="#292c39" d="M 475.5,998.5 C 475.243,1002.17 474.243,1005.5 472.5,1008.5C 472.288,1004.65 473.288,1001.32 475.5,998.5 Z"/></g>
<g><path style="opacity:0.214" fill="#292c39" d="M 1571.5,998.5 C 1573.71,1001.32 1574.71,1004.65 1574.5,1008.5C 1572.76,1005.5 1571.76,1002.17 1571.5,998.5 Z"/></g>
<g><path style="opacity:0.214" fill="#292c39" d="M 472.5,1038.5 C 474.243,1041.5 475.243,1044.83 475.5,1048.5C 473.288,1045.68 472.288,1042.35 472.5,1038.5 Z"/></g>
<g><path style="opacity:0.214" fill="#292c39" d="M 1574.5,1038.5 C 1574.71,1042.35 1573.71,1045.68 1571.5,1048.5C 1571.76,1044.83 1572.76,1041.5 1574.5,1038.5 Z"/></g>
<g><path style="opacity:0.18" fill="#282c39" d="M 476.5,1051.5 C 478.293,1053.43 479.293,1055.76 479.5,1058.5C 477.182,1056.81 476.182,1054.48 476.5,1051.5 Z"/></g>
<g><path style="opacity:0.21" fill="#282c38" d="M 1570.5,1051.5 C 1570.82,1054.48 1569.82,1056.81 1567.5,1058.5C 1567.71,1055.76 1568.71,1053.43 1570.5,1051.5 Z"/></g>
<g><path style="opacity:0.122" fill="#282c38" d="M 480.5,1060.5 C 481.906,1060.97 482.573,1061.97 482.5,1063.5C 480.952,1063.18 480.285,1062.18 480.5,1060.5 Z"/></g>
<g><path style="opacity:0.016" fill="#272b38" d="M 1566.5,1060.5 C 1566.71,1062.18 1566.05,1063.18 1564.5,1063.5C 1564.43,1061.97 1565.09,1060.97 1566.5,1060.5 Z"/></g>
<g><path style="opacity:0.204" fill="#282a38" d="M 483.5,1065.5 C 485.326,1067.15 486.66,1069.15 487.5,1071.5C 484.966,1070.37 483.633,1068.37 483.5,1065.5 Z"/></g>
<g><path style="opacity:0.179" fill="#282b39" d="M 1563.5,1065.5 C 1563.37,1068.37 1562.03,1070.37 1559.5,1071.5C 1560.34,1069.15 1561.67,1067.15 1563.5,1065.5 Z"/></g>
<g><path style="opacity:0.144" fill="#252e34" d="M 487.5,1071.5 C 489.587,1072.58 490.92,1074.25 491.5,1076.5C 489.065,1075.73 487.731,1074.06 487.5,1071.5 Z"/></g>
<g><path style="opacity:0.027" fill="#222f31" d="M 1559.5,1071.5 C 1559.27,1074.06 1557.94,1075.73 1555.5,1076.5C 1556.08,1074.25 1557.41,1072.58 1559.5,1071.5 Z"/></g>
<g><path style="opacity:0.102" fill="#2a2a39" d="M 491.5,1076.5 C 495.315,1079.59 498.981,1082.92 502.5,1086.5C 497.559,1084.56 493.892,1081.23 491.5,1076.5 Z"/></g>
<g><path style="opacity:0.051" fill="#282c37" d="M 1555.5,1076.5 C 1554.8,1078.72 1553.46,1080.55 1551.5,1082C 1549.27,1083.75 1546.93,1085.25 1544.5,1086.5C 1548.02,1082.92 1551.69,1079.59 1555.5,1076.5 Z"/></g>
<g><path style="opacity:0.131" fill="#282938" d="M 502.5,1086.5 C 504.404,1086.74 505.738,1087.74 506.5,1089.5C 504.027,1089.91 502.694,1088.91 502.5,1086.5 Z"/></g>
<g><path style="opacity:0.131" fill="#282938" d="M 1544.5,1086.5 C 1544.31,1088.91 1542.97,1089.91 1540.5,1089.5C 1541.26,1087.74 1542.6,1086.74 1544.5,1086.5 Z"/></g>
<g><path style="opacity:0.102" fill="#282b38" d="M 506.5,1089.5 C 509.331,1090.08 511.664,1091.41 513.5,1093.5C 510.386,1093.45 508.052,1092.11 506.5,1089.5 Z"/></g>
<g><path style="opacity:0.102" fill="#262d36" d="M 1540.5,1089.5 C 1538.95,1092.11 1536.61,1093.45 1533.5,1093.5C 1535.34,1091.41 1537.67,1090.08 1540.5,1089.5 Z"/></g>
<g><path style="opacity:0.157" fill="#272d39" d="M 513.5,1093.5 C 514.492,1093.33 515.158,1093.66 515.5,1094.5C 514.075,1096.03 513.409,1095.7 513.5,1093.5 Z"/></g>
<g><path style="opacity:0.157" fill="#272d39" d="M 1531.5,1094.5 C 1531.84,1093.66 1532.51,1093.33 1533.5,1093.5C 1533.59,1095.7 1532.92,1096.03 1531.5,1094.5 Z"/></g>
<g><path style="opacity:0.11" fill="#282c39" d="M 515.5,1094.5 C 517.819,1094.99 519.819,1095.99 521.5,1097.5C 518.784,1097.61 516.784,1096.61 515.5,1094.5 Z"/></g>
<g><path style="opacity:0.099" fill="#282c38" d="M 1531.5,1094.5 C 1530.22,1096.61 1528.22,1097.61 1525.5,1097.5C 1527.18,1095.99 1529.18,1094.99 1531.5,1094.5 Z"/></g>
<g><path style="opacity:0.193" fill="#282c39" d="M 522.5,1097.5 C 525.486,1097.9 528.152,1098.9 530.5,1100.5C 527.083,1100.98 524.416,1099.98 522.5,1097.5 Z"/></g>
<g><path style="opacity:0.193" fill="#282b39" d="M 1524.5,1097.5 C 1522.58,1099.98 1519.92,1100.98 1516.5,1100.5C 1518.79,1098.73 1521.46,1097.73 1524.5,1097.5 Z"/></g>
<g><path style="opacity:0.037" fill="#292d3a" d="M 536.5,1101.5 C 672.485,1102.49 808.485,1102.82 944.5,1102.5C 944.175,1241.18 944.508,1379.85 945.5,1518.5C 943.502,1380.5 942.835,1242.17 943.5,1103.5C 808.166,1103.67 672.833,1103.5 537.5,1103C 536.944,1102.62 536.611,1102.12 536.5,1101.5 Z"/></g>
<g><path style="opacity:0.037" fill="#292d3a" d="M 1510.5,1101.5 C 1510.39,1102.12 1510.06,1102.62 1509.5,1103C 1374.17,1103.5 1238.83,1103.67 1103.5,1103.5C 1104.17,1242.17 1103.5,1380.5 1101.5,1518.5C 1102.49,1379.85 1102.83,1241.18 1102.5,1102.5C 1238.51,1102.82 1374.51,1102.49 1510.5,1101.5 Z"/></g>
<g><path style="opacity:0.162" fill="#282c39" d="M 946.5,1525.5 C 948.267,1527.79 949.267,1530.46 949.5,1533.5C 947.307,1531.48 946.307,1528.81 946.5,1525.5 Z"/></g>
<g><path style="opacity:0.158" fill="#292c3a" d="M 1100.5,1525.5 C 1100.69,1528.81 1099.69,1531.48 1097.5,1533.5C 1097.73,1530.46 1098.73,1527.79 1100.5,1525.5 Z"/></g>
<g><path style="opacity:0.108" fill="#282a39" d="M 950.5,1536.5 C 952.008,1538.18 953.008,1540.18 953.5,1542.5C 951.461,1541.09 950.461,1539.09 950.5,1536.5 Z"/></g>
<g><path style="opacity:0.108" fill="#282a39" d="M 1096.5,1536.5 C 1096.54,1539.09 1095.54,1541.09 1093.5,1542.5C 1093.99,1540.18 1094.99,1538.18 1096.5,1536.5 Z"/></g>
<g><path style="opacity:0.109" fill="#272d39" d="M 954.5,1544.5 C 955.906,1544.97 956.573,1545.97 956.5,1547.5C 954.952,1547.18 954.285,1546.18 954.5,1544.5 Z"/></g>
<g><path style="opacity:0.109" fill="#272d39" d="M 1092.5,1544.5 C 1092.71,1546.18 1092.05,1547.18 1090.5,1547.5C 1090.43,1545.97 1091.09,1544.97 1092.5,1544.5 Z"/></g>
<g><path style="opacity:0.134" fill="#262e37" d="M 957.5,1549.5 C 959.262,1550.26 960.262,1551.6 960.5,1553.5C 958.738,1552.74 957.738,1551.4 957.5,1549.5 Z"/></g>
<g><path style="opacity:0.182" fill="#282d39" d="M 960.5,1553.5 C 966.894,1559.9 973.561,1565.9 980.5,1571.5C 977.115,1570.64 974.115,1568.97 971.5,1566.5C 968.5,1563.5 965.5,1560.5 962.5,1557.5C 961.37,1556.38 960.703,1555.04 960.5,1553.5 Z"/></g>
<g><path style="opacity:0.178" fill="#282c39" d="M 1089.5,1549.5 C 1087.89,1552.13 1086.22,1554.8 1084.5,1557.5C 1081.5,1560.5 1078.5,1563.5 1075.5,1566.5C 1074.15,1567.95 1072.48,1568.62 1070.5,1568.5C 1077.17,1562.5 1083.5,1556.17 1089.5,1549.5 Z"/></g>
<g><path style="opacity:0.2" fill="#282d39" d="M 1070.5,1568.5 C 1070.31,1570.91 1068.97,1571.91 1066.5,1571.5C 1067.8,1570.51 1069.13,1569.51 1070.5,1568.5 Z"/></g>
<g><path style="opacity:0.14" fill="#282c39" d="M 980.5,1571.5 C 982.853,1572.34 984.853,1573.67 986.5,1575.5C 983.634,1575.37 981.634,1574.03 980.5,1571.5 Z"/></g>
<g><path style="opacity:0.137" fill="#292c39" d="M 1066.5,1571.5 C 1065.37,1574.03 1063.37,1575.37 1060.5,1575.5C 1062.15,1573.67 1064.15,1572.34 1066.5,1571.5 Z"/></g>
<g><path style="opacity:0.116" fill="#282c3a" d="M 986.5,1575.5 C 989.912,1576.04 992.912,1577.38 995.5,1579.5C 991.898,1579.31 988.898,1577.97 986.5,1575.5 Z"/></g>
<g><path style="opacity:0.116" fill="#282c3a" d="M 1060.5,1575.5 C 1058.1,1577.97 1055.1,1579.31 1051.5,1579.5C 1054.09,1577.38 1057.09,1576.04 1060.5,1575.5 Z"/></g>
<g><path style="opacity:0.137" fill="#282d38" d="M 996.5,1579.5 C 999.785,1579.93 1002.78,1580.93 1005.5,1582.5C 1001.84,1582.85 998.841,1581.85 996.5,1579.5 Z"/></g>
<g><path style="opacity:0.129" fill="#282d38" d="M 1050.5,1579.5 C 1048.16,1581.85 1045.16,1582.85 1041.5,1582.5C 1044.22,1580.93 1047.22,1579.93 1050.5,1579.5 Z"/></g>
<g><path style="opacity:0.184" fill="#272d37" d="M 1012.5,1583.5 C 1019.83,1583.5 1027.17,1583.5 1034.5,1583.5C 1034.39,1584.12 1034.06,1584.62 1033.5,1585C 1026.83,1585.67 1020.17,1585.67 1013.5,1585C 1012.94,1584.62 1012.61,1584.12 1012.5,1583.5 Z"/></g>
<g><path style="opacity:0.164" fill="#292d39" d="M 157.5,1656.5 C 159.37,1666.12 160.37,1676.12 160.5,1686.5C 158.198,1676.77 157.198,1666.77 157.5,1656.5 Z"/></g>
<g><path style="opacity:0.152" fill="#292d39" d="M 1889.5,1656.5 C 1889.67,1666.76 1888.67,1676.76 1886.5,1686.5C 1886.63,1676.12 1887.63,1666.12 1889.5,1656.5 Z"/></g>
<g><path style="opacity:0.1" fill="#292d39" d="M -0.5,1668.5 C 0.384574,1677.67 1.05124,1687 1.5,1696.5C 0.833333,1695.5 0.166667,1694.5 -0.5,1693.5C -0.5,1685.17 -0.5,1676.83 -0.5,1668.5 Z"/></g>
<g><path style="opacity:0.12" fill="#292d39" d="M 2047.5,1667.5 C 2047.5,1676.17 2047.5,1684.83 2047.5,1693.5C 2046.83,1694.5 2046.17,1695.5 2045.5,1696.5C 2045.92,1686.67 2046.58,1677 2047.5,1667.5 Z"/></g>
<g><path style="opacity:0.156" fill="#292c39" d="M 161.5,1696.5 C 162.117,1696.61 162.617,1696.94 163,1697.5C 163.497,1699.81 163.663,1702.14 163.5,1704.5C 161.96,1702.16 161.294,1699.5 161.5,1696.5 Z"/></g>
<g><path style="opacity:0.159" fill="#292c39" d="M 1885.5,1696.5 C 1885.28,1700.8 1884.28,1704.8 1882.5,1708.5C 1882.78,1704.81 1883.28,1701.15 1884,1697.5C 1884.38,1696.94 1884.88,1696.61 1885.5,1696.5 Z"/></g>
<g><path style="opacity:0.157" fill="#292c39" d="M 2.5,1709.5 C 3.91301,1712.22 4.57968,1715.22 4.5,1718.5C 3.88258,1718.39 3.38258,1718.06 3,1717.5C 2.50258,1714.85 2.33591,1712.19 2.5,1709.5 Z"/></g>
<g><path style="opacity:0.154" fill="#292c39" d="M 2044.5,1709.5 C 2044.66,1712.19 2044.5,1714.85 2044,1717.5C 2043.62,1718.06 2043.12,1718.39 2042.5,1718.5C 2042.42,1715.22 2043.09,1712.22 2044.5,1709.5 Z"/></g>
<g><path style="opacity:0.165" fill="#292d39" d="M 165.5,1714.5 C 167.256,1715.55 167.923,1717.22 167.5,1719.5C 166.069,1718.22 165.402,1716.55 165.5,1714.5 Z"/></g>
<g><path style="opacity:0.165" fill="#292d39" d="M 1881.5,1714.5 C 1881.6,1716.55 1880.93,1718.22 1879.5,1719.5C 1879.08,1717.22 1879.74,1715.55 1881.5,1714.5 Z"/></g>
<g><path style="opacity:0.179" fill="#282d39" d="M 168.5,1724.5 C 171.19,1727.55 172.524,1731.21 172.5,1735.5C 170.399,1732.2 169.065,1728.54 168.5,1724.5 Z"/></g>
<g><path style="opacity:0.179" fill="#282d39" d="M 1878.5,1724.5 C 1878.13,1728.3 1876.79,1731.63 1874.5,1734.5C 1874.63,1730.57 1875.97,1727.24 1878.5,1724.5 Z"/></g>
<g><path style="opacity:0.159" fill="#282c39" d="M 5.5,1726.5 C 6.94341,1730.62 7.94341,1734.95 8.5,1739.5C 7.27493,1738.85 6.60826,1737.68 6.5,1736C 5.89255,1732.86 5.55922,1729.69 5.5,1726.5 Z"/></g>
<g><path style="opacity:0.159" fill="#282c39" d="M 2041.5,1726.5 C 2041.44,1729.69 2041.11,1732.86 2040.5,1736C 2040.39,1737.68 2039.73,1738.85 2038.5,1739.5C 2039.06,1734.95 2040.06,1730.62 2041.5,1726.5 Z"/></g>
<g><path style="opacity:0.184" fill="#2a2c3a" d="M 172.5,1735.5 C 174.821,1737.09 175.821,1739.42 175.5,1742.5C 173.552,1740.68 172.552,1738.35 172.5,1735.5 Z"/></g>
<g><path style="opacity:0.184" fill="#292c3a" d="M 1874.5,1735.5 C 1874.24,1738.27 1873.24,1740.61 1871.5,1742.5C 1871.18,1739.42 1872.18,1737.09 1874.5,1735.5 Z"/></g>
<g><path style="opacity:0.198" fill="#292a39" d="M 9.5,1745.5 C 11.2766,1748.5 12.2766,1751.84 12.5,1755.5C 11.3509,1755.21 10.6842,1754.38 10.5,1753C 9.84054,1750.54 9.5072,1748.04 9.5,1745.5 Z"/></g>
<g><path style="opacity:0.197" fill="#292b39" d="M 2037.5,1745.5 C 2037.49,1748.04 2037.16,1750.54 2036.5,1753C 2036.32,1754.38 2035.65,1755.21 2034.5,1755.5C 2034.72,1751.84 2035.72,1748.5 2037.5,1745.5 Z"/></g>
<g><path style="opacity:0.146" fill="#282d39" d="M 176.5,1745.5 C 178.448,1747.32 179.448,1749.65 179.5,1752.5C 177.707,1750.57 176.707,1748.24 176.5,1745.5 Z"/></g>
<g><path style="opacity:0.146" fill="#282d39" d="M 1870.5,1745.5 C 1870.29,1748.24 1869.29,1750.57 1867.5,1752.5C 1867.55,1749.65 1868.55,1747.32 1870.5,1745.5 Z"/></g>
<g><path style="opacity:0.158" fill="#282c38" d="M 180.5,1754.5 C 182.614,1755.78 183.614,1757.78 183.5,1760.5C 181.461,1759.09 180.461,1757.09 180.5,1754.5 Z"/></g>
<g><path style="opacity:0.158" fill="#282c38" d="M 1866.5,1754.5 C 1866.54,1757.09 1865.54,1759.09 1863.5,1760.5C 1863.39,1757.78 1864.39,1755.78 1866.5,1754.5 Z"/></g>
<g><path style="opacity:0.195" fill="#282d38" d="M 13.5,1760.5 C 15.0719,1763.22 16.0719,1766.22 16.5,1769.5C 14.1494,1767.16 13.1494,1764.16 13.5,1760.5 Z"/></g>
<g><path style="opacity:0.192" fill="#282d38" d="M 2033.5,1760.5 C 2033.85,1764.16 2032.85,1767.16 2030.5,1769.5C 2030.93,1766.22 2031.93,1763.22 2033.5,1760.5 Z"/></g>
<g><path style="opacity:0.122" fill="#292c38" d="M 1862.5,1762.5 C 1861.17,1767.17 1858.84,1771.17 1855.5,1774.5C 1857.36,1770.1 1859.69,1766.1 1862.5,1762.5 Z"/></g>
<g><path style="opacity:0.122" fill="#272b37" d="M 184.5,1762.5 C 187.308,1766.1 189.641,1770.1 191.5,1774.5C 188.161,1771.17 185.828,1767.17 184.5,1762.5 Z"/></g>
<g><path style="opacity:0.135" fill="#273034" d="M 191.5,1775.5 C 193.822,1776.8 195.155,1778.8 195.5,1781.5C 193.674,1779.85 192.34,1777.85 191.5,1775.5 Z"/></g>
<g><path style="opacity:0.135" fill="#273133" d="M 1854.5,1776.5 C 1854.25,1778.67 1853.25,1780.34 1851.5,1781.5C 1851.75,1779.33 1852.75,1777.66 1854.5,1776.5 Z"/></g>
<g><path style="opacity:0.119" fill="#282a39" d="M 17.5,1774.5 C 19.2671,1776.79 20.2671,1779.46 20.5,1782.5C 18.3072,1780.48 17.3072,1777.81 17.5,1774.5 Z"/></g>
<g><path style="opacity:0.119" fill="#282a39" d="M 2029.5,1774.5 C 2029.69,1777.81 2028.69,1780.48 2026.5,1782.5C 2026.73,1779.46 2027.73,1776.79 2029.5,1774.5 Z"/></g>
<g><path style="opacity:0.302" fill="#272d38" d="M 195.5,1781.5 C 197.822,1782.8 199.155,1784.8 199.5,1787.5C 197.674,1785.85 196.34,1783.85 195.5,1781.5 Z"/></g>
<g><path style="opacity:0.302" fill="#272d38" d="M 1851.5,1781.5 C 1850.66,1783.85 1849.33,1785.85 1847.5,1787.5C 1847.84,1784.8 1849.18,1782.8 1851.5,1781.5 Z"/></g>
<g><path style="opacity:0.196" fill="#253031" d="M 199.5,1787.5 C 201.262,1788.26 202.262,1789.6 202.5,1791.5C 200.738,1790.74 199.738,1789.4 199.5,1787.5 Z"/></g>
<g><path style="opacity:0.133" fill="#282938" d="M 1847.5,1787.5 C 1847.26,1789.4 1846.26,1790.74 1844.5,1791.5C 1844.47,1789.38 1845.47,1788.05 1847.5,1787.5 Z"/></g>
<g><path style="opacity:0.163" fill="#292c39" d="M 21.5,1786.5 C 23.2927,1788.43 24.2927,1790.76 24.5,1793.5C 22.4642,1791.79 21.4642,1789.46 21.5,1786.5 Z"/></g>
<g><path style="opacity:0.163" fill="#282c39" d="M 2025.5,1786.5 C 2025.54,1789.46 2024.54,1791.79 2022.5,1793.5C 2022.71,1790.76 2023.71,1788.43 2025.5,1786.5 Z"/></g>
<g><path style="opacity:0.228" fill="#282d38" d="M 1844.5,1791.5 C 1842.26,1796.07 1839.26,1800.07 1835.5,1803.5C 1835.71,1802.08 1836.21,1800.74 1837,1799.5C 1839.28,1796.57 1841.78,1793.9 1844.5,1791.5 Z"/></g>
<g><path style="opacity:0.128" fill="#292c39" d="M 25.5,1796.5 C 27.0652,1798.51 28.0652,1800.84 28.5,1803.5C 26.179,1801.91 25.179,1799.58 25.5,1796.5 Z"/></g>
<g><path style="opacity:0.043" fill="#282b38" d="M 2021.5,1796.5 C 2021.82,1799.58 2020.82,1801.91 2018.5,1803.5C 2018.93,1800.84 2019.93,1798.51 2021.5,1796.5 Z"/></g>
<g><path style="opacity:0.175" fill="#272c37" d="M 202.5,1791.5 C 205.215,1793.9 207.715,1796.57 210,1799.5C 210.791,1800.74 211.291,1802.08 211.5,1803.5C 207.738,1800.07 204.738,1796.07 202.5,1791.5 Z"/></g>
<g><path style="opacity:0.242" fill="#282c39" d="M 211.5,1803.5 C 213.997,1804.13 215.33,1805.8 215.5,1808.5C 213.413,1807.42 212.08,1805.75 211.5,1803.5 Z"/></g>
<g><path style="opacity:0.242" fill="#292c38" d="M 1835.5,1803.5 C 1834.88,1805.75 1833.54,1807.42 1831.5,1808.5C 1831.67,1805.8 1833,1804.13 1835.5,1803.5 Z"/></g>
<g><path style="opacity:0.031" fill="#23302f" d="M 215.5,1808.5 C 217.833,1808.83 219.167,1810.17 219.5,1812.5C 217.833,1811.5 216.5,1810.17 215.5,1808.5 Z"/></g>
<g><path style="opacity:0.173" fill="#253032" d="M 1831.5,1808.5 C 1830.5,1810.17 1829.17,1811.5 1827.5,1812.5C 1827.83,1810.17 1829.17,1808.83 1831.5,1808.5 Z"/></g>
<g><path style="opacity:0.167" fill="#272b37" d="M 29.5,1806.5 C 31.2927,1808.43 32.2927,1810.76 32.5,1813.5C 30.1663,1811.82 29.1663,1809.49 29.5,1806.5 Z"/></g>
<g><path style="opacity:0.18" fill="#272a37" d="M 2017.5,1806.5 C 2017.83,1809.49 2016.83,1811.82 2014.5,1813.5C 2014.71,1810.76 2015.71,1808.43 2017.5,1806.5 Z"/></g>
<g><path style="opacity:0.204" fill="#292d39" d="M 219.5,1812.5 C 224.119,1816.95 228.952,1821.28 234,1825.5C 234.464,1826.09 234.631,1826.76 234.5,1827.5C 228.479,1823.48 223.479,1818.48 219.5,1812.5 Z"/></g>
<g><path style="opacity:0.215" fill="#292c39" d="M 1827.5,1812.5 C 1823.5,1818.5 1818.5,1823.5 1812.5,1827.5C 1816.8,1822.67 1821.13,1817.84 1825.5,1813C 1826.09,1812.54 1826.76,1812.37 1827.5,1812.5 Z"/></g>
<g><path style="opacity:0.125" fill="#282c38" d="M 2014.5,1813.5 C 2014.61,1816.22 2013.61,1818.22 2011.5,1819.5C 2011.99,1817.18 2012.99,1815.18 2014.5,1813.5 Z"/></g>
<g><path style="opacity:0.092" fill="#282b38" d="M 33.5,1815.5 C 35.1042,1816.29 35.7709,1817.62 35.5,1819.5C 33.8235,1818.82 33.1568,1817.48 33.5,1815.5 Z"/></g>
<g><path style="opacity:0.075" fill="#242f33" d="M 2009.5,1824.5 C 2009.35,1826.97 2008.35,1828.97 2006.5,1830.5C 2006.46,1827.91 2007.46,1825.91 2009.5,1824.5 Z"/></g>
<g><path style="opacity:0.324" fill="#262e36" d="M 36.5,1822.5 C 38.873,1824.58 40.2064,1827.25 40.5,1830.5C 38.2295,1828.39 36.8961,1825.72 36.5,1822.5 Z"/></g>
<g><path style="opacity:0.173" fill="#242f32" d="M 1812.5,1827.5 C 1811.5,1829.17 1810.17,1830.5 1808.5,1831.5C 1808.83,1829.17 1810.17,1827.83 1812.5,1827.5 Z"/></g>
<g><path style="opacity:0.242" fill="#292b38" d="M 1808.5,1831.5 C 1807.74,1833.26 1806.4,1834.26 1804.5,1834.5C 1804.69,1832.09 1806.03,1831.09 1808.5,1831.5 Z"/></g>
<g><path style="opacity:0.08" fill="#243030" d="M 2005.5,1832.5 C 2005.77,1834.38 2005.1,1835.71 2003.5,1836.5C 2003.23,1834.62 2003.9,1833.29 2005.5,1832.5 Z"/></g>
<g><path style="opacity:0.294" fill="#262d36" d="M 40.5,1830.5 C 42.588,1832.34 43.9213,1834.67 44.5,1837.5C 41.8881,1835.95 40.5548,1833.61 40.5,1830.5 Z"/></g>
<g><path style="opacity:0.13" fill="#282d3a" d="M 2002.5,1838.5 C 2002.41,1840.85 2001.41,1842.51 1999.5,1843.5C 1999.75,1841.33 2000.75,1839.66 2002.5,1838.5 Z"/></g>
<g><path style="opacity:0.098" fill="#282c38" d="M 44.5,1838.5 C 46.2503,1839.66 47.2503,1841.33 47.5,1843.5C 45.5923,1842.51 44.5923,1840.85 44.5,1838.5 Z"/></g>
<g><path style="opacity:0.152" fill="#282b39" d="M 234.5,1827.5 C 235.583,1827.54 236.583,1827.87 237.5,1828.5C 246.506,1836.66 255.84,1844.32 265.5,1851.5C 253.994,1844.99 243.661,1836.99 234.5,1827.5 Z"/></g>
<g><path style="opacity:0.15" fill="#282c38" d="M 1804.5,1834.5 C 1797.68,1841.32 1790.02,1846.98 1781.5,1851.5C 1781.8,1850.85 1782.14,1850.18 1782.5,1849.5C 1789.86,1844.46 1797.2,1839.46 1804.5,1834.5 Z"/></g>
<g><path style="opacity:0.071" fill="#282a38" d="M 1998.5,1845.5 C 1998.74,1848.03 1997.74,1849.7 1995.5,1850.5C 1995.75,1848.33 1996.75,1846.66 1998.5,1845.5 Z"/></g>
<g><path style="opacity:0.089" fill="#282e39" d="M 48.5,1845.5 C 50.2503,1846.66 51.2503,1848.33 51.5,1850.5C 49.5923,1849.51 48.5923,1847.85 48.5,1845.5 Z"/></g>
<g><path style="opacity:0.136" fill="#282d38" d="M 265.5,1851.5 C 268.034,1851.26 269.7,1852.26 270.5,1854.5C 268.566,1853.89 266.899,1852.89 265.5,1851.5 Z"/></g>
<g><path style="opacity:0.169" fill="#272d35" d="M 1781.5,1851.5 C 1780.34,1853.25 1778.67,1854.25 1776.5,1854.5C 1777.4,1852.27 1779.07,1851.27 1781.5,1851.5 Z"/></g>
<g><path style="opacity:0.207" fill="#262d37" d="M 52.5,1852.5 C 54.2503,1853.66 55.2503,1855.33 55.5,1857.5C 53.2591,1856.7 52.2591,1855.03 52.5,1852.5 Z"/></g>
<g><path style="opacity:0.211" fill="#282b39" d="M 1994.5,1852.5 C 1994.74,1855.03 1993.74,1856.7 1991.5,1857.5C 1991.75,1855.33 1992.75,1853.66 1994.5,1852.5 Z"/></g>
<g><path style="opacity:0.175" fill="#282c39" d="M 55.5,1857.5 C 57.3264,1859.15 58.6597,1861.15 59.5,1863.5C 57.2036,1862.27 55.8702,1860.27 55.5,1857.5 Z"/></g>
<g><path style="opacity:0.103" fill="#282d3a" d="M 272.5,1855.5 C 276.899,1857.36 280.899,1859.69 284.5,1862.5C 279.835,1861.17 275.835,1858.84 272.5,1855.5 Z"/></g>
<g><path style="opacity:0.061" fill="#282c38" d="M 1774.5,1855.5 C 1771.17,1858.84 1767.17,1861.17 1762.5,1862.5C 1766.1,1859.69 1770.1,1857.36 1774.5,1855.5 Z"/></g>
<g><path style="opacity:0.051" fill="#272e38" d="M 284.5,1862.5 C 287.827,1862.83 290.493,1864.16 292.5,1866.5C 289.515,1865.67 286.849,1864.34 284.5,1862.5 Z"/></g>
<g><path style="opacity:0.106" fill="#242c31" d="M 1990.5,1859.5 C 1988.91,1863.68 1986.58,1867.35 1983.5,1870.5C 1985.09,1866.32 1987.42,1862.65 1990.5,1859.5 Z"/></g>
<g><path style="opacity:0.035" fill="#272b38" d="M 1762.5,1862.5 C 1760.42,1864.87 1757.75,1866.21 1754.5,1866.5C 1756.51,1864.16 1759.17,1862.83 1762.5,1862.5 Z"/></g>
<g><path style="opacity:0.165" fill="#282938" d="M 295.5,1867.5 C 298.089,1867.46 300.089,1868.46 301.5,1870.5C 298.911,1870.54 296.911,1869.54 295.5,1867.5 Z"/></g>
<g><path style="opacity:0.349" fill="#272d36" d="M 1754.5,1866.5 C 1751.91,1868.62 1748.91,1869.96 1745.5,1870.5C 1747.9,1868.03 1750.9,1866.69 1754.5,1866.5 Z"/></g>
<g><path style="opacity:0.17" fill="#282b38" d="M 59.5,1863.5 C 62.9157,1867.32 65.5824,1871.66 67.5,1876.5C 64.7774,1873.41 62.2774,1870.08 60,1866.5C 59.5172,1865.55 59.3505,1864.55 59.5,1863.5 Z"/></g>
<g><path style="opacity:0.17" fill="#282a39" d="M 1983.5,1870.5 C 1983.16,1873.2 1981.82,1875.2 1979.5,1876.5C 1979.84,1873.8 1981.18,1871.8 1983.5,1870.5 Z"/></g>
<g><path style="opacity:0.127" fill="#282c39" d="M 1742.5,1871.5 C 1740.3,1873.4 1737.64,1874.4 1734.5,1874.5C 1736.62,1872.35 1739.28,1871.35 1742.5,1871.5 Z"/></g>
<g><path style="opacity:0.149" fill="#292c39" d="M 304.5,1871.5 C 306.927,1871.52 309.26,1872.02 311.5,1873C 314.503,1874.21 317.17,1875.71 319.5,1877.5C 314.072,1876.25 309.072,1874.25 304.5,1871.5 Z"/></g>
<g><path style="opacity:0.149" fill="#292d3a" d="M 1734.5,1874.5 C 1732.57,1876.29 1730.24,1877.29 1727.5,1877.5C 1729.21,1875.46 1731.54,1874.46 1734.5,1874.5 Z"/></g>
<g><path style="opacity:0.183" fill="#272d36" d="M 67.5,1876.5 C 70.9331,1879.6 73.5998,1883.27 75.5,1887.5C 72.0669,1884.4 69.4002,1880.73 67.5,1876.5 Z"/></g>
<g><path style="opacity:0.016" fill="#2a2a39" d="M 323.5,1878.5 C 321.901,1878.77 320.568,1878.43 319.5,1877.5C 321.001,1876.56 322.335,1876.89 323.5,1878.5 Z"/></g>
<g><path style="opacity:0.094" fill="#2a2b3a" d="M 1727.5,1877.5 C 1726.43,1878.43 1725.1,1878.77 1723.5,1878.5C 1724.67,1876.89 1726,1876.56 1727.5,1877.5 Z"/></g>
<g><path style="opacity:0.02" fill="#272c36" d="M 1979.5,1876.5 C 1978.99,1879.67 1977.32,1882.01 1974.5,1883.5C 1975.43,1880.63 1977.1,1878.3 1979.5,1876.5 Z"/></g>
<g><path style="opacity:0.137" fill="#292d39" d="M 327.5,1879.5 C 329.781,1879.08 331.448,1879.74 332.5,1881.5C 330.447,1881.6 328.78,1880.93 327.5,1879.5 Z"/></g>
<g><path style="opacity:0.137" fill="#292d39" d="M 1719.5,1879.5 C 1718.22,1880.93 1716.55,1881.6 1714.5,1881.5C 1715.55,1879.74 1717.22,1879.08 1719.5,1879.5 Z"/></g>
<g><path style="opacity:0.144" fill="#292c39" d="M 338.5,1882.5 C 341.35,1882.64 344.183,1882.97 347,1883.5C 348.681,1883.61 349.848,1884.27 350.5,1885.5C 346.2,1885.28 342.2,1884.28 338.5,1882.5 Z"/></g>
<g><path style="opacity:0.144" fill="#292c39" d="M 1708.5,1882.5 C 1704.8,1884.28 1700.8,1885.28 1696.5,1885.5C 1697.15,1884.27 1698.32,1883.61 1700,1883.5C 1702.82,1882.97 1705.65,1882.64 1708.5,1882.5 Z"/></g>
<g><path style="opacity:0.004" fill="#272536" d="M 1974.5,1883.5 C 1974.53,1885.62 1973.53,1886.95 1971.5,1887.5C 1971.74,1885.6 1972.74,1884.26 1974.5,1883.5 Z"/></g>
<g><path style="opacity:0.15" fill="#282b39" d="M 75.5,1887.5 C 77.2624,1888.26 78.2624,1889.6 78.5,1891.5C 76.5544,1890.97 75.5544,1889.63 75.5,1887.5 Z"/></g>
<g><path style="opacity:0.13" fill="#282d39" d="M 360.5,1886.5 C 370.88,1886.63 380.88,1887.63 390.5,1889.5C 380.239,1889.67 370.239,1888.67 360.5,1886.5 Z"/></g>
<g><path style="opacity:0.13" fill="#282d39" d="M 1686.5,1886.5 C 1676.76,1888.67 1666.76,1889.67 1656.5,1889.5C 1666.12,1887.63 1676.12,1886.63 1686.5,1886.5 Z"/></g>
<g><path style="opacity:0.193" fill="#282c39" d="M 1971.5,1887.5 C 1970.25,1891.41 1967.92,1894.41 1964.5,1896.5C 1966.46,1893.21 1968.79,1890.21 1971.5,1887.5 Z"/></g>
<g><path style="opacity:0.184" fill="#272b39" d="M 78.5,1891.5 C 81.5398,1894.54 84.2065,1897.87 86.5,1901.5C 82.7549,1899.08 80.0882,1895.75 78.5,1891.5 Z"/></g>
<g><path style="opacity:0.204" fill="#292c39" d="M 1964.5,1896.5 C 1963.86,1898.79 1962.53,1900.46 1960.5,1901.5C 1961.08,1899.25 1962.41,1897.58 1964.5,1896.5 Z"/></g>
<g><path style="opacity:0.197" fill="#282b38" d="M 1960.5,1901.5 C 1960.33,1904.2 1959,1905.87 1956.5,1906.5C 1957.08,1904.25 1958.41,1902.58 1960.5,1901.5 Z"/></g>
<g><path style="opacity:0.165" fill="#292c39" d="M 87.5,1902.5 C 93.8268,1909.83 100.16,1917.16 106.5,1924.5C 98.6121,1918.3 92.2788,1910.96 87.5,1902.5 Z"/></g>
<g><path style="opacity:0.165" fill="#272d37" d="M 1956.5,1906.5 C 1952.19,1913.47 1946.86,1919.47 1940.5,1924.5C 1945.49,1918.18 1950.82,1912.18 1956.5,1906.5 Z"/></g>
<g><path style="opacity:0.058" fill="#252e35" d="M 107.5,1925.5 C 108.833,1925.5 109.5,1926.17 109.5,1927.5C 108.167,1927.5 107.5,1926.83 107.5,1925.5 Z"/></g>
<g><path style="opacity:0.058" fill="#252e35" d="M 1939.5,1925.5 C 1939.5,1926.83 1938.83,1927.5 1937.5,1927.5C 1937.5,1926.17 1938.17,1925.5 1939.5,1925.5 Z"/></g>
<g><path style="opacity:0.014" fill="#2b2a39" d="M 110.5,1928.5 C 113.833,1931.17 116.833,1934.17 119.5,1937.5C 118.417,1937.46 117.417,1937.13 116.5,1936.5C 115.167,1934.5 113.5,1932.83 111.5,1931.5C 110.873,1930.58 110.539,1929.58 110.5,1928.5 Z"/></g>
<g><path style="opacity:0.014" fill="#2b2a39" d="M 1937.5,1927.5 C 1937.3,1929.04 1936.63,1930.38 1935.5,1931.5C 1933.5,1932.83 1931.83,1934.5 1930.5,1936.5C 1929.58,1937.13 1928.58,1937.46 1927.5,1937.5C 1930.5,1933.83 1933.83,1930.5 1937.5,1927.5 Z"/></g>
<g><path style="opacity:0.058" fill="#252e35" d="M 119.5,1937.5 C 120.833,1937.5 121.5,1938.17 121.5,1939.5C 120.167,1939.5 119.5,1938.83 119.5,1937.5 Z"/></g>
<g><path style="opacity:0.058" fill="#252e35" d="M 1927.5,1937.5 C 1927.5,1938.83 1926.83,1939.5 1925.5,1939.5C 1925.5,1938.17 1926.17,1937.5 1927.5,1937.5 Z"/></g>
<g><path style="opacity:0.012" fill="#20302f" d="M 122.5,1940.5 C 124.19,1940.86 125.19,1941.86 125.5,1943.5C 123.5,1943.5 122.5,1942.5 122.5,1940.5 Z"/></g>
<g><path style="opacity:0.17" fill="#272d37" d="M 1924.5,1940.5 C 1919.49,1946.83 1913.49,1952.17 1906.5,1956.5C 1912.18,1950.82 1918.18,1945.49 1924.5,1940.5 Z"/></g>
<g><path style="opacity:0.143" fill="#292c39" d="M 126.5,1944.5 C 131.467,1948.13 136.133,1952.13 140.5,1956.5C 134.919,1953.59 130.253,1949.59 126.5,1944.5 Z"/></g>
<g><path style="opacity:0.237" fill="#292c39" d="M 140.5,1956.5 C 142.749,1957.08 144.415,1958.41 145.5,1960.5C 142.656,1960.66 140.989,1959.32 140.5,1956.5 Z"/></g>
<g><path style="opacity:0.229" fill="#282a38" d="M 1906.5,1956.5 C 1906.01,1959.32 1904.34,1960.66 1901.5,1960.5C 1902.58,1958.41 1904.25,1957.08 1906.5,1956.5 Z"/></g>
<g><path style="opacity:0.208" fill="#282d39" d="M 145.5,1960.5 C 147.749,1961.08 149.415,1962.41 150.5,1964.5C 147.796,1964.33 146.129,1963 145.5,1960.5 Z"/></g>
<g><path style="opacity:0.203" fill="#292c39" d="M 1901.5,1960.5 C 1900.87,1963 1899.2,1964.33 1896.5,1964.5C 1897.58,1962.41 1899.25,1961.08 1901.5,1960.5 Z"/></g>
<g><path style="opacity:0.201" fill="#282c38" d="M 150.5,1964.5 C 158.119,1969.45 165.452,1974.79 172.5,1980.5C 168.451,1979.31 164.784,1977.31 161.5,1974.5C 157.143,1971.8 153.476,1968.47 150.5,1964.5 Z"/></g>
<g><path style="opacity:0.175" fill="#282c38" d="M 1896.5,1964.5 C 1893.52,1968.47 1889.86,1971.8 1885.5,1974.5C 1882.22,1977.31 1878.55,1979.31 1874.5,1980.5C 1881.55,1974.79 1888.88,1969.45 1896.5,1964.5 Z"/></g>
<g><path style="opacity:0.176" fill="#282a39" d="M 172.5,1980.5 C 174.404,1980.74 175.738,1981.74 176.5,1983.5C 174.027,1983.91 172.694,1982.91 172.5,1980.5 Z"/></g>
<g><path style="opacity:0.176" fill="#282a39" d="M 1874.5,1980.5 C 1874.31,1982.91 1872.97,1983.91 1870.5,1983.5C 1871.26,1981.74 1872.6,1980.74 1874.5,1980.5 Z"/></g>
<g><path style="opacity:0.24" fill="#272d36" d="M 1870.5,1983.5 C 1867.3,1986.6 1863.64,1988.93 1859.5,1990.5C 1862.65,1987.42 1866.32,1985.09 1870.5,1983.5 Z"/></g>
<g><path style="opacity:0.008" fill="#262d36" d="M 176.5,1983.5 C 180.683,1985.09 184.35,1987.42 187.5,1990.5C 183.338,1988.92 179.672,1986.59 176.5,1983.5 Z"/></g>
<g><path style="opacity:0.172" fill="#282b39" d="M 187.5,1990.5 C 190.992,1991.41 193.992,1993.08 196.5,1995.5C 192.728,1995.12 189.728,1993.45 187.5,1990.5 Z"/></g>
<g><path style="opacity:0.141" fill="#282b39" d="M 1859.5,1990.5 C 1857.27,1993.45 1854.27,1995.12 1850.5,1995.5C 1853.01,1993.08 1856.01,1991.41 1859.5,1990.5 Z"/></g>
<g><path style="opacity:0.071" fill="#282b37" d="M 1850.5,1995.5 C 1849.02,1998.08 1846.68,1999.42 1843.5,1999.5C 1845.34,1997.41 1847.67,1996.08 1850.5,1995.5 Z"/></g>
<g><path style="opacity:0.055" fill="#282b37" d="M 196.5,1995.5 C 199.004,1996.58 201.337,1997.92 203.5,1999.5C 200.318,1999.42 197.985,1998.08 196.5,1995.5 Z"/></g>
<g><path style="opacity:0.132" fill="#282d3a" d="M 1843.5,1999.5 C 1842.51,2001.41 1840.85,2002.41 1838.5,2002.5C 1839.66,2000.75 1841.33,1999.75 1843.5,1999.5 Z"/></g>
<g><path style="opacity:0.11" fill="#252f32" d="M 203.5,1999.5 C 205.674,1999.75 207.341,2000.75 208.5,2002.5C 205.966,2002.74 204.3,2001.74 203.5,1999.5 Z"/></g>
<g><path style="opacity:0.237" fill="#262e35" d="M 210.5,2003.5 C 212.38,2003.23 213.713,2003.9 214.5,2005.5C 212.62,2005.77 211.287,2005.1 210.5,2003.5 Z"/></g>
<g><path style="opacity:0.08" fill="#242f33" d="M 1836.5,2003.5 C 1835.71,2005.1 1834.38,2005.77 1832.5,2005.5C 1833.29,2003.9 1834.62,2003.23 1836.5,2003.5 Z"/></g>
<g><path style="opacity:0.075" fill="#252f34" d="M 216.5,2006.5 C 219.089,2006.46 221.089,2007.46 222.5,2009.5C 220.03,2009.35 218.03,2008.35 216.5,2006.5 Z"/></g>
<g><path style="opacity:0.075" fill="#252f34" d="M 1830.5,2006.5 C 1828.97,2008.35 1826.97,2009.35 1824.5,2009.5C 1825.91,2007.46 1827.91,2006.46 1830.5,2006.5 Z"/></g>
<g><path style="opacity:0.115" fill="#282c39" d="M 227.5,2011.5 C 229.819,2011.99 231.819,2012.99 233.5,2014.5C 230.784,2014.61 228.784,2013.61 227.5,2011.5 Z"/></g>
<g><path style="opacity:0.104" fill="#282c38" d="M 1819.5,2011.5 C 1818.22,2013.61 1816.22,2014.61 1813.5,2014.5C 1815.18,2012.99 1817.18,2011.99 1819.5,2011.5 Z"/></g>
<g><path style="opacity:0.14" fill="#272c38" d="M 233.5,2014.5 C 236.912,2015.04 239.912,2016.38 242.5,2018.5C 238.898,2018.31 235.898,2016.97 233.5,2014.5 Z"/></g>
<g><path style="opacity:0.161" fill="#282c38" d="M 1813.5,2014.5 C 1810.5,2016.79 1807.17,2018.62 1803.5,2020C 1801.26,2020.98 1798.93,2021.48 1796.5,2021.5C 1801.86,2018.6 1807.53,2016.26 1813.5,2014.5 Z"/></g>
<g><path style="opacity:0.133" fill="#282b38" d="M 242.5,2018.5 C 246.537,2019.07 250.203,2020.4 253.5,2022.5C 249.292,2022.32 245.626,2020.99 242.5,2018.5 Z"/></g>
<g><path style="opacity:0.136" fill="#282d39" d="M 253.5,2022.5 C 256.241,2022.71 258.574,2023.71 260.5,2025.5C 257.539,2025.54 255.206,2024.54 253.5,2022.5 Z"/></g>
<g><path style="opacity:0.031" fill="#272c38" d="M 1793.5,2022.5 C 1791.79,2024.54 1789.46,2025.54 1786.5,2025.5C 1788.43,2023.71 1790.76,2022.71 1793.5,2022.5 Z"/></g>
<g><path style="opacity:0.118" fill="#282b39" d="M 264.5,2026.5 C 267.542,2026.73 270.208,2027.73 272.5,2029.5C 269.189,2029.69 266.522,2028.69 264.5,2026.5 Z"/></g>
<g><path style="opacity:0.043" fill="#282a39" d="M 1782.5,2026.5 C 1780.48,2028.69 1777.81,2029.69 1774.5,2029.5C 1776.79,2027.73 1779.46,2026.73 1782.5,2026.5 Z"/></g>
<g><path style="opacity:0.165" fill="#292c39" d="M 276.5,2030.5 C 279.916,2030.53 282.916,2031.53 285.5,2033.5C 283.304,2033.41 281.137,2033.08 279,2032.5C 277.624,2032.32 276.791,2031.65 276.5,2030.5 Z"/></g>
<g><path style="opacity:0.192" fill="#282d38" d="M 1770.5,2030.5 C 1767.68,2032.71 1764.35,2033.71 1760.5,2033.5C 1763.5,2031.72 1766.84,2030.72 1770.5,2030.5 Z"/></g>
<g><path style="opacity:0.186" fill="#282d39" d="M 290.5,2034.5 C 294.427,2034.93 298.093,2035.93 301.5,2037.5C 298.126,2037.33 294.793,2036.83 291.5,2036C 290.944,2035.62 290.611,2035.12 290.5,2034.5 Z"/></g>
<g><path style="opacity:0.197" fill="#292b39" d="M 1756.5,2034.5 C 1756.39,2035.12 1756.06,2035.62 1755.5,2036C 1752.21,2036.83 1748.87,2037.33 1745.5,2037.5C 1748.8,2035.52 1752.47,2034.52 1756.5,2034.5 Z"/></g>
<g><path style="opacity:0.176" fill="#282c39" d="M 307.5,2038.5 C 311.702,2039.13 315.702,2040.13 319.5,2041.5C 316.468,2041.49 313.468,2041.16 310.5,2040.5C 308.97,2040.36 307.97,2039.69 307.5,2038.5 Z"/></g>
<g><path style="opacity:0.159" fill="#282c39" d="M 1739.5,2038.5 C 1738.85,2039.73 1737.68,2040.39 1736,2040.5C 1732.86,2041.11 1729.69,2041.44 1726.5,2041.5C 1730.62,2040.06 1734.95,2039.06 1739.5,2038.5 Z"/></g>
<g><path style="opacity:0.153" fill="#282b38" d="M 1718.5,2042.5 C 1717.67,2043.75 1716.33,2044.41 1714.5,2044.5C 1709.53,2045.26 1704.53,2045.59 1699.5,2045.5C 1705.71,2044.57 1712.05,2043.57 1718.5,2042.5 Z"/></g>
<g><path style="opacity:0.191" fill="#282c39" d="M 328.5,2042.5 C 334.315,2043.4 339.982,2044.4 345.5,2045.5C 341.141,2045.53 336.808,2045.2 332.5,2044.5C 330.667,2044.41 329.334,2043.75 328.5,2042.5 Z"/></g>
<g><path style="opacity:0.092" fill="#282c39" d="M 347.5,2045.5 C 356.338,2045.88 365.005,2046.54 373.5,2047.5C 366.167,2047.5 358.833,2047.5 351.5,2047.5C 350.167,2046.83 348.833,2046.17 347.5,2045.5 Z"/></g>
<g><path style="opacity:0.129" fill="#282e37" d="M 1697.5,2045.5 C 1696.17,2046.17 1694.83,2046.83 1693.5,2047.5C 1690.83,2047.5 1688.17,2047.5 1685.5,2047.5C 1685.5,2047.17 1685.5,2046.83 1685.5,2046.5C 1689.45,2045.73 1693.45,2045.39 1697.5,2045.5 Z"/></g>
</svg>
