<?xml version="1.0" encoding="UTF-8"?>
<!DOCTYPE svg PUBLIC "-//W3C//DTD SVG 1.1//EN" "http://www.w3.org/Graphics/SVG/1.1/DTD/svg11.dtd">
<svg xmlns="http://www.w3.org/2000/svg" version="1.1" width="512px" height="512px" style="shape-rendering:geometricPrecision; text-rendering:geometricPrecision; image-rendering:optimizeQuality; fill-rule:evenodd; clip-rule:evenodd" xmlns:xlink="http://www.w3.org/1999/xlink">
<g><path style="opacity:0.982" fill="#000000" d="M 511.5,297.5 C 511.5,340.833 511.5,384.167 511.5,427.5C 505.087,451.412 489.754,465.912 465.5,471C 449.17,471.5 432.837,471.667 416.5,471.5C 416.667,397.499 416.5,323.499 416,249.5C 410.513,190.981 382.68,146.815 332.5,117C 275.284,88.7257 219.617,91.3924 165.5,125C 123.833,155.144 100.333,195.977 95,247.5C 94.5,322.166 94.3333,396.833 94.5,471.5C 78.1633,471.667 61.8299,471.5 45.5,471C 21.2404,465.906 5.90702,451.406 -0.5,427.5C -0.5,384.167 -0.5,340.833 -0.5,297.5C 4.67773,277.485 16.8444,263.485 36,255.5C 42.0662,164.122 85.8996,98.2887 167.5,58C 233.561,30.8958 298.228,33.8958 361.5,67C 431.898,109.832 469.732,172.666 475,255.5C 494.156,263.485 506.322,277.485 511.5,297.5 Z"/></g>
<g><path style="opacity:0.965" fill="#000000" d="M 124.5,257.5 C 136.576,255.614 144.742,260.281 149,271.5C 149.667,333.167 149.667,394.833 149,456.5C 144.632,468.738 136.132,473.238 123.5,470C 116.618,467.093 112.452,461.926 111,454.5C 110.333,394.167 110.333,333.833 111,273.5C 112.849,265.826 117.349,260.492 124.5,257.5 Z"/></g>
<g><path style="opacity:0.965" fill="#000000" d="M 374.5,257.5 C 387.97,255.142 396.47,260.476 400,273.5C 400.667,333.833 400.667,394.167 400,454.5C 397.858,464.753 391.525,470.42 381,471.5C 371.232,470.79 364.899,465.79 362,456.5C 361.333,394.833 361.333,333.167 362,271.5C 363.926,264.745 368.093,260.078 374.5,257.5 Z"/></g>
</svg>
