<?xml version="1.0" encoding="UTF-8"?>
<!DOCTYPE svg PUBLIC "-//W3C//DTD SVG 1.1//EN" "http://www.w3.org/Graphics/SVG/1.1/DTD/svg11.dtd">
<svg xmlns="http://www.w3.org/2000/svg" version="1.1" width="624px" height="179px" style="shape-rendering:geometricPrecision; text-rendering:geometricPrecision; image-rendering:optimizeQuality; fill-rule:evenodd; clip-rule:evenodd" xmlns:xlink="http://www.w3.org/1999/xlink">
<g><path style="opacity:1" fill="#fefffe" d="M 172.5,22.5 C 179.841,22.3337 187.174,22.5003 194.5,23C 196.286,23.7845 197.786,24.9512 199,26.5C 200.548,35.4377 200.881,44.4377 200,53.5C 196.27,61.2927 192.27,68.9594 188,76.5C 181.95,92.9345 175.617,109.268 169,125.5C 166.559,127.969 163.726,129.802 160.5,131C 153.833,131.667 147.167,131.667 140.5,131C 137.619,129.749 135.786,127.583 135,124.5C 132.803,118.909 130.803,113.242 129,107.5C 120.667,90.8333 112.333,74.1667 104,57.5C 103.333,50.1667 103.333,42.8333 104,35.5C 105.399,31.2665 108.232,28.5998 112.5,27.5C 116.993,27.5638 121.493,27.5638 126,27.5C 129.513,27.8326 132.679,28.9992 135.5,31C 137.992,37.8056 140.492,44.6389 143,51.5C 145.696,57.7595 148.863,63.7595 152.5,69.5C 154.317,67.5839 155.484,65.2506 156,62.5C 158.617,51.328 161.617,40.328 165,29.5C 167.084,26.6068 169.584,24.2735 172.5,22.5 Z"/></g>
<g><path style="opacity:1" fill="#fefffe" d="M 283.5,26.5 C 292.173,26.3336 300.84,26.5002 309.5,27C 315.064,27.3542 320.064,29.1875 324.5,32.5C 326.957,29.7136 329.957,27.7136 333.5,26.5C 338.833,26.6667 344.167,26.8333 349.5,27C 351.667,27.8333 353.167,29.3333 354,31.5C 354.5,39.1594 354.666,46.8261 354.5,54.5C 363.098,52.9578 370.598,54.9578 377,60.5C 378.586,63.3405 380.42,66.0072 382.5,68.5C 384.944,64.8818 387.61,61.3818 390.5,58C 393.382,56.3921 396.382,55.0587 399.5,54C 406.045,53.091 412.545,51.9243 419,50.5C 424.494,50.7207 429.994,50.8874 435.5,51C 437.049,52.214 438.215,53.714 439,55.5C 439.5,64.1603 439.666,72.8269 439.5,81.5C 443.555,81.8242 447.555,81.4909 451.5,80.5C 452.94,72.5115 455.94,65.1782 460.5,58.5C 465.169,53.8342 470.835,51.3342 477.5,51C 496.325,46.1526 508.159,52.986 513,71.5C 515.582,89.8039 515.916,108.137 514,126.5C 513.535,127.931 512.701,129.097 511.5,130C 504.274,131.594 496.94,131.928 489.5,131C 487.998,130.417 486.665,129.584 485.5,128.5C 484.215,118.095 483.048,107.762 482,97.5C 481.667,106.5 481.333,115.5 481,124.5C 479.5,127.333 477.333,129.5 474.5,131C 467.5,131.667 460.5,131.667 453.5,131C 450.924,127.285 449.924,123.118 450.5,118.5C 429.854,118.952 409.187,118.952 388.5,118.5C 388.332,123.673 385.998,127.506 381.5,130C 375.167,130.667 368.833,130.667 362.5,130C 360.152,129.654 358.319,128.487 357,126.5C 356.136,120.857 355.469,115.19 355,109.5C 354.021,115.513 352.688,121.513 351,127.5C 349.457,129.378 347.624,130.878 345.5,132C 338.167,132.667 330.833,132.667 323.5,132C 320.47,128.408 319.136,124.242 319.5,119.5C 310.799,121.568 302.132,123.734 293.5,126C 280.57,127.134 267.903,125.8 255.5,122C 246.751,117.585 240.417,110.918 236.5,102C 229.373,102.089 222.206,102.256 215,102.5C 208.091,102.609 201.257,102.109 194.5,101C 193.257,99.8455 192.257,98.5122 191.5,97C 191.5,92.3333 191.5,87.6667 191.5,83C 193.434,74.6804 198.767,70.6804 207.5,71C 216.827,70.5002 226.161,70.3335 235.5,70.5C 237.236,51.5864 246.902,38.4198 264.5,31C 270.832,28.9051 277.165,27.4051 283.5,26.5 Z M 289.5,59.5 C 293.281,58.7886 296.281,59.9553 298.5,63C 305.826,63.4997 313.159,63.6663 320.5,63.5C 320.609,70.1961 320.276,76.8627 319.5,83.5C 314.496,83.6649 309.496,83.6649 304.5,83.5C 297.696,87.0471 290.529,89.7138 283,91.5C 276.569,89.7845 271.569,86.1178 268,80.5C 267.245,77.6967 267.578,75.0301 269,72.5C 274.697,66.2425 281.53,61.9092 289.5,59.5 Z"/></g>
<g><path style="opacity:1" fill="#fefefe" d="M 36.5,54.5 C 42.5244,54.3429 48.5244,54.5095 54.5,55C 63.2438,59.4538 71.7438,64.2871 80,69.5C 80.6667,75.5 80.6667,81.5 80,87.5C 78.6704,91.0067 76.1704,92.6734 72.5,92.5C 72.5,97.1667 72.5,101.833 72.5,106.5C 76.6286,104.752 79.462,106.085 81,110.5C 81.6667,116.833 81.6667,123.167 81,129.5C 77.5788,131.461 74.0788,133.294 70.5,135C 65.6197,139.387 60.6197,143.553 55.5,147.5C 50.1667,147.333 44.8333,147.167 39.5,147C 37.5559,145.278 36.5559,143.111 36.5,140.5C 36.5586,135.155 36.7253,129.822 37,124.5C 41.5455,120.286 46.3788,116.453 51.5,113C 51.1667,112.667 50.8333,112.333 50.5,112C 36.5974,112.28 22.7641,112.113 9,111.5C 8.33333,104.5 8.33333,97.5 9,90.5C 9.5,90 10,89.5 10.5,89C 14.0458,87.8263 17.7125,87.1596 21.5,87C 31.1667,86.6667 40.8333,86.3333 50.5,86C 45.1434,82.655 39.4767,79.8217 33.5,77.5C 32.8498,72.0565 32.5165,66.5565 32.5,61C 32.8447,58.1692 34.178,56.0025 36.5,54.5 Z"/></g>
<g><path style="opacity:1" fill="#fefefe" d="M 562.5,54.5 C 564.484,54.3832 566.15,55.0499 567.5,56.5C 569.833,53.8333 572.167,53.8333 574.5,56.5C 577.865,53.5629 580.365,54.2296 582,58.5C 582.667,65.1667 582.667,71.8333 582,78.5C 577.454,82.7139 572.621,86.5473 567.5,90C 570.91,91.0284 574.41,91.5284 578,91.5C 588.84,90.3662 599.673,90.3662 610.5,91.5C 610.987,92.4461 611.32,93.4461 611.5,94.5C 611.5,99.1667 611.5,103.833 611.5,108.5C 611.152,110.697 610.152,112.53 608.5,114C 604.619,115.19 600.619,115.857 596.5,116C 587.5,116.333 578.5,116.667 569.5,117C 574.935,120.593 580.768,123.426 587,125.5C 587.825,127.701 587.325,129.534 585.5,131C 588.167,133.333 588.167,135.667 585.5,138C 587.325,139.466 587.825,141.299 587,143.5C 585.261,145.741 583.094,147.408 580.5,148.5C 575.833,148.5 571.167,148.5 566.5,148.5C 558.833,144.333 551.167,140.167 543.5,136C 538.453,134.195 537.453,131.195 540.5,127C 538.006,124.756 538.006,122.423 540.5,120C 538.012,116.552 538.678,113.552 542.5,111C 544.221,110.261 545.887,109.427 547.5,108.5C 546.167,106.167 546.167,103.833 547.5,101.5C 546.811,99.556 546.311,97.556 546,95.5C 542.914,97.22 540.581,96.5534 539,93.5C 538.5,92 538,90.5 537.5,89C 537.5,84.3333 537.5,79.6667 537.5,75C 537.759,73.7387 538.426,72.7387 539.5,72C 548.673,68.0873 556.34,62.2539 562.5,54.5 Z"/></g>
</svg>
