<?xml version="1.0" standalone="no"?>
<!DOCTYPE svg PUBLIC "-//W3C//DTD SVG 20010904//EN"
 "http://www.w3.org/TR/2001/REC-SVG-20010904/DTD/svg10.dtd">
<svg version="1.0" xmlns="http://www.w3.org/2000/svg"
 width="624.000000pt" height="179.000000pt" viewBox="0 0 624.000000 179.000000"
 preserveAspectRatio="xMidYMid meet">

<g transform="translate(0.000000,179.000000) scale(0.100000,-0.100000)"
fill="#000000" stroke="none">
<path d="M1785 1478 c-35 -18 -76 -76 -81 -115 -3 -21 -16 -74 -29 -118 -12
-44 -32 -111 -43 -150 -24 -84 -82 -225 -92 -225 -4 0 -15 20 -24 44 -9 23
-33 70 -52 102 -20 32 -43 77 -50 99 -8 21 -20 46 -28 55 -16 19 -66 154 -66
179 0 52 -95 105 -147 82 -30 -14 -63 -68 -63 -104 0 -16 31 -93 69 -170 179
-370 201 -416 201 -427 0 -26 63 -156 83 -172 57 -45 169 10 183 91 4 20 32
92 64 161 31 69 69 163 85 210 15 46 41 107 57 134 67 114 88 165 88 216 0 53
-12 86 -39 107 -19 15 -88 16 -116 1z"/>
<path d="M2868 1440 c-130 -16 -213 -57 -315 -153 -64 -61 -87 -102 -109 -194
-24 -105 -22 -189 7 -263 45 -116 128 -186 254 -215 110 -26 196 -23 295 9
132 44 139 47 165 78 35 41 36 124 2 156 -31 29 -45 28 -130 -12 -120 -57
-239 -71 -308 -36 -56 29 -115 91 -122 130 -35 171 47 270 267 324 80 21 123
15 165 -19 16 -14 42 -25 57 -25 41 0 91 34 111 74 15 33 15 36 -6 69 -42 68
-169 98 -333 77z"/>
<path d="M3364 1430 c-59 -38 -67 -85 -85 -532 -11 -273 -10 -289 7 -325 17
-34 23 -38 61 -41 82 -6 115 42 128 188 8 97 36 197 64 231 19 23 20 23 40 5
25 -23 38 -86 51 -240 10 -134 20 -152 83 -163 32 -5 41 -1 72 30 34 34 35 38
35 109 0 113 -26 265 -56 327 -33 65 -99 137 -137 146 -18 5 -54 1 -93 -10
-36 -10 -66 -16 -68 -14 -1 2 2 62 7 133 l10 130 -27 23 c-33 28 -52 29 -92 3z"/>
<path d="M4147 1189 c-54 -10 -117 -29 -140 -41 -78 -43 -127 -159 -126 -298
1 -147 32 -180 174 -180 61 0 87 5 111 19 32 19 32 19 74 -1 29 -15 62 -21
111 -22 77 0 106 14 147 74 26 38 30 115 8 145 -13 18 -18 19 -77 6 -107 -23
-104 -24 -103 39 0 30 2 94 5 142 4 81 2 88 -20 112 -28 30 -32 30 -164 5z
m-27 -189 c13 -8 12 -19 -10 -81 -28 -83 -46 -97 -55 -45 -8 42 2 95 23 119
17 20 21 20 42 7z"/>
<path d="M4803 1196 c-110 -27 -163 -93 -203 -252 -24 -95 -28 -332 -7 -374
15 -31 63 -38 106 -15 45 23 54 48 48 134 -5 85 15 237 38 282 8 15 24 33 34
39 57 30 80 -36 92 -250 4 -91 11 -173 14 -182 16 -41 100 -50 134 -14 31 33
36 108 22 295 -9 127 -14 152 -41 210 -62 131 -111 157 -237 127z"/>
<path d="M416 1147 c-46 -46 -38 -58 69 -103 39 -16 94 -48 122 -71 60 -49 81
-53 112 -19 42 44 28 64 -99 138 -141 82 -169 90 -204 55z"/>
<path d="M5639 1112 c-35 -32 -92 -74 -127 -93 -62 -33 -63 -35 -58 -69 7 -42
40 -74 64 -61 32 17 181 126 216 159 20 18 36 41 36 51 0 23 -37 71 -54 71 -7
0 -42 -26 -77 -58z"/>
<path d="M2110 999 c-58 -11 -92 -37 -106 -80 -24 -69 11 -89 154 -89 117 1
171 12 195 41 25 31 22 85 -8 114 -22 23 -32 25 -107 24 -46 -1 -103 -5 -128
-10z"/>
<path d="M244 843 c-53 -4 -76 -19 -88 -59 -3 -11 0 -28 8 -39 12 -17 20 -18
142 -7 94 9 155 9 222 1 82 -9 96 -8 112 6 22 20 29 54 19 83 -8 22 -12 22
-186 20 -98 -1 -201 -3 -229 -5z"/>
<path d="M5895 804 c-85 -10 -133 -11 -214 -2 -103 11 -105 11 -123 -12 -10
-12 -18 -35 -18 -51 0 -49 21 -52 254 -46 l210 5 23 27 c13 14 23 36 23 49 0
24 -18 47 -34 45 -6 -1 -60 -8 -121 -15z"/>
<path d="M624 614 c-136 -93 -184 -137 -184 -167 0 -16 4 -36 10 -46 20 -39
40 -33 113 35 40 36 98 77 129 92 46 21 58 32 58 50 0 37 -28 81 -52 82 -4 0
-37 -21 -74 -46z"/>
<path d="M5486 591 c-16 -16 -26 -37 -24 -48 2 -10 28 -34 58 -55 59 -39 210
-118 227 -118 19 0 63 49 63 70 0 15 -11 25 -37 36 -94 37 -122 52 -177 97
-33 26 -64 47 -71 47 -6 0 -24 -13 -39 -29z"/>
</g>
</svg>
