<?xml version="1.0" encoding="UTF-8"?>
<!DOCTYPE svg PUBLIC "-//W3C//DTD SVG 1.1//EN" "http://www.w3.org/Graphics/SVG/1.1/DTD/svg11.dtd">
<svg xmlns="http://www.w3.org/2000/svg" version="1.1" width="500px" height="500px" style="shape-rendering:geometricPrecision; text-rendering:geometricPrecision; image-rendering:optimizeQuality; fill-rule:evenodd; clip-rule:evenodd" xmlns:xlink="http://www.w3.org/1999/xlink">
<g><path style="opacity:1" fill="#035603" d="M 304.5,71.5 C 308.019,70.1923 311.685,70.1923 315.5,71.5C 314.643,72.4252 313.643,73.0919 312.5,73.5C 310.365,71.631 307.698,70.9644 304.5,71.5 Z"/></g>
<g><path style="opacity:1" fill="#010300" d="M 304.5,71.5 C 307.698,70.9644 310.365,71.631 312.5,73.5C 303.872,80.2939 296.039,87.9606 289,96.5C 273.624,119.243 260.29,143.243 249,168.5C 245.71,177.659 243.044,186.992 241,196.5C 231.647,249.954 221.647,303.288 211,356.5C 207.109,373.064 202.443,389.397 197,405.5C 196.044,406.579 195.211,407.745 194.5,409C 185.029,412.901 176.029,417.568 167.5,423C 162.913,424.48 158.246,425.647 153.5,426.5C 151.563,425.74 149.73,424.74 148,423.5C 143.144,415.788 138.81,407.788 135,399.5C 125.894,358.183 113.561,317.85 98,278.5C 92.8518,267.698 86.5185,257.698 79,248.5C 70.3492,238.682 61.1826,229.349 51.5,220.5C 50.3332,217.8 50.4999,215.133 52,212.5C 60.0268,198.895 70.8601,188.062 84.5,180C 92.7424,175.711 101.076,171.711 109.5,168C 112.626,167.241 115.793,166.741 119,166.5C 121.47,166.34 123.636,167.007 125.5,168.5C 130.113,211.172 138.279,253.172 150,294.5C 153.007,308.201 158.341,320.868 166,332.5C 167.133,334.211 168.633,334.711 170.5,334C 180.543,305.659 187.043,276.493 190,246.5C 194.797,204.244 196.464,162.244 195,120.5C 206.149,110.366 218.649,102.2 232.5,96C 255.977,86.1191 279.977,77.9525 304.5,71.5 Z"/></g>
<g><path style="opacity:1" fill="#010300" d="M 387.5,121.5 C 387.611,122.117 387.944,122.617 388.5,123C 392.145,123.719 395.812,124.219 399.5,124.5C 400.167,124.5 400.833,124.5 401.5,124.5C 404.452,126.41 407.786,127.41 411.5,127.5C 420.628,129.765 429.628,132.432 438.5,135.5C 443.136,137.971 448.136,139.637 453.5,140.5C 457.715,141.238 461.715,142.572 465.5,144.5C 465.443,145.609 465.11,146.609 464.5,147.5C 451.474,149.04 438.141,150.54 424.5,152C 417.914,153.229 411.581,155.229 405.5,158C 403.622,159.543 402.122,161.376 401,163.5C 397.353,174.759 394.019,186.092 391,197.5C 390.586,197.957 390.086,198.291 389.5,198.5C 377.34,195.538 365.007,194.371 352.5,195C 349.363,195.601 346.363,196.601 343.5,198C 337.288,207.009 334.955,216.842 336.5,227.5C 334.621,226.659 332.621,226.325 330.5,226.5C 321.764,224.311 313.097,221.811 304.5,219C 295.719,218.163 287.052,218.83 278.5,221C 270.339,224.418 262.006,227.251 253.5,229.5C 249.27,228.468 245.603,226.301 242.5,223C 257.405,211.534 272.739,200.534 288.5,190C 294.027,184.473 299.527,178.973 305,173.5C 309.516,159.554 311.516,145.221 311,130.5C 320.5,127.22 330,123.72 339.5,120C 355.396,117.524 371.396,118.024 387.5,121.5 Z"/></g>
<g><path style="opacity:1" fill="#0e340a" d="M 387.5,121.5 C 391.736,122.008 395.736,123.008 399.5,124.5C 395.812,124.219 392.145,123.719 388.5,123C 387.944,122.617 387.611,122.117 387.5,121.5 Z"/></g>
<g><path style="opacity:1" fill="#0a3308" d="M 401.5,124.5 C 405.116,124.899 408.45,125.899 411.5,127.5C 407.786,127.41 404.452,126.41 401.5,124.5 Z"/></g>
<g><path style="opacity:1" fill="#0b2c08" d="M 438.5,135.5 C 443.86,136.36 448.86,138.027 453.5,140.5C 448.136,139.637 443.136,137.971 438.5,135.5 Z"/></g>
<g><path style="opacity:1" fill="#094906" d="M 465.5,144.5 C 466.885,145.947 466.552,146.947 464.5,147.5C 465.11,146.609 465.443,145.609 465.5,144.5 Z"/></g>
<g><path style="opacity:1" fill="#0b3f09" d="M 330.5,226.5 C 332.621,226.325 334.621,226.659 336.5,227.5C 334.402,228.484 332.402,228.151 330.5,226.5 Z"/></g>
</svg>
