<svg id="SvgjsSvg1001" width="288" height="288" xmlns="http://www.w3.org/2000/svg" version="1.1" xmlns:xlink="http://www.w3.org/1999/xlink" xmlns:svgjs="http://svgjs.com/svgjs"><defs id="SvgjsDefs1002"></defs><g id="SvgjsG1008"><svg xmlns="http://www.w3.org/2000/svg" fill-rule="evenodd" clip-rule="evenodd" image-rendering="optimizeQuality" shape-rendering="geometricPrecision" text-rendering="geometricPrecision" viewBox="0 0 430 575" width="288" height="288"><path fill="#000000" d="M 184.5,15.5 C 203.833,16.6661 223.166,16.8327 242.5,16C 286.124,20.6432 316.291,43.1432 333,83.5C 338.853,96.3925 343.52,109.726 347,123.5C 351.832,132.501 357.165,141.168 363,149.5C 364.399,152.363 365.399,155.363 366,158.5C 372.544,163.017 379.711,166.184 387.5,168C 389.525,169.194 389.859,170.694 388.5,172.5C 375.968,174.816 363.635,173.816 351.5,169.5C 354.279,180.958 358.779,191.958 365,202.5C 370.448,208.112 376.282,213.112 382.5,217.5C 382.392,218.442 382.059,219.275 381.5,220C 369.427,219.607 357.927,216.774 347,211.5C 343.766,228.368 342.099,245.368 342,262.5C 343.44,272.382 347.774,280.715 355,287.5C 356.981,283.776 358.148,279.776 358.5,275.5C 370.701,274.512 381.701,277.678 391.5,285C 407.151,296.989 417.651,312.489 423,331.5C 423.667,335.5 423.667,339.5 423,343.5C 421.867,345.211 420.367,345.711 418.5,345C 405.123,331.591 389.79,328.591 372.5,336C 371.313,337.019 370.313,338.186 369.5,339.5C 382.802,356.646 385.969,375.646 379,396.5C 375.504,407.826 371.171,418.826 366,429.5C 364.333,430.833 362.667,430.833 361,429.5C 360.667,423.167 360.333,416.833 360,410.5C 357.915,412.045 355.748,412.378 353.5,411.5C 351.711,415.864 348.377,417.697 343.5,417C 341.295,419.54 338.795,421.707 336,423.5C 333.801,434.403 328.635,443.57 320.5,451C 314.043,455.199 307.043,456.699 299.5,455.5C 299.291,454.914 298.957,454.414 298.5,454C 305.39,436.495 308.556,418.328 308,399.5C 303.835,407.504 298.335,414.504 291.5,420.5C 293.386,428.045 295.886,435.379 299,442.5C 299.667,443.833 299.667,445.167 299,446.5C 293.959,448.209 291.125,451.709 290.5,457C 287.956,458.092 285.289,458.759 282.5,459C 279.163,461.671 275.496,463.837 271.5,465.5C 270.686,467.766 270.186,470.1 270,472.5C 268.989,473.337 267.822,473.67 266.5,473.5C 262.838,502.066 261.671,530.732 263,559.5C 262.562,563.567 260.395,566.067 256.5,567C 243.678,569.288 231.011,568.621 218.5,565C 217.54,563.581 216.707,562.081 216,560.5C 215.333,555.833 215.333,551.167 216,546.5C 217.972,539.279 219.306,531.945 220,524.5C 220.5,511.838 220.667,499.171 220.5,486.5C 218.095,486.134 215.762,485.467 213.5,484.5C 211.238,485.467 208.905,486.134 206.5,486.5C 206.333,499.171 206.5,511.838 207,524.5C 207.493,531.981 208.826,539.315 211,546.5C 211.667,551.167 211.667,555.833 211,560.5C 209.434,564.824 206.267,566.991 201.5,567C 191.153,568.89 180.819,568.89 170.5,567C 166.605,566.067 164.438,563.567 164,559.5C 165.329,530.735 164.163,502.069 160.5,473.5C 159.178,473.67 158.011,473.337 157,472.5C 156.503,470.19 156.337,467.857 156.5,465.5C 154.801,465.66 153.134,465.494 151.5,465C 147.796,459.98 142.796,457.314 136.5,457C 135.875,451.709 133.041,448.209 128,446.5C 127.333,445.167 127.333,443.833 128,442.5C 131.114,435.379 133.614,428.045 135.5,420.5C 128.665,414.504 123.165,407.504 119,399.5C 118.667,406.848 119.001,414.182 120,421.5C 122.203,433.265 124.703,444.932 127.5,456.5C 115.709,457.074 106.209,452.741 99,443.5C 95.9419,436.993 93.2752,430.326 91,423.5C 88.2047,421.707 85.7047,419.54 83.5,417C 78.6227,417.697 75.2894,415.864 73.5,411.5C 71.2518,412.378 69.0851,412.045 67,410.5C 66.6667,416.833 66.3333,423.167 66,429.5C 64.3333,430.833 62.6667,430.833 61,429.5C 51.6539,411.795 46.1539,392.961 44.5,373C 45.0098,360.297 49.3431,349.13 57.5,339.5C 50.9532,332.691 42.9532,330.191 33.5,332C 23.9337,333.95 15.6004,338.283 8.5,345C 6.63318,345.711 5.13318,345.211 4,343.5C 3.10014,331.189 6.10014,319.856 13,309.5C 22.7863,292.707 36.9529,281.54 55.5,276C 59.8206,275.501 64.1539,275.334 68.5,275.5C 68.852,279.776 70.0187,283.776 72,287.5C 79.8232,280.02 84.3232,270.853 85.5,260C 83.0886,242.898 81.2553,225.731 80,208.5C 67.3802,215.768 53.8802,219.434 39.5,219.5C 39.1667,218.833 38.8333,218.167 38.5,217.5C 45.2795,213.004 51.4462,207.671 57,201.5C 61.9785,191.044 66.8118,180.544 71.5,170C 58.763,173.406 45.763,174.573 32.5,173.5C 32.2606,171.533 32.5939,169.699 33.5,168C 44.1911,165.405 53.6911,160.571 62,153.5C 68,143.5 74,133.5 80,123.5C 85.6056,104.624 92.6056,86.2908 101,68.5C 119.98,37.0824 147.814,19.4157 184.5,15.5 Z M 68.5,388.5 C 69.844,390.185 69.6773,391.852 68,393.5C 67.3603,391.735 67.5269,390.068 68.5,388.5 Z M 357.5,388.5 C 359.377,389.659 359.877,391.326 359,393.5C 357.731,392.095 357.231,390.429 357.5,388.5 Z" opacity=".978" class="color5b3d41 svgShape"></path><path fill="#fcfdfd" d="M 102.5,83.5 C 101.662,83.1583 101.328,82.4916 101.5,81.5C 120.171,41.7257 151.671,21.7257 196,21.5C 211.818,21.9346 227.651,22.1012 243.5,22C 284.975,27.1482 313.308,49.1482 328.5,88C 328.333,88.5 328.167,89 328,89.5C 325.873,85.4106 323.373,81.5772 320.5,78C 317.333,77.1667 316.167,78.3333 317,81.5C 326.761,97.3513 335.761,113.685 344,130.5C 349.38,138.605 354.214,146.938 358.5,155.5C 355.813,155.664 353.146,155.497 350.5,155C 350.481,152.031 350.314,148.865 350,145.5C 348.615,140.601 345.448,138.267 340.5,138.5C 340.85,142.054 340.184,145.388 338.5,148.5C 335.677,149.437 333.343,148.603 331.5,146C 329.732,139.363 327.566,132.863 325,126.5C 325.099,110.386 320.932,95.5522 312.5,82C 310.075,81.0141 308.409,81.6807 307.5,84C 313.146,91.9307 316.646,100.764 318,110.5C 318.832,121.848 318.666,133.181 317.5,144.5C 315.517,143.018 313.684,141.351 312,139.5C 311.4,119.159 306.733,99.8261 298,81.5C 295.524,79.9372 294.024,80.6038 293.5,83.5C 301.071,99.7028 305.237,116.703 306,134.5C 290.921,120.013 279.588,103.013 272,83.5C 270.644,82.6198 269.144,82.2865 267.5,82.5C 268.056,86.961 269.223,91.2943 271,95.5C 283.279,119.786 300.612,139.786 323,155.5C 323.49,156.793 323.657,158.127 323.5,159.5C 333.475,160.253 340.642,156.253 345,147.5C 345.095,154.803 341.928,160.303 335.5,164C 283.187,169.613 248.354,147.779 231,98.5C 229.524,93.5943 228.524,88.5943 228,83.5C 226.556,81.8446 224.722,81.178 222.5,81.5C 224.456,108.963 227.622,136.296 232,163.5C 235.85,181.556 242.35,198.556 251.5,214.5C 251,214.833 250.5,215.167 250,215.5C 226.893,205.059 210.56,188.059 201,164.5C 191.239,137.836 186.406,110.336 186.5,82C 184.633,81.2888 183.133,81.7888 182,83.5C 181.808,85.5767 181.308,87.5767 180.5,89.5C 161.095,109.01 144.095,130.344 129.5,153.5C 124.51,132.287 128.177,112.787 140.5,95C 140.333,93.5 139.5,92.6667 138,92.5C 135.719,93.7763 133.719,95.4429 132,97.5C 128.885,102.844 126.552,108.511 125,114.5C 122.317,129.231 119.317,143.897 116,158.5C 111.119,138.096 111.452,117.762 117,97.5C 119.038,90.3799 122.038,83.7132 126,77.5C 126.49,76.2068 126.657,74.8734 126.5,73.5C 125.127,73.3433 123.793,73.51 122.5,74C 114.725,85.6515 109.891,98.4849 108,112.5C 102.934,123.963 98.4336,135.63 94.5,147.5C 86.455,152.342 77.7883,155.009 68.5,155.5C 72.7863,146.938 77.6197,138.605 83,130.5C 91.2386,113.685 100.239,97.3513 110,81.5C 110.854,79.3927 110.188,78.0593 108,77.5C 105.483,78.8615 103.65,80.8615 102.5,83.5 Z" class="colorfdfcfc svgShape"></path><path fill="#ffffff" d="M 101.5,81.5 C 101.328,82.4916 101.662,83.1583 102.5,83.5C 101.093,85.3083 99.926,87.3083 99,89.5C 98.9779,86.5495 99.8113,83.8828 101.5,81.5 Z" class="colorbeb2b4 svgShape"></path><path fill="#ffffff" d="M 179.5,97.5 C 180.5,97.5 181.5,97.5 182.5,97.5C 182.506,126.881 189.339,154.547 203,180.5C 215.814,202.805 234.647,217.471 259.5,224.5C 261.167,224.167 262.167,223.167 262.5,221.5C 258.771,216.433 255.438,211.099 252.5,205.5C 262.494,201.424 272.494,201.591 282.5,206C 283.615,208.101 283.615,210.267 282.5,212.5C 282.722,214.055 283.389,215.389 284.5,216.5C 283.333,218.833 282.167,221.167 281,223.5C 276.162,229.715 270.995,235.549 265.5,241C 265.667,242.5 266.5,243.333 268,243.5C 272.192,242.395 276.358,241.562 280.5,241C 259.433,251.403 237.1,256.236 213.5,255.5C 193.538,255.886 174.204,252.719 155.5,246C 151.411,243.873 147.577,241.373 144,238.5C 142.392,228.213 141.726,217.879 142,207.5C 148.458,202.913 155.625,201.413 163.5,203C 172.284,204.154 180.784,206.321 189,209.5C 189.896,206.975 189.396,204.808 187.5,203C 175.747,194.974 162.747,191.641 148.5,193C 146.336,193.914 144.336,195.081 142.5,196.5C 140.979,175.778 143.145,155.445 149,135.5C 158.241,122.092 168.408,109.425 179.5,97.5 Z" class="colorfcfcfc svgShape"></path><path fill="#fbfcfc" d="M 232.5,116.5 C 243.026,139.359 260.026,155.359 283.5,164.5C 285.312,175.112 285.645,185.779 284.5,196.5C 280.384,193.351 275.717,192.018 270.5,192.5C 262.931,192.579 255.765,194.246 249,197.5C 244.552,187.492 240.885,177.159 238,166.5C 235.178,151.922 233.011,137.256 231.5,122.5C 231.205,120.265 231.539,118.265 232.5,116.5 Z" class="colorfcfbfb svgShape"></path><path fill="#ffffff" d="M 232.5,116.5 C 231.539,118.265 231.205,120.265 231.5,122.5C 230.362,119.696 230.195,116.696 231,113.5C 231.513,114.527 232.013,115.527 232.5,116.5 Z" class="color998689 svgShape"></path><path fill="#fafbfb" d="M 106.5,127.5 C 107.258,135.69 108.091,144.023 109,152.5C 115.798,179.43 120.465,179.097 123,151.5C 124.477,155.43 125.644,159.43 126.5,163.5C 127.873,163.657 129.207,163.49 130.5,163C 133.294,157.91 136.46,153.077 140,148.5C 136.656,173.996 135.656,199.663 137,225.5C 138.64,246.584 140.64,267.584 143,288.5C 128.818,267.295 120.151,243.961 117,218.5C 116.06,209.521 115.393,200.521 115,191.5C 113.667,190.167 112.333,190.167 111,191.5C 107.254,205.988 101.588,219.655 94,232.5C 91.1806,196.711 95.3473,161.711 106.5,127.5 Z" class="colorfbfafa svgShape"></path><path fill="#ffffff" d="M 323.5,139.5 C 325.602,142.908 326.269,146.575 325.5,150.5C 324.914,150.291 324.414,149.957 324,149.5C 323.502,146.183 323.335,142.85 323.5,139.5 Z" class="colore4dfe0 svgShape"></path><path fill="#fafbfb" d="M 86.5,156.5 C 87.675,156.281 88.675,156.614 89.5,157.5C 90.479,160.083 91.1457,162.749 91.5,165.5C 89.7754,175.178 88.2754,184.844 87,194.5C 78.8176,203.839 68.6509,209.339 56.5,211C 58.6667,208.167 60.8333,205.333 63,202.5C 68.0594,190.714 73.3928,179.047 79,167.5C 81.5228,163.767 84.0228,160.101 86.5,156.5 Z" class="colorfbfafa svgShape"></path><path fill="#ffffff" d="M 346.5,159.5 C 354.661,159.793 361.994,162.293 368.5,167C 361.051,167.376 354.051,165.709 347.5,162C 346.748,161.329 346.414,160.496 346.5,159.5 Z" class="colorece9e9 svgShape"></path><path fill="#ffffff" d="M 62.5,160.5 C 66.7718,161.301 71.1052,161.468 75.5,161C 68.6628,165.06 61.3295,167.06 53.5,167C 56.921,165.301 59.921,163.135 62.5,160.5 Z" class="coloredeaeb svgShape"></path><path fill="#fafbfb" d="M 291.5,166.5 C 295.326,168 299.326,168.666 303.5,168.5C 301.396,179.978 297.23,190.645 291,200.5C 291.355,189.197 291.522,177.864 291.5,166.5 Z" class="colorfbfafa svgShape"></path><path fill="#ffffff" d="M 340.5,166.5 C 344.146,171.781 347.313,177.448 350,183.5C 352.588,193.347 357.255,202.014 364,209.5C 364.591,210.483 364.257,211.15 363,211.5C 354.537,209.434 346.87,205.768 340,200.5C 338.929,190.128 337.929,179.794 337,169.5C 338.145,168.364 339.312,167.364 340.5,166.5 Z" class="colorfaf9f9 svgShape"></path><path fill="#ffffff" d="M 308.5,170.5 C 312.167,170.5 315.833,170.5 319.5,170.5C 320.819,182.622 324.819,193.789 331.5,204C 320.649,200.165 312.482,192.998 307,182.5C 307.156,178.494 307.656,174.494 308.5,170.5 Z" class="colorf9f8f8 svgShape"></path><path fill="#ffffff" d="M 324.5,171.5 C 326.607,170.532 328.941,170.198 331.5,170.5C 335.383,204.399 333.05,204.732 324.5,171.5 Z" class="colorf7f5f6 svgShape"></path><path fill="#f7f8f8" d="M 303.5,187.5 C 306.701,190.542 309.367,194.042 311.5,198C 306.584,212.243 297.917,223.577 285.5,232C 283.598,233.301 281.598,233.968 279.5,234C 286.238,226.358 290.738,217.525 293,207.5C 297.29,201.253 300.79,194.586 303.5,187.5 Z" class="colorf8f7f7 svgShape"></path><path fill="#d0d5d8" d="M 209.5,203.5 C 214.126,202.7 217.96,204.034 221,207.5C 221.798,209.259 221.631,210.926 220.5,212.5C 215.889,213.61 211.222,213.777 206.5,213C 205.424,211.274 205.257,209.441 206,207.5C 207.376,206.295 208.542,204.962 209.5,203.5 Z" class="colore6cdd7 svgShape"></path><path fill="#ffffff" d="M 320.5,205.5 C 324.727,208.275 329.394,209.942 334.5,210.5C 334.8,217.896 334.3,225.229 333,232.5C 327.744,223.989 323.577,214.989 320.5,205.5 Z" class="colorf7f5f6 svgShape"></path><path fill="#fafbfb" d="M110.5 209.5C113.047 236.327 120.881 261.66 134 285.5 135.244 292.654 137.077 299.654 139.5 306.5 139.333 307.167 139.167 307.833 139 308.5 127.807 296.775 121.474 282.775 120 266.5 118.867 264.789 117.367 264.289 115.5 265 112.896 273.256 111.562 281.756 111.5 290.5 112.014 300.989 113.181 311.322 115 321.5 106.975 311.786 101.309 300.786 98 288.5 92.6007 271.563 89.6007 254.229 89 236.5 91.9053 240.327 94.9053 240.327 98 236.5 103.259 227.984 107.425 218.984 110.5 209.5zM315.5 209.5C320.378 220.922 326.044 231.922 332.5 242.5 330.36 267.081 323.86 290.414 313 312.5 310.908 315.681 308.575 318.681 306 321.5 309.444 305.369 310.11 289.036 308 272.5 307.721 268.795 306.221 265.795 303.5 263.5 310.661 246.189 314.661 228.189 315.5 209.5z" class="colorfbfafa svgShape"></path><path fill="#ffffff" d="M 309.5,213.5 C 307.945,240.661 299.445,265.661 284,288.5C 286.256,270.938 287.923,253.271 289,235.5C 297.762,229.907 304.595,222.573 309.5,213.5 Z" class="colorfaf9f9 svgShape"></path><path fill="#000000" d="M 230.5,229.5 C 236.067,228.753 237.9,231.087 236,236.5C 233.002,240.926 228.835,243.759 223.5,245C 214.415,247.125 205.415,246.792 196.5,244C 191.717,242.058 189.717,238.558 190.5,233.5C 204.115,233.541 217.448,232.208 230.5,229.5 Z" class="color5e4045 svgShape"></path><path fill="#ffffff" d="M 208.5,237.5 C 213.297,237.121 217.964,237.621 222.5,239C 214.548,240.888 206.548,240.888 198.5,239C 202.025,238.821 205.359,238.321 208.5,237.5 Z" class="colorf0eded svgShape"></path><path fill="#ffffff" d="M 226.5,236.5 C 228.975,236.747 228.975,237.413 226.5,238.5C 225.537,238.03 225.537,237.363 226.5,236.5 Z" class="colorb2a4a6 svgShape"></path><path fill="#ffffff" d="M 144.5,246.5 C 156.814,252.665 169.814,256.831 183.5,259C 180.362,260.244 177.028,260.911 173.5,261C 172.789,262.255 171.956,263.421 171,264.5C 166.471,260.652 161.305,257.985 155.5,256.5C 151.216,258.705 148.049,262.039 146,266.5C 144.863,259.88 144.363,253.214 144.5,246.5 Z" class="colorf7f5f6 svgShape"></path><path fill="#fdfdfd" d="M 280.5,246.5 C 281.8,248.223 282.467,250.39 282.5,253C 282.356,257.21 281.856,261.376 281,265.5C 278.321,261.488 274.988,258.154 271,255.5C 265.412,257.126 260.412,259.793 256,263.5C 253.462,259.876 250.128,258.876 246,260.5C 244.5,260 243,259.5 241.5,259C 255.455,257.436 268.455,253.269 280.5,246.5 Z" class="colorf3f0f1 svgShape"></path><path fill="#ffffff" d="M 336.5,261.5 C 335.833,262.167 335.167,262.833 334.5,263.5C 334.678,260.784 335.178,258.117 336,255.5C 336.495,257.473 336.662,259.473 336.5,261.5 Z" class="color9f8d90 svgShape"></path><path fill="#f7f8f8" d="M 191.5,259.5 C 198.066,258.949 203.732,260.949 208.5,265.5C 204.919,272.33 201.086,278.997 197,285.5C 193.443,279.552 190.276,273.386 187.5,267C 188.673,264.35 190.006,261.85 191.5,259.5 Z" class="colorf8f7f7 svgShape"></path><path fill="#ffffff" d="M 227.5,259.5 C 233.448,258.441 237.448,260.774 239.5,266.5C 236.658,272.857 233.325,278.857 229.5,284.5C 225.5,278.167 221.5,271.833 217.5,265.5C 220.897,263.474 224.23,261.474 227.5,259.5 Z" class="colorf9f8f8 svgShape"></path><path fill="#ffffff" d="M 156.5,279.5 C 159.808,282.471 163.141,285.471 166.5,288.5C 165.843,291.559 163.843,293.059 160.5,293C 157.667,295.167 154.833,297.333 152,299.5C 149.529,295.43 150.196,292.097 154,289.5C 155.138,283.253 153.638,277.753 149.5,273C 150.657,269.173 152.657,265.84 155.5,263C 161.594,263.544 166.261,266.378 169.5,271.5C 169,273.5 168.5,275.5 168,277.5C 163.745,275.478 159.245,274.478 154.5,274.5C 154.12,276.698 154.787,278.365 156.5,279.5 Z" class="colorf7f6f6 svgShape"></path><path fill="#ffffff" d="M 336.5,261.5 C 337.625,275.248 343.625,286.415 354.5,295C 366.895,304.695 380.895,310.862 396.5,313.5C 380.905,323.796 365.238,323.962 349.5,314C 347.866,313.506 346.199,313.34 344.5,313.5C 344.749,317.614 346.249,321.28 349,324.5C 356.712,333.21 364.045,342.21 371,351.5C 373.455,355.531 375.121,359.864 376,364.5C 376.99,381.557 373.99,397.89 367,413.5C 368.486,398.475 364.986,384.809 356.5,372.5C 354.955,371.548 353.288,371.215 351.5,371.5C 352.459,377.138 352.626,382.805 352,388.5C 347.957,384.123 343.124,380.956 337.5,379C 331.009,367.184 325.176,355.017 320,342.5C 319.275,341.941 318.442,341.608 317.5,341.5C 315.147,342.351 312.813,342.851 310.5,343C 307.661,339.655 305.328,335.989 303.5,332C 317.739,317.698 326.905,300.531 331,280.5C 332.329,274.853 333.496,269.187 334.5,263.5C 335.167,262.833 335.833,262.167 336.5,261.5 Z" class="colorfcfcfc svgShape"></path><path fill="#f3f4f5" d="M 244.5,267.5 C 245.725,268.152 246.392,269.319 246.5,271C 247.663,275.799 248.163,280.632 248,285.5C 247.439,286.022 246.772,286.355 246,286.5C 243.022,285.089 239.855,284.089 236.5,283.5C 239.705,278.423 242.372,273.09 244.5,267.5 Z" class="colorf5f3f3 svgShape"></path><path fill="#f5f6f7" d="M 181.5,268.5 C 184.852,273.358 187.852,278.525 190.5,284C 187.079,284.101 183.912,284.934 181,286.5C 179.268,286.266 178.434,285.266 178.5,283.5C 179.61,278.502 180.61,273.502 181.5,268.5 Z" class="colorf7f5f5 svgShape"></path><path fill="#ffffff" d="M 210.5,272.5 C 212.585,273.35 214.585,273.684 216.5,273.5C 219.752,278.334 222.752,283.334 225.5,288.5C 220.842,291.494 216.842,295.16 213.5,299.5C 210.158,295.16 206.158,291.494 201.5,288.5C 204.526,283.107 207.526,277.774 210.5,272.5 Z" class="colorfaf9f9 svgShape"></path><path fill="#f1f2f3" d="M 299.5,271.5 C 298.916,284.368 294.083,295.701 285,305.5C 283.191,302.265 283.191,298.932 285,295.5C 291.278,288.385 296.112,280.385 299.5,271.5 Z" class="colorf3f1f1 svgShape"></path><path fill="#ffffff" d="M 87.5,274.5 C 90.9176,283.245 94.0843,292.245 97,301.5C 102.259,315.21 110.759,326.376 122.5,335C 120.5,337.667 118.5,340.333 116.5,343C 114.095,343.148 111.761,342.648 109.5,341.5C 108.558,341.608 107.725,341.941 107,342.5C 101.824,355.017 95.9908,367.184 89.5,379C 84.2163,380.777 79.5496,383.61 75.5,387.5C 74.5064,382.484 74.3397,377.484 75,372.5C 73.5064,371.253 72.0064,371.253 70.5,372.5C 62.0136,384.809 58.5136,398.475 60,413.5C 53.1381,397.859 50.1381,381.525 51,364.5C 52.271,360.021 53.9377,355.688 56,351.5C 62.9548,342.21 70.2882,333.21 78,324.5C 80.7843,321.283 82.1177,317.616 82,313.5C 81.586,313.043 81.086,312.709 80.5,312.5C 67.8218,321.169 54.1551,323.336 39.5,319C 36.5,317.167 33.5,315.333 30.5,313.5C 50.4245,310.123 67.2578,301.123 81,286.5C 83.8265,282.845 85.9932,278.845 87.5,274.5 Z" class="colorfcfcfc svgShape"></path><path fill="#93a0a6" d="M 251.5,268.5 C 253.54,273.89 254.373,279.557 254,285.5C 252.653,279.905 251.82,274.238 251.5,268.5 Z" class="colora59497 svgShape"></path><path fill="#f9fafa" d="M 260.5,287.5 C 262.823,284.874 265.157,282.207 267.5,279.5C 269.117,278.962 270.784,278.629 272.5,278.5C 272.714,276.856 272.38,275.356 271.5,274C 267.044,273.422 262.711,273.922 258.5,275.5C 258.373,273.085 258.207,270.751 258,268.5C 261.416,266.208 264.916,264.041 268.5,262C 272.016,262.149 274.516,263.983 276,267.5C 276.667,269.833 276.667,272.167 276,274.5C 273.109,278.735 272.109,283.402 273,288.5C 276.804,291.097 277.471,294.43 275,298.5C 271.166,294.668 266.666,292.001 261.5,290.5C 260.873,289.583 260.539,288.583 260.5,287.5 Z" class="colorfafafa svgShape"></path><path fill="#8f9da4" d="M 174.5,271.5 C 175.116,276.074 174.616,280.74 173,285.5C 172.733,280.763 173.233,276.096 174.5,271.5 Z" class="colora29194 svgShape"></path><path fill="#c4cbcf" d="M 267.5,279.5 C 265.157,282.207 262.823,284.874 260.5,287.5C 258.86,281.755 261.193,279.088 267.5,279.5 Z" class="colorc4c6cf svgShape"></path><path fill="#abb5ba" d="M 147.5,279.5 C 149.088,281.527 149.588,283.861 149,286.5C 147.798,284.323 147.298,281.989 147.5,279.5 Z" class="colorb9acae svgShape"></path><path fill="#c0c8cc" d="M 156.5,279.5 C 159.987,279.905 163.32,280.905 166.5,282.5C 167.519,284.46 167.519,286.46 166.5,288.5C 163.141,285.471 159.808,282.471 156.5,279.5 Z" class="colorc1c2cb svgShape"></path><path fill="#f8f9fa" d="M61.5 280.5C62.4972 280.47 63.1639 280.97 63.5 282 64.3544 285.405 65.6877 288.571 67.5 291.5 54.1077 302.535 38.7743 307.868 21.5 307.5 31.2808 292.963 44.6141 283.963 61.5 280.5zM405.5 308.5C388.236 307.86 372.903 302.194 359.5 291.5 361.355 287.942 363.022 284.275 364.5 280.5 382.393 283.616 396.06 292.949 405.5 308.5z" class="colorf9f9f9 svgShape"></path><path fill="#a7b2b7" d="M 278.5,279.5 C 279.874,281.517 279.707,283.517 278,285.5C 277.51,283.455 277.677,281.455 278.5,279.5 Z" class="colorb6a8ab svgShape"></path><path fill="#ffffff" d="M 117.5,283.5 C 121.34,295.021 127.673,305.021 136.5,313.5C 132.667,319.167 128.833,324.833 125,330.5C 122.411,325.066 120.411,319.4 119,313.5C 117.744,303.541 117.244,293.541 117.5,283.5 Z" class="colorf9f8f8 svgShape"></path><path fill="#ffffff" d="M 302.5,285.5 C 303.485,289.634 303.818,293.968 303.5,298.5C 303.497,307.54 301.83,316.206 298.5,324.5C 294.811,320.135 291.478,315.469 288.5,310.5C 294.472,302.888 299.139,294.555 302.5,285.5 Z" class="colorfaf9f9 svgShape"></path><path fill="#9aa6ac" d="M 303.5,298.5 C 303.818,293.968 303.485,289.634 302.5,285.5C 302.369,284.624 302.702,283.957 303.5,283.5C 304.814,288.652 304.814,293.652 303.5,298.5 Z" class="colorab9b9e svgShape"></path><path fill="#d2d7da" d="M 185.5,289.5 C 189.497,288.668 192.164,290.168 193.5,294C 194.938,294.219 196.271,294.719 197.5,295.5C 197,295.833 196.5,296.167 196,296.5C 190.96,295.034 185.793,294.034 180.5,293.5C 182.201,292.165 183.868,290.832 185.5,289.5 Z" class="colord7d4d8 svgShape"></path><path fill="#c3cace" d="M 241.5,290.5 C 240.5,290.5 239.5,290.5 238.5,290.5C 238.5,291.5 238.5,292.5 238.5,293.5C 240.735,293.205 242.735,293.539 244.5,294.5C 240.818,294.665 237.152,294.499 233.5,294C 235.067,289.813 237.733,288.646 241.5,290.5 Z" class="colorc7c5cc svgShape"></path><path fill="#fafbfb" d="M 241.5,290.5 C 243.305,291.237 244.971,292.237 246.5,293.5C 246.043,294.298 245.376,294.631 244.5,294.5C 242.735,293.539 240.735,293.205 238.5,293.5C 238.5,292.5 238.5,291.5 238.5,290.5C 239.5,290.5 240.5,290.5 241.5,290.5 Z" class="colorfbfafb svgShape"></path><path fill="#ebedee" d="M 172.5,290.5 C 176.93,293.678 176.43,296.012 171,297.5C 170.167,294.829 170.667,292.496 172.5,290.5 Z" class="coloredeced svgShape"></path><path fill="#e6e9ea" d="M 252.5,290.5 C 256.254,291.828 257.421,294.494 256,298.5C 254.197,297.687 252.697,296.52 251.5,295C 252.148,293.56 252.481,292.06 252.5,290.5 Z" class="colore9e7e9 svgShape"></path><path fill="#e0e3e5" d="M 141.5,295.5 C 145.23,296.938 146.063,299.272 144,302.5C 143.153,300.146 142.32,297.812 141.5,295.5 Z" class="colore5e0e1 svgShape"></path><path fill="#ffffff" d="M 178.5,299.5 C 183.93,299.161 189.264,299.661 194.5,301C 201.225,305.022 207.558,309.522 213.5,314.5C 219.003,309.519 225.003,305.019 231.5,301C 251.73,295.572 260.23,303.072 257,323.5C 255.581,324.46 254.081,325.293 252.5,326C 247.167,326.167 241.833,326.333 236.5,326.5C 215.506,325.814 194.506,325.648 173.5,326C 171.671,325.727 170.171,324.893 169,323.5C 168.333,318.167 168.333,312.833 169,307.5C 171.161,303.495 174.328,300.829 178.5,299.5 Z" class="colorfcfcfc svgShape"></path><path fill="#c7ced2" d="M 202.5,296.5 C 203.586,296.62 204.253,297.287 204.5,298.5C 203.696,300.957 202.696,300.957 201.5,298.5C 201.863,297.817 202.196,297.15 202.5,296.5 Z" class="colord1c8ca svgShape"></path><path fill="#bdc5c9" d="M 222.5,296.5 C 226.337,297.203 226.503,298.536 223,300.5C 222.51,299.207 222.343,297.873 222.5,296.5 Z" class="colorc8bec0 svgShape"></path><path fill="#dce0e2" d="M 162.5,301.5 C 163.995,301.415 164.995,302.081 165.5,303.5C 164.764,305.541 163.931,307.541 163,309.5C 161.255,306.99 161.089,304.324 162.5,301.5 Z" class="colore2dcdd svgShape"></path><path fill="#e9eced" d="M 262.5,301.5 C 265.967,303.823 266.3,306.489 263.5,309.5C 262.795,307.328 261.795,305.328 260.5,303.5C 261.243,302.818 261.909,302.151 262.5,301.5 Z" class="colorede9ea svgShape"></path><path fill="#fbfcfc" d="M 148.5,305.5 C 149.693,305.97 150.36,306.97 150.5,308.5C 148.86,315.391 151.193,320.558 157.5,324C 159.567,324.536 161.401,324.036 163,322.5C 163.167,323 163.333,323.5 163.5,324C 155.447,336.059 146.613,347.559 137,358.5C 132.256,353.561 127.089,349.228 121.5,345.5C 130.51,332.138 139.51,318.805 148.5,305.5 Z" class="colorfcfbfb svgShape"></path><path fill="#fbfbfb" d="M 276.5,304.5 C 286.86,317.507 296.527,331.173 305.5,345.5C 299.911,349.228 294.744,353.561 290,358.5C 280.224,347.101 271.057,335.268 262.5,323C 262.833,322.5 263.167,322 263.5,321.5C 268.164,324.275 271.997,323.275 275,318.5C 277.584,314.107 278.084,309.44 276.5,304.5 Z" class="colorfbfbfb svgShape"></path><path fill="#ffffff" d="M 41.5,324.5 C 38.1667,325.167 34.8333,325.833 31.5,326.5C 23.6748,327.579 16.6748,330.579 10.5,335.5C 10.0164,330.731 10.8497,326.065 13,321.5C 15.3197,317.532 17.653,313.532 20,309.5C 21.7519,313.588 24.5852,316.754 28.5,319C 32.5674,321.594 36.9007,323.428 41.5,324.5 Z" class="colorf9f8f8 svgShape"></path><path fill="#f3f4f5" d="M156.5 310.5C158.63 312.127 160.63 313.96 162.5 316 159.054 319.631 156.721 318.965 155.5 314 155.989 312.862 156.322 311.695 156.5 310.5zM269.5 310.5C270.695 310.866 271.361 311.699 271.5 313 270.666 317.549 268.666 318.383 265.5 315.5 266.857 313.814 268.19 312.148 269.5 310.5z" class="colorf5f3f3 svgShape"></path><path fill="#f5f6f6" d="M 405.5,308.5 C 412.537,316.179 416.204,325.179 416.5,335.5C 409.404,330.134 401.404,327.134 392.5,326.5C 390.167,325.833 387.833,325.167 385.5,324.5C 393.478,322.429 400.311,318.429 406,312.5C 406.195,311.181 406.028,309.847 405.5,308.5 Z" class="colorf6f5f5 svgShape"></path><path fill="#ffffff" d="M 48.5,327.5 C 48.5,327.167 48.5,326.833 48.5,326.5C 53.1785,326.666 57.8452,326.499 62.5,326C 65.9317,324.929 69.265,323.929 72.5,323C 69.3526,327.314 65.686,331.148 61.5,334.5C 57.8776,330.855 53.5443,328.522 48.5,327.5 Z" class="colorf0eded svgShape"></path><path fill="#eceeef" d="M 378.5,326.5 C 378.5,326.833 378.5,327.167 378.5,327.5C 373.467,328.517 369.134,330.85 365.5,334.5C 361.314,331.148 357.647,327.314 354.5,323C 357.735,323.929 361.068,324.929 364.5,326C 369.155,326.499 373.821,326.666 378.5,326.5 Z" class="colorefecec svgShape"></path><path fill="#76878f" d="M 41.5,324.5 C 43.8333,325.167 46.1667,325.833 48.5,326.5C 48.5,326.833 48.5,327.167 48.5,327.5C 42.8936,326.593 37.227,326.26 31.5,326.5C 34.8333,325.833 38.1667,325.167 41.5,324.5 Z" class="color8d787b svgShape"></path><path fill="#6e7f87" d="M 385.5,324.5 C 387.833,325.167 390.167,325.833 392.5,326.5C 387.77,326.283 383.103,326.617 378.5,327.5C 378.5,327.167 378.5,326.833 378.5,326.5C 380.833,325.833 383.167,325.167 385.5,324.5 Z" class="color866f72 svgShape"></path><path fill="#ffffff" d="M166.5 329.5C167.657 337.99 167.824 346.657 167 355.5 164.164 363.867 161.497 372.201 159 380.5 150.483 390.861 143.483 402.195 138 414.5 133.31 410.473 129.31 405.806 126 400.5 123.232 396.533 121.898 392.2 122 387.5 128.969 381.532 135.636 375.199 142 368.5 142.536 366.433 142.036 364.599 140.5 363 149.764 352.243 158.431 341.077 166.5 329.5zM259.5 329.5C268.361 340.688 277.361 351.855 286.5 363 284.964 364.599 284.464 366.433 285 368.5 291.364 375.199 298.031 381.532 305 387.5 304.3 394.577 301.633 400.911 297 406.5 294.037 408.461 291.371 410.794 289 413.5 284.553 401.936 278.553 391.27 271 381.5 265.986 373.473 262.319 364.806 260 355.5 259.5 346.84 259.334 338.173 259.5 329.5zM206.5 330.5C222.181 332.146 237.848 332.646 253.5 332 254.317 340.088 254.817 348.255 255 356.5 256.609 361.823 258.109 367.156 259.5 372.5 252.107 372.784 244.774 373.618 237.5 375 214.13 375.86 190.797 375.36 167.5 373.5 168.685 367.773 170.185 362.106 172 356.5 172.168 348.147 172.668 339.813 173.5 331.5 184.662 332.79 195.662 332.456 206.5 330.5z" class="colorfcfcfc svgShape"></path><path fill="#fbfbfb" d="M 110.5,347.5 C 121.351,350.918 130.018,357.251 136.5,366.5C 127.511,375.322 118.344,383.988 109,392.5C 108.429,396.984 106.596,400.818 103.5,404C 102.197,404.21 100.864,404.043 99.5,403.5C 93.3979,405.942 87.0646,407.276 80.5,407.5C 80.6897,404.123 82.1897,401.456 85,399.5C 85.6114,395.912 84.1114,394.746 80.5,396C 77.4057,401.481 72.7391,403.481 66.5,402C 72.5,397 78.5,392 84.5,387C 87.595,385.022 90.9284,383.522 94.5,382.5C 99.8551,370.735 105.188,359.068 110.5,347.5 Z" class="colorfbfbfb svgShape"></path><path fill="#fafbfb" d="M 313.5,347.5 C 314.822,347.33 315.989,347.663 317,348.5C 322.062,359.841 327.229,371.174 332.5,382.5C 335.947,383.723 339.28,385.223 342.5,387C 348.5,392 354.5,397 360.5,402C 354.144,403.82 349.477,401.82 346.5,396C 340.422,396.258 339.922,398.424 345,402.5C 346.009,404.025 346.509,405.692 346.5,407.5C 339.821,407.83 333.488,406.496 327.5,403.5C 326.353,403.818 325.519,404.484 325,405.5C 320.947,402.108 318.614,397.775 318,392.5C 309,384.167 300,375.833 291,367.5C 292.233,363.92 294.4,360.753 297.5,358C 302.727,354.228 308.061,350.728 313.5,347.5 Z" class="colorfbfafa svgShape"></path><path fill="#58656b" d="M 212.5,366.5 C 213.586,366.62 214.253,367.287 214.5,368.5C 214.167,369.167 213.833,369.833 213.5,370.5C 212.571,369.311 212.238,367.978 212.5,366.5 Z" class="color6f5458 svgShape"></path><path fill="#eef0f1" d="M 259.5,376.5 C 262.166,376.066 263.333,377.066 263,379.5C 247.294,384.557 231.127,386.89 214.5,386.5C 198.699,386.291 183.032,384.791 167.5,382C 166.09,381.632 165.09,380.799 164.5,379.5C 170.182,378.364 175.849,378.53 181.5,380C 199.833,380.667 218.167,380.667 236.5,380C 244.462,379.873 252.128,378.707 259.5,376.5 Z" class="colorf1eeee svgShape"></path><path fill="#fdfdfd" d="M 260.5,385.5 C 262.288,385.215 263.955,385.548 265.5,386.5C 271.048,397.002 272.548,408.002 270,419.5C 268.262,423.241 265.762,426.408 262.5,429C 240.077,442.403 216.077,446.069 190.5,440C 179.165,436.967 169.665,431.134 162,422.5C 158.185,415.824 157.518,408.824 160,401.5C 161.147,396.225 162.98,391.225 165.5,386.5C 170.984,388.497 176.65,389.663 182.5,390C 204.873,392.209 227.207,391.876 249.5,389C 253.427,388.276 257.094,387.109 260.5,385.5 Z" class="colorfdfdfd svgShape"></path><path fill="#9ca8ae" d="M 154.5,401.5 C 154.167,401.5 153.833,401.5 153.5,401.5C 154.176,399.141 155.009,396.808 156,394.5C 156.588,397.139 156.088,399.473 154.5,401.5 Z" class="colorad9da0 svgShape"></path><path fill="#94a1a8" d="M 113.5,409.5 C 112.833,406.833 112.167,404.167 111.5,401.5C 112.09,400.234 112.59,398.901 113,397.5C 113.499,401.486 113.666,405.486 113.5,409.5 Z" class="colora69698 svgShape"></path><path fill="#97a4aa" d="M 315.5,401.5 C 314.833,404.167 314.167,406.833 313.5,409.5C 313.335,405.818 313.501,402.152 314,398.5C 314.513,399.527 315.013,400.527 315.5,401.5 Z" class="colora8999b svgShape"></path><path fill="#e6e9ea" d="M 153.5,401.5 C 153.833,401.5 154.167,401.5 154.5,401.5C 154.702,403.989 154.202,406.323 153,408.5C 149.626,405.821 149.793,403.487 153.5,401.5 Z" class="coloreae6e6 svgShape"></path><path fill="#f8f9f9" d="M 111.5,401.5 C 112.167,404.167 112.833,406.833 113.5,409.5C 114.018,423.51 116.351,437.176 120.5,450.5C 113.886,449.105 108.386,445.772 104,440.5C 100.861,433.575 98.028,426.575 95.5,419.5C 101.941,414.398 107.274,408.398 111.5,401.5 Z" class="colorf9f8f9 svgShape"></path><path fill="#f9fafa" d="M 315.5,401.5 C 319.922,408.093 324.922,414.26 330.5,420C 328.79,427.129 326.29,433.962 323,440.5C 306.982,455.957 302.982,453.624 311,433.5C 312.484,425.564 313.318,417.564 313.5,409.5C 314.167,406.833 314.833,404.167 315.5,401.5 Z" class="colorfafafa svgShape"></path><path fill="#ccd3d6" d="M 240.5,404.5 C 241.239,404.369 241.906,404.536 242.5,405C 237.243,410.926 230.91,415.26 223.5,418C 217.277,418.478 212.277,416.144 208.5,411C 220.057,412.942 230.724,410.775 240.5,404.5 Z" class="colorcad3d8 svgShape"></path><path fill="#ccd2d5" d="M 191.5,408.5 C 201.31,413.572 210.643,419.405 219.5,426C 206.07,426.464 196.737,420.63 191.5,408.5 Z" class="colorc9d3d8 svgShape"></path><path fill="#dce1e3" d="M 96.5,409.5 C 97.2389,409.369 97.9056,409.536 98.5,410C 96.9242,412.077 94.9242,413.577 92.5,414.5C 91.1667,413.5 91.1667,412.5 92.5,411.5C 94.0255,411.006 95.3588,410.339 96.5,409.5 Z" class="colore2dddd svgShape"></path><path fill="#ffffff" d="M 145.5,409.5 C 146.497,409.47 147.164,409.97 147.5,411C 146.464,414.121 146.297,417.287 147,420.5C 151.572,423.695 154.405,427.862 155.5,433C 155.577,436.339 154.91,439.505 153.5,442.5C 149.381,440.941 145.381,439.107 141.5,437C 139.673,436.101 138.34,434.767 137.5,433C 139.681,424.956 142.348,417.123 145.5,409.5 Z" class="colorf9f8f8 svgShape"></path><path fill="#eceeef" d="M 152.5,410.5 C 153.743,413.633 154.243,416.967 154,420.5C 152.595,417.381 152.095,414.048 152.5,410.5 Z" class="colorefecec svgShape"></path><path fill="#dbe0e2" d="M 328.5,410.5 C 328.56,409.957 328.893,409.624 329.5,409.5C 331.933,410.023 333.933,411.19 335.5,413C 335.167,413.5 334.833,414 334.5,414.5C 332.21,413.533 330.21,412.2 328.5,410.5 Z" class="colore1dcdd svgShape"></path><path fill="#c4cbcf" d="M 275.5,400.5 C 279.897,402.689 280.564,405.689 277.5,409.5C 279.273,413.584 278.773,417.251 276,420.5C 276.745,413.882 276.578,407.215 275.5,400.5 Z" class="colorcec5c6 svgShape"></path><path fill="#f3f5f6" d="M 283.5,415.5 C 286.652,421.413 288.486,427.746 289,434.5C 283.646,438.229 277.812,440.895 271.5,442.5C 271.829,433.353 275.663,426.02 283,420.5C 283.494,418.866 283.66,417.199 283.5,415.5 Z" class="colorf5f4f4 svgShape"></path><path fill="#cfd5d8" d="M 160.5,429.5 C 163.625,432.234 166.958,434.734 170.5,437C 167.596,436.651 164.93,435.485 162.5,433.5C 161.295,432.423 160.628,431.09 160.5,429.5 Z" class="colord7d0d1 svgShape"></path><path fill="#c9cfd2" d="M 259.5,437.5 C 263.058,435.446 266.225,432.78 269,429.5C 269.265,431.163 268.765,432.663 267.5,434C 264.929,435.454 262.262,436.62 259.5,437.5 Z" class="colord2c9ca svgShape"></path><path fill="#f3f4f5" d="M 160.5,438.5 C 163.301,439.735 165.968,441.235 168.5,443C 171.989,448.579 176.989,451.913 183.5,453C 184.38,454.356 184.714,455.856 184.5,457.5C 176.014,457.77 168.014,455.936 160.5,452C 159.252,447.532 159.252,443.032 160.5,438.5 Z" class="colorf5f3f3 svgShape"></path><path fill="#eceeef" d="M 259.5,437.5 C 257.633,441.052 254.966,443.886 251.5,446C 247.615,446.739 243.948,448.073 240.5,450C 234.833,450.333 229.167,450.667 223.5,451C 217.803,455.59 212.136,455.59 206.5,451C 195.896,451.794 185.896,449.794 176.5,445C 173.884,443.291 172.884,441.124 173.5,438.5C 186.339,445.126 200.006,448.126 214.5,447.5C 230.34,447.789 245.34,444.456 259.5,437.5 Z" class="colorefeced svgShape"></path><path fill="#f5f6f6" d="M 134.5,439.5 C 140.668,442.75 147.002,445.75 153.5,448.5C 152.366,451.07 151.532,453.736 151,456.5C 148.016,453.9 144.516,452.9 140.5,453.5C 140.422,449.344 138.755,446.011 135.5,443.5C 134.571,442.311 134.238,440.978 134.5,439.5 Z" class="colorf6f5f5 svgShape"></path><path fill="#f3f4f5" d="M 290.5,439.5 C 291.586,439.62 292.253,440.287 292.5,441.5C 288.911,444.678 286.911,448.678 286.5,453.5C 282.484,452.9 278.984,453.9 276,456.5C 274.937,454.084 274.104,451.584 273.5,449C 279.343,446.112 285.009,442.945 290.5,439.5 Z" class="colorf5f3f3 svgShape"></path><path fill="#ffffff" d="M 264.5,440.5 C 265.794,442.048 266.461,444.048 266.5,446.5C 266.167,448.5 265.833,450.5 265.5,452.5C 257.789,456.007 249.789,457.341 241.5,456.5C 245.591,453.293 250.258,451.126 255.5,450C 258.704,446.964 261.704,443.797 264.5,440.5 Z" class="colorf7f6f6 svgShape"></path><path fill="#f3f4f5" d="M 193.5,455.5 C 199.103,454.615 204.103,455.782 208.5,459C 214.958,460.301 220.958,459.301 226.5,456C 234.615,453.511 237.615,456.178 235.5,464C 222.542,465.544 209.542,465.877 196.5,465C 194.236,464.764 192.069,464.264 190,463.5C 189.503,461.19 189.337,458.857 189.5,456.5C 191.099,456.768 192.432,456.434 193.5,455.5 Z" class="colorf5f3f3 svgShape"></path><path fill="#f7f8f8" d="M 156.5,456.5 C 164.646,460.663 173.312,462.663 182.5,462.5C 182.384,465.86 182.051,469.193 181.5,472.5C 180.127,472.657 178.793,472.49 177.5,472C 175.252,470.086 172.752,468.586 170,467.5C 163.557,471.1 160.557,469.1 161,461.5C 157.906,461.207 156.406,459.541 156.5,456.5 Z" class="colorf8f7f7 svgShape"></path><path fill="#ffffff" d="M 268.5,456.5 C 269.497,456.47 270.164,456.97 270.5,458C 269.623,459.867 268.123,461.034 266,461.5C 265.503,463.81 265.337,466.143 265.5,468.5C 263.738,468.357 262.071,468.691 260.5,469.5C 259.452,468.617 258.285,467.95 257,467.5C 253.945,469.391 250.778,471.057 247.5,472.5C 246.353,472.182 245.519,471.516 245,470.5C 244.503,467.854 244.336,465.187 244.5,462.5C 253.199,462.793 261.199,460.793 268.5,456.5 Z" class="colorf7f6f6 svgShape"></path><path fill="#f7f8f8" d="M 186.5,468.5 C 203.506,471.108 220.506,471.108 237.5,468.5C 240.897,471.222 241.397,474.556 239,478.5C 236.063,479.632 233.063,479.632 230,478.5C 224.302,481.424 218.802,481.091 213.5,477.5C 210.905,479.216 208.071,480.216 205,480.5C 199.515,479.847 194.015,479.347 188.5,479C 186.737,475.757 186.071,472.257 186.5,468.5 Z" class="colorf8f7f7 svgShape"></path><path fill="#f9fafa" d="M 169.5,473.5 C 172.979,476.234 176.979,477.901 181.5,478.5C 182.602,480.889 184.269,482.723 186.5,484C 191.155,484.499 195.821,484.666 200.5,484.5C 200.5,491.833 200.5,499.167 200.5,506.5C 190.091,508.083 179.757,507.75 169.5,505.5C 168.8,495.135 167.8,484.802 166.5,474.5C 167.791,474.737 168.791,474.404 169.5,473.5 Z" class="colorfaf9fa svgShape"></path><path fill="#fafbfb" d="M 254.5,474.5 C 256.5,474.5 258.5,474.5 260.5,474.5C 259.449,484.834 258.449,495.167 257.5,505.5C 247.215,507.522 236.882,507.855 226.5,506.5C 226.5,499.167 226.5,491.833 226.5,484.5C 231.179,484.666 235.845,484.499 240.5,484C 242.731,482.723 244.398,480.889 245.5,478.5C 247.423,477.692 249.423,477.192 251.5,477C 252.942,476.623 253.942,475.79 254.5,474.5 Z" class="colorfbfafa svgShape"></path><path fill="#ffffff" d="M171.5 511.5C181.228 512.46 190.894 512.794 200.5 512.5 200.578 524.079 202.244 535.412 205.5 546.5 205.333 547.167 205.167 547.833 205 548.5 199.505 545.602 193.671 544.102 187.5 544 182.446 546.389 177.946 549.555 174 553.5 171.894 551.623 170.561 549.29 170 546.5 169.975 538.176 170.141 529.843 170.5 521.5 170.187 517.958 170.521 514.625 171.5 511.5zM254.5 511.5C256.402 514.337 257.069 517.671 256.5 521.5 256.859 529.843 257.025 538.176 257 546.5 256.222 549.184 254.889 551.517 253 553.5 244.397 543.969 234.23 541.969 222.5 547.5 222.167 547 221.833 546.5 221.5 546 224.883 537.496 226.216 528.663 225.5 519.5 226.468 517.393 226.802 515.059 226.5 512.5 229.167 512.5 231.833 512.5 234.5 512.5 241.18 512.388 247.847 512.054 254.5 511.5z" class="colorfcfcfc svgShape"></path><path fill="#000000" d="M 254.5,511.5 C 255.209,510.596 256.209,510.263 257.5,510.5C 257.815,514.371 257.482,518.038 256.5,521.5C 257.069,517.671 256.402,514.337 254.5,511.5 Z" class="colorbcb0b2 svgShape"></path><path fill="#000000" d="M 234.5,512.5 C 231.833,512.5 229.167,512.5 226.5,512.5C 226.802,515.059 226.468,517.393 225.5,519.5C 225.5,516.833 225.5,514.167 225.5,511.5C 228.713,511.19 231.713,511.523 234.5,512.5 Z" class="color9e8c8f svgShape"></path><path fill="#000000" d="M 171.5,511.5 C 170.521,514.625 170.187,517.958 170.5,521.5C 169.192,517.981 169.192,514.315 170.5,510.5C 171.107,510.624 171.44,510.957 171.5,511.5 Z" class="colorb7aaac svgShape"></path><path fill="#f2f4f5" d="M 187.5,549.5 C 193.926,549.252 199.926,550.752 205.5,554C 206.772,556.044 206.439,557.878 204.5,559.5C 197.715,561.856 190.715,562.856 183.5,562.5C 179.833,562.333 176.167,562.167 172.5,562C 170.455,561.07 169.621,559.57 170,557.5C 171.466,559.325 173.299,559.825 175.5,559C 179.399,555.589 183.399,552.422 187.5,549.5 Z" class="colorf4f3f3 svgShape"></path><path fill="#f2f3f4" d="M 232.5,549.5 C 234.857,549.337 237.19,549.503 239.5,550C 243.783,552.615 247.783,555.615 251.5,559C 253.701,559.825 255.534,559.325 257,557.5C 257.47,559.549 256.636,560.883 254.5,561.5C 243.723,563.147 233.057,562.647 222.5,560C 220.964,558.401 220.464,556.567 221,554.5C 224.641,552.089 228.475,550.422 232.5,549.5 Z" class="colorf4f2f3 svgShape"></path></svg></g></svg>