<?xml version="1.0" standalone="no"?>
<!DOCTYPE svg PUBLIC "-//W3C//DTD SVG 20010904//EN"
 "http://www.w3.org/TR/2001/REC-SVG-20010904/DTD/svg10.dtd">
<svg version="1.0" xmlns="http://www.w3.org/2000/svg"
 width="430.000000pt" height="575.000000pt" viewBox="0 0 430.000000 575.000000"
 preserveAspectRatio="xMidYMid meet">

<g transform="translate(0.000000,575.000000) scale(0.100000,-0.100000)"
fill="#000000" stroke="none">
<path d="M1860 5580 c-149 -14 -290 -55 -420 -121 -105 -53 -153 -87 -236
-169 -117 -114 -197 -240 -260 -406 -14 -38 -41 -105 -60 -149 -18 -44 -45
-119 -59 -166 -27 -92 -154 -316 -214 -376 -42 -42 -120 -86 -201 -113 -77
-26 -88 -34 -70 -55 25 -30 270 -10 374 31 15 6 18 4 13 -7 -3 -8 -34 -79 -68
-157 -69 -159 -114 -220 -206 -279 -50 -32 -65 -55 -44 -68 23 -14 257 52 350
99 l49 24 6 -46 c4 -26 11 -101 16 -167 5 -66 15 -162 21 -213 6 -51 9 -112 7
-136 -7 -58 -56 -160 -101 -211 l-35 -40 -16 37 c-9 21 -16 46 -16 56 0 44
-55 54 -151 26 -226 -66 -478 -364 -490 -579 -7 -111 4 -117 92 -51 82 62 156
88 251 88 81 0 146 -22 182 -61 16 -18 16 -22 -18 -69 -91 -126 -115 -256 -82
-434 32 -171 131 -418 167 -418 22 0 22 -2 19 113 -2 86 -1 88 18 78 12 -6 32
-11 45 -11 14 0 31 -9 39 -22 9 -13 26 -22 46 -24 52 -3 116 -65 137 -132 51
-165 130 -239 282 -266 52 -9 57 10 28 97 -34 104 -65 291 -65 395 l1 87 20
-38 c11 -20 49 -69 86 -107 l66 -71 -13 -57 c-8 -31 -24 -84 -37 -116 -29 -76
-29 -94 2 -106 16 -6 33 -26 45 -55 14 -32 26 -46 45 -50 14 -3 35 -7 48 -10
13 -2 36 -16 51 -30 15 -14 36 -25 47 -25 15 0 19 -7 19 -35 0 -29 5 -37 25
-45 16 -6 25 -17 25 -32 0 -13 7 -86 14 -163 14 -148 21 -286 19 -372 -7 -214
-5 -301 5 -326 20 -49 66 -60 227 -55 77 3 155 11 173 18 68 26 76 95 33 275
-21 86 -40 491 -24 510 18 23 72 34 106 22 17 -7 36 -16 40 -22 16 -19 -3
-424 -24 -510 -43 -180 -35 -249 33 -275 18 -7 96 -15 173 -18 113 -3 148 -1
178 11 61 26 61 22 58 418 -1 85 5 227 14 315 8 87 15 167 15 177 0 10 11 22
25 27 20 8 25 16 25 45 0 21 5 35 13 35 6 0 32 14 57 30 25 16 55 30 67 30 39
0 55 12 74 57 12 27 28 47 44 53 31 12 31 30 2 106 -13 32 -29 85 -37 116
l-13 57 66 71 c37 38 75 87 86 107 l20 38 1 -87 c0 -105 -30 -289 -66 -399
-30 -90 -26 -102 31 -92 149 25 229 100 280 265 21 67 85 129 137 132 20 2 37
11 46 24 8 13 25 22 39 22 13 0 33 5 45 11 20 11 20 9 17 -88 -4 -93 -3 -98
17 -101 17 -2 27 12 61 85 121 260 155 514 89 658 -14 32 -42 80 -62 107 -34
47 -34 51 -18 69 36 39 101 61 182 61 95 0 169 -26 251 -88 88 -66 99 -60 92
51 -12 215 -264 513 -490 579 -96 28 -151 18 -151 -26 0 -10 -7 -35 -15 -55
-15 -35 -16 -36 -35 -18 -33 30 -86 116 -103 169 -23 67 -22 198 3 393 11 87
22 168 25 179 l5 22 59 -24 c72 -29 268 -77 281 -69 22 13 8 41 -31 63 -58 34
-116 89 -145 138 -35 59 -124 272 -124 295 0 16 4 17 28 8 78 -30 289 -51 336
-33 9 3 16 14 16 23 0 12 -19 23 -67 39 -116 37 -153 62 -174 116 -9 26 -50
100 -91 164 -56 90 -82 144 -115 241 -48 144 -130 348 -175 436 -62 123 -203
285 -310 357 -117 79 -282 145 -436 174 -80 15 -137 17 -382 10 -25 0 -81 2
-125 5 -44 3 -114 3 -155 -1z m215 -54 c44 -3 117 -2 161 2 161 15 349 -14
506 -78 222 -90 401 -265 509 -494 50 -107 50 -126 -1 -48 -38 60 -65 77 -76
49 -3 -8 17 -50 45 -94 27 -44 75 -131 106 -194 66 -131 110 -209 208 -367 38
-62 68 -114 66 -116 -2 -2 -24 -1 -49 3 l-45 6 -1 54 c-2 63 -28 106 -65 106
-18 0 -25 -6 -27 -25 -8 -71 -36 -95 -74 -66 -27 20 -88 219 -99 321 -12 111
-30 186 -64 256 -35 73 -51 93 -70 86 -21 -8 -19 -33 5 -66 32 -47 68 -171 79
-276 10 -94 5 -285 -7 -285 -3 0 -19 12 -34 27 -22 21 -28 36 -28 70 0 104
-40 288 -91 422 -36 94 -57 125 -78 112 -11 -7 -7 -28 26 -117 46 -122 79
-256 88 -354 l6 -65 -56 60 c-124 133 -240 310 -283 433 -7 22 -17 32 -31 32
-34 0 -26 -36 33 -155 91 -184 269 -397 429 -517 38 -28 73 -62 78 -75 10 -26
25 -28 84 -12 51 14 92 43 116 83 15 25 19 27 19 11 -1 -31 -35 -97 -64 -125
-35 -32 -124 -42 -270 -29 -255 22 -430 101 -585 264 -123 130 -195 264 -241
450 -23 92 -30 110 -46 110 -22 0 -22 -4 -6 -170 6 -60 16 -173 23 -250 27
-337 103 -634 215 -842 43 -80 44 -82 20 -73 -155 58 -323 206 -418 366 -129
220 -208 534 -208 833 0 117 -7 145 -36 134 -8 -3 -14 -16 -14 -30 0 -17 -31
-56 -108 -137 -116 -121 -277 -328 -366 -469 -37 -60 -57 -84 -63 -75 -16 27
-16 234 2 319 18 89 63 200 97 236 21 23 19 53 -5 53 -15 0 -44 -30 -70 -72
-31 -50 -58 -137 -83 -265 -13 -71 -35 -175 -47 -233 l-23 -105 -13 50 c-20
75 -25 257 -12 374 17 140 44 241 91 336 46 93 49 108 18 103 -33 -4 -102
-147 -132 -270 -13 -53 -42 -141 -64 -195 -22 -54 -52 -137 -67 -185 l-26 -87
-62 -30 c-58 -28 -107 -42 -184 -55 -18 -3 -33 -3 -33 1 0 4 31 56 69 117 97
158 140 234 210 374 34 67 82 154 107 193 25 39 43 77 40 85 -11 29 -38 12
-76 -48 -51 -78 -51 -59 -1 47 131 279 350 462 647 540 92 25 252 45 299 39
11 -2 56 -5 100 -8z m-245 -813 c0 -81 34 -299 64 -415 103 -392 319 -657 624
-768 75 -27 87 -29 100 -16 13 13 11 21 -21 64 -33 46 -67 105 -67 116 0 9
101 26 154 26 29 0 76 -7 105 -16 l54 -16 -6 -42 c-4 -24 -2 -47 4 -53 6 -6 6
-19 1 -34 -15 -39 -97 -141 -141 -177 -74 -59 -48 -85 54 -54 36 11 65 18 65
17 0 -8 -93 -56 -141 -74 -285 -106 -812 -105 -1087 3 -78 31 -141 72 -151
100 -5 12 -11 85 -13 162 l-3 139 38 19 c80 38 219 31 370 -20 64 -22 67 -22
67 -4 0 26 -34 56 -101 90 -118 60 -261 77 -334 40 -22 -11 -41 -20 -44 -20
-11 0 12 288 34 413 32 188 38 205 92 279 96 132 247 298 270 298 9 0 13 -17
13 -57z m607 -309 c93 -125 227 -230 354 -278 37 -14 48 -24 52 -45 11 -54 20
-304 11 -299 -77 37 -91 40 -164 36 -41 -3 -102 -15 -135 -26 -74 -26 -71 -28
-119 117 -59 177 -102 401 -121 631 l-6 75 39 -71 c21 -39 61 -102 89 -140z
m-1337 -214 c7 -30 23 -79 36 -108 20 -45 27 -53 46 -50 20 3 24 12 34 88 7
47 13 92 14 100 1 8 11 -12 23 -45 31 -85 45 -83 107 20 29 47 53 85 55 83 2
-2 -6 -52 -17 -113 -18 -94 -21 -154 -22 -405 -1 -308 20 -620 60 -870 5 -34
5 -34 -11 -15 -37 44 -101 166 -142 265 -72 177 -108 348 -119 568 -4 67 -11
125 -16 128 -18 11 -37 -18 -58 -89 -28 -92 -105 -275 -129 -307 l-19 -24 -8
38 c-3 21 -4 125 -1 230 8 258 40 462 110 686 l32 105 6 -115 c4 -63 12 -140
19 -170z m2167 54 c-14 -15 -27 11 -26 54 l1 47 16 -47 c8 -27 13 -51 9 -54z
m-2355 -104 c5 -21 1 -92 -9 -180 l-18 -145 -44 -48 c-27 -29 -71 -61 -115
-82 -64 -32 -166 -68 -166 -60 0 2 14 19 31 37 32 35 71 110 139 270 42 98
114 227 134 240 21 15 40 2 48 -32z m2663 -7 c39 -7 127 -63 100 -63 -63 0
-205 49 -205 71 0 9 22 8 105 -8z m-2826 -4 c-31 -20 -117 -47 -169 -54 l-55
-7 52 34 c45 28 62 33 119 35 44 1 62 -2 53 -8z m2234 -60 c43 -9 57 -16 57
-29 0 -51 -109 -310 -130 -310 -4 0 -2 30 3 68 5 37 7 115 5 175 -2 59 -1 107
3 107 3 0 31 -5 62 -11z m513 -144 c67 -158 108 -237 138 -264 14 -14 26 -28
26 -32 0 -10 -123 32 -175 59 -80 43 -84 48 -95 152 -5 52 -12 122 -16 155 -6
57 -5 62 17 72 32 15 46 -4 105 -142z m-280 25 c13 -52 41 -130 63 -172 21
-43 37 -78 34 -78 -2 0 -18 7 -36 16 -56 29 -116 83 -164 151 l-46 65 13 52
c17 69 16 67 68 64 l45 -3 23 -95z m113 -17 c7 -60 14 -123 17 -140 16 -108
-68 88 -90 210 -7 37 -7 37 27 37 l34 0 12 -107z m-241 -119 c18 -23 32 -47
32 -53 0 -21 -57 -126 -103 -188 -49 -65 -124 -131 -191 -165 l-40 -20 26 31
c39 45 84 128 107 196 11 33 40 96 65 140 26 44 49 88 52 98 3 11 9 15 13 11
4 -5 22 -28 39 -50z m-2211 -171 c-2 -16 -4 -3 -4 27 0 30 2 43 4 28 2 -16 2
-40 0 -55z m2358 37 c3 -5 30 -17 60 -26 l55 -18 -1 -90 c0 -50 -4 -100 -8
-111 -7 -17 -11 -13 -35 27 -23 40 -96 209 -96 223 0 9 19 5 25 -5z m-2104
-165 c23 -177 85 -371 173 -543 25 -49 46 -96 46 -104 0 -9 13 -59 29 -112 15
-53 25 -96 21 -96 -10 0 -54 50 -88 102 -46 68 -80 152 -100 248 -15 72 -20
85 -37 85 -16 0 -22 -11 -32 -65 -19 -97 -18 -330 1 -419 9 -41 14 -76 12 -78
-6 -7 -72 89 -101 147 -40 80 -73 170 -101 282 -26 104 -64 338 -64 398 0 34
0 34 16 12 8 -12 21 -22 28 -22 36 0 97 96 157 245 22 54 24 57 27 30 1 -16 7
-66 13 -110z m2104 -20 c23 -49 54 -101 68 -115 31 -29 32 -37 11 -183 -35
-244 -108 -467 -196 -599 -38 -57 -67 -86 -55 -55 18 48 30 158 31 282 0 146
-16 252 -40 271 -11 9 -9 23 15 90 37 101 79 289 88 390 l6 78 15 -34 c9 -19
34 -75 57 -125z m172 88 c-3 -10 -5 -4 -5 12 0 17 2 24 5 18 2 -7 2 -21 0 -30z
m-307 -60 c-34 -233 -145 -525 -245 -648 -16 -19 -16 -19 -11 15 12 75 35 290
42 387 4 56 9 105 13 110 3 4 32 30 64 57 32 26 77 75 99 107 23 32 43 57 46
55 2 -3 -2 -40 -8 -83z m-1607 -258 c63 -36 169 -71 271 -91 70 -14 84 -19 69
-28 -10 -5 -32 -9 -50 -8 -21 2 -38 -4 -50 -17 -19 -21 -19 -20 -56 5 -21 14
-56 32 -79 40 -41 14 -42 14 -71 -13 -16 -16 -37 -41 -47 -56 l-18 -29 -6 84
c-4 46 -9 95 -12 111 -3 15 -4 27 -1 27 2 0 25 -11 50 -25z m1343 -2 c-2 -16
-8 -63 -11 -107 l-7 -78 -18 28 c-9 16 -31 41 -47 57 -27 25 -32 26 -64 15
-19 -6 -54 -24 -79 -39 l-45 -28 -22 21 c-17 16 -30 19 -55 14 -18 -3 -39 -2
-46 3 -8 5 20 14 74 25 102 20 209 56 267 90 55 31 60 31 53 -1z m559 -253
c62 -173 276 -333 513 -381 34 -7 62 -16 62 -19 0 -9 -100 -57 -145 -69 -88
-24 -216 -2 -301 50 -38 23 -74 25 -74 4 0 -30 29 -73 140 -206 62 -75 125
-162 143 -198 31 -63 32 -70 31 -186 -1 -124 -26 -247 -72 -355 l-19 -45 -5
110 c-4 77 -12 128 -27 170 -27 76 -71 140 -96 140 -19 0 -20 -6 -16 -85 l3
-84 -44 36 c-24 20 -60 43 -78 50 -19 8 -40 21 -46 29 -6 8 -46 92 -89 187
-85 188 -80 183 -147 157 -12 -5 -26 8 -56 52 l-39 58 51 52 c111 113 207 330
258 583 l23 115 7 -60 c4 -33 14 -80 23 -105z m-1359 116 c54 -25 71 -41 55
-51 -6 -3 -33 -46 -62 -96 -37 -64 -55 -86 -61 -77 -19 28 -88 168 -88 179 0
6 10 24 23 39 28 36 64 38 133 6z m338 -7 c14 -17 26 -35 26 -40 0 -11 -34
-80 -73 -147 l-24 -43 -62 102 c-33 56 -60 103 -58 104 1 2 25 14 52 28 69 36
107 35 139 -4z m369 -21 c37 -50 41 -73 18 -105 -12 -15 -24 -49 -27 -75 -6
-39 -3 -49 15 -64 14 -13 21 -30 21 -56 0 -45 -8 -47 -50 -12 -17 15 -48 32
-68 39 -32 12 -38 18 -45 55 -10 49 -5 54 58 70 62 17 65 18 65 35 0 25 -28
29 -85 13 l-53 -15 -7 34 c-3 18 -3 38 0 43 8 14 107 70 122 70 7 0 23 -15 36
-32z m-1106 -8 c62 -36 66 -41 58 -83 l-7 -33 -59 15 c-44 12 -61 13 -70 4
-19 -19 -3 -40 36 -47 48 -9 85 -27 85 -40 0 -6 -5 -27 -10 -47 -8 -28 -17
-38 -38 -42 -15 -3 -45 -19 -66 -36 -21 -17 -43 -31 -47 -31 -5 0 -9 17 -9 38
0 26 7 43 21 56 18 15 21 25 15 64 -3 26 -15 60 -27 75 -13 19 -18 35 -13 50
9 31 53 87 67 87 7 0 35 -14 64 -30z m239 -192 c-17 -3 -41 -9 -52 -13 -12 -4
-25 -2 -28 3 -6 10 9 141 20 172 4 9 22 -18 49 -70 l43 -85 -32 -7z m602 86
c15 -98 9 -115 -33 -96 -14 7 -37 12 -51 12 -14 0 -24 4 -22 8 13 33 84 162
88 162 4 0 12 -39 18 -86z m49 34 c-3 -8 -6 -5 -6 6 -1 11 2 17 5 13 3 -3 4
-12 1 -19z m477 -40 c-26 -111 -129 -298 -155 -282 -24 14 -1 82 54 160 30 44
66 103 81 132 14 28 28 52 30 52 2 0 -2 -28 -10 -62z m-1247 30 c-3 -8 -6 -5
-6 6 -1 11 2 17 5 13 3 -3 4 -12 1 -19z m458 -71 c46 -75 48 -81 30 -91 -17
-10 -37 -29 -82 -78 -9 -10 -19 -18 -23 -18 -4 0 -14 8 -23 18 -45 49 -65 68
-82 78 -18 10 -16 15 28 91 41 69 51 80 75 80 24 0 34 -11 77 -80z m-1299 -28
c54 -198 140 -356 249 -457 l62 -58 -30 -43 c-24 -35 -33 -41 -51 -36 -65 20
-57 29 -141 -157 -43 -95 -83 -179 -89 -187 -6 -8 -27 -21 -46 -29 -19 -8 -55
-30 -79 -50 l-43 -35 3 84 c4 78 3 84 -16 84 -25 0 -69 -64 -96 -140 -15 -42
-23 -93 -27 -170 l-5 -110 -19 45 c-46 108 -71 231 -72 355 -1 116 0 123 31
186 18 36 81 123 143 198 61 73 117 146 125 162 32 61 11 79 -50 44 -108 -62
-224 -79 -326 -49 -53 16 -129 54 -129 64 0 4 28 12 63 19 201 41 423 190 488
327 13 28 25 50 27 49 1 -1 14 -44 28 -96z m1621 54 c-3 -10 -5 -4 -5 12 0 17
2 24 5 18 2 -7 2 -21 0 -30z m-790 -10 c-3 -10 -5 -4 -5 12 0 17 2 24 5 18 2
-7 2 -21 0 -30z m1042 -57 c-9 -8 -10 -5 -5 14 3 14 6 32 7 40 1 8 4 2 6 -14
3 -16 -1 -34 -8 -40z m-1290 -1 c1 -17 -1 -17 -9 -5 -5 8 -9 26 -9 40 0 23 1
23 9 5 5 -11 9 -29 9 -40z m-844 -7 c11 -29 21 -56 23 -60 4 -8 -63 -52 -139
-89 -66 -33 -179 -65 -262 -75 -76 -9 -84 -26 -31 -71 34 -29 89 -60 184 -102
23 -10 22 -10 -11 -5 -72 11 -245 -42 -301 -93 -17 -15 -18 -14 -18 9 0 42 38
138 84 212 93 148 222 261 346 303 96 33 102 32 125 -29z m1892 20 c-3 -7 -5
-2 -5 12 0 14 2 19 5 13 2 -7 2 -19 0 -25z m1195 12 c124 -38 260 -156 354
-306 46 -74 84 -170 84 -212 0 -23 -1 -24 -18 -9 -56 51 -229 104 -301 93 -33
-5 -34 -5 -11 5 95 42 150 73 184 102 53 45 45 62 -31 71 -83 10 -196 42 -262
75 -76 37 -143 81 -139 89 2 4 12 31 23 60 23 60 26 60 117 32z m-2005 -22
c-3 -7 -5 -2 -5 12 0 14 2 19 5 13 2 -7 2 -19 0 -25z m-473 -157 c15 -24 46
-63 68 -87 l41 -45 -58 -84 c-32 -47 -61 -82 -66 -80 -12 8 -47 122 -58 190
-11 64 -14 136 -12 225 l2 55 27 -65 c16 -36 41 -85 56 -109z m1783 45 c-7
-109 -25 -222 -45 -275 -9 -25 -10 -24 -45 25 -20 27 -44 63 -53 80 -17 32
-17 32 18 75 35 43 89 141 103 187 3 12 11 22 17 22 8 0 9 -35 5 -114z m-1131
56 c6 -4 13 -15 17 -24 3 -10 16 -18 27 -18 11 0 20 -5 20 -11 0 -7 -7 -8 -17
-4 -10 4 -45 10 -78 12 -88 6 -96 11 -55 33 37 20 68 25 86 12z m528 -9 c47
-22 37 -33 -29 -33 -30 0 -65 -4 -79 -10 -16 -6 -27 -6 -31 0 -4 6 3 10 13 10
11 0 27 11 36 25 19 29 42 31 90 8z m-691 -18 c3 -21 -1 -29 -23 -40 -26 -14
-27 -13 -22 13 9 52 37 68 45 27z m805 13 c7 -7 12 -22 12 -34 0 -32 38 -76
61 -69 14 5 20 0 25 -19 7 -28 0 -56 -14 -56 -4 0 -14 15 -20 34 -12 31 -64
88 -90 97 -11 4 -4 59 7 59 4 0 12 -5 19 -12z m-1098 -80 c0 -31 -18 -29 -29
4 -14 40 -14 40 9 26 11 -7 20 -20 20 -30z m590 6 c0 -16 -16 -19 -25 -4 -8
13 4 32 16 25 5 -4 9 -13 9 -21z m199 0 c-14 -18 -24 -11 -15 11 3 9 11 13 16
10 8 -5 7 -11 -1 -21z m-281 -30 c29 -14 77 -48 106 -75 30 -27 57 -49 61 -49
4 0 30 20 58 45 29 25 79 59 111 75 100 50 209 37 260 -32 26 -36 30 -159 5
-183 -30 -30 -131 -39 -288 -25 -115 10 -174 10 -291 0 -157 -14 -259 -5 -288
24 -24 23 -20 150 5 184 49 67 167 83 261 36z m-313 -3 c3 -6 -1 -25 -9 -43
-11 -27 -15 -30 -21 -15 -14 34 12 86 30 58z m-144 -65 c-1 -14 -1 -38 -2 -52
-2 -54 70 -116 111 -94 15 8 20 8 20 -1 0 -13 -106 -158 -203 -277 l-59 -73
-38 35 c-22 19 -57 47 -80 62 -22 15 -39 31 -38 35 11 32 275 406 281 399 5
-4 9 -20 8 -34z m1409 -156 c74 -110 136 -204 138 -209 1 -4 -16 -20 -38 -35
-23 -15 -58 -43 -80 -62 l-38 -35 -59 73 c-100 123 -213 276 -213 289 0 7 7 8
18 4 38 -16 49 -15 76 6 36 29 60 83 47 108 -10 18 -4 61 8 61 3 0 67 -90 141
-200z m-1301 69 c-34 -22 -66 11 -55 55 l6 26 32 -36 c26 -29 29 -37 17 -45z
m1101 47 c0 -30 -23 -49 -50 -41 -20 6 -20 7 7 39 31 36 43 37 43 2z m-2007
-119 c-10 -12 -33 -42 -52 -65 l-35 -42 -25 24 c-14 14 -46 34 -71 45 l-45 21
65 0 c36 1 87 9 115 19 67 25 69 24 48 -2z m2916 -3 c24 -8 72 -14 105 -14
l61 0 -45 -21 c-25 -11 -57 -31 -71 -45 l-25 -24 -35 42 c-80 99 -76 93 -54
84 11 -5 40 -15 64 -22z m-786 -346 c25 -32 27 -39 15 -58 -12 -20 -6 -28 95
-123 59 -56 108 -110 107 -119 0 -34 -52 -126 -101 -182 -28 -31 -54 -56 -58
-56 -9 0 -41 66 -41 86 0 8 -11 30 -24 47 -13 18 -27 43 -31 57 -4 14 -22 42
-40 62 -43 51 -112 179 -141 262 -21 60 -24 88 -24 204 l0 134 108 -139 c59
-76 120 -155 135 -175z m-1198 -54 c-20 -54 -39 -110 -42 -124 -3 -14 -17 -41
-32 -60 -51 -66 -89 -125 -138 -218 l-50 -93 -56 61 c-54 60 -107 152 -107
188 -1 9 48 63 107 119 101 95 107 103 95 123 -8 13 -10 26 -4 33 32 43 192
250 221 287 l36 45 3 -131 c3 -128 2 -132 -33 -230z m785 331 l115 0 6 -135
c4 -105 11 -149 28 -198 13 -35 22 -65 20 -67 -13 -13 -308 -35 -463 -35 -194
0 -435 16 -449 30 -5 4 3 44 17 89 22 69 26 101 26 201 l0 120 88 -6 c48 -3
121 -1 162 5 43 6 131 7 205 3 72 -4 182 -7 245 -7z m-1230 -192 c61 -36 170
-132 170 -150 0 -5 -63 -66 -139 -137 -103 -96 -141 -137 -145 -159 -9 -42
-56 -103 -67 -86 -6 11 -20 9 -71 -8 -60 -21 -91 -27 -131 -24 -16 1 -16 3 -3
29 8 16 22 34 30 41 20 17 20 40 0 48 -9 3 -28 -7 -49 -27 -25 -24 -45 -34
-79 -37 -25 -3 -46 -3 -46 0 0 3 47 44 105 91 67 54 118 88 139 91 31 6 37 14
79 108 102 228 117 257 129 257 8 0 43 -17 78 -37z m2053 -145 c77 -170 81
-177 113 -183 21 -3 72 -38 139 -91 58 -47 105 -88 105 -91 0 -3 -21 -3 -46 0
-34 3 -54 13 -79 37 -21 20 -40 30 -49 27 -20 -8 -20 -31 0 -48 8 -7 22 -25
30 -41 13 -26 13 -28 -3 -29 -40 -3 -71 3 -131 24 -51 17 -65 19 -71 8 -11
-17 -58 44 -67 86 -4 22 -42 63 -145 159 -76 71 -139 132 -139 137 0 33 213
192 249 185 7 -2 49 -83 94 -180z m-615 -125 c-11 -56 -402 -97 -700 -74 -177
14 -281 38 -286 64 -3 16 1 18 25 13 138 -29 584 -35 788 -11 71 9 131 18 134
20 2 3 13 5 23 5 13 0 18 -6 16 -17z m47 -145 c17 -52 29 -115 32 -168 5 -83
4 -86 -26 -127 -91 -125 -298 -203 -539 -203 -237 0 -434 74 -523 198 -31 42
-34 54 -33 112 0 58 33 206 52 238 6 9 23 9 78 -3 238 -51 720 -40 883 20 20
8 39 14 42 14 4 1 19 -36 34 -81z m-1997 -9 c-19 -12 -21 6 -6 48 l13 38 3
-39 c2 -24 -2 -42 -10 -47z m2922 9 c0 -11 -5 -15 -15 -12 -10 4 -15 19 -14
48 l1 41 13 -30 c8 -16 14 -38 15 -47z m-2046 -50 c-21 -82 -27 -160 -15 -203
l10 -40 -20 24 c-16 20 -19 33 -13 64 4 25 1 48 -7 63 -11 21 -10 27 9 47 11
12 24 36 28 52 7 31 13 45 19 45 2 0 -3 -24 -11 -52z m1193 -10 c-3 -8 -6 -5
-6 6 -1 11 2 17 5 13 3 -3 4 -12 1 -19z m-1593 -323 c9 -44 23 -104 32 -133 8
-30 13 -56 10 -59 -11 -11 -81 22 -118 55 -46 41 -61 69 -99 175 l-27 77 51
49 c29 27 68 74 87 103 l35 54 6 -120 c4 -67 14 -157 23 -201z m2105 162 l50
-46 -28 -78 c-38 -106 -53 -134 -99 -175 -36 -33 -107 -66 -118 -55 -3 2 4 38
15 78 30 111 51 253 51 353 l0 88 40 -59 c22 -33 62 -81 89 -106z m-477 83
c-8 -14 -10 -37 -6 -68 4 -34 2 -51 -7 -59 -12 -9 -14 6 -14 88 0 98 0 98 20
79 17 -17 18 -23 7 -40z m-1820 -50 c-35 -33 -52 -38 -52 -16 0 7 17 20 38 29
51 21 51 20 14 -13z m501 -30 c-6 -50 -5 -51 42 -96 46 -44 47 -47 47 -106 0
-33 -5 -65 -10 -70 -7 -7 -30 -1 -74 20 -99 47 -102 50 -88 103 18 66 72 199
81 199 4 0 5 -23 2 -50z m1856 39 c17 -6 31 -17 31 -25 0 -21 -15 -17 -47 11
-32 28 -29 30 16 14z m-448 -154 c21 -76 21 -79 3 -93 -26 -19 -136 -72 -151
-72 -18 0 -16 51 2 74 8 11 15 30 15 42 0 14 17 39 45 65 30 29 45 51 45 68 1
39 15 9 41 -84z m-1079 -153 c266 -111 649 -74 851 82 37 28 48 33 45 19 -2
-10 -25 -30 -52 -45 -27 -14 -63 -42 -80 -62 -45 -51 -147 -88 -244 -86 -59 1
-77 -3 -99 -19 -35 -28 -101 -28 -136 0 -22 16 -39 20 -99 18 -47 -1 -85 4
-108 14 -19 8 -53 21 -75 29 -25 8 -48 26 -60 45 -11 17 -41 41 -68 54 -42 20
-67 44 -67 63 0 3 27 -14 60 -38 32 -24 92 -57 132 -74z m-92 -44 c24 -27 52
-45 90 -58 40 -13 55 -24 55 -37 0 -16 -8 -18 -67 -16 -42 2 -89 11 -125 25
-53 21 -58 26 -61 57 -2 19 -1 50 3 68 l6 33 32 -16 c18 -9 48 -34 67 -56z
m-178 -20 c7 -3 5 -18 -4 -46 -13 -39 -16 -41 -34 -27 -10 8 -33 15 -51 15
-27 0 -32 4 -38 32 -4 17 -19 41 -32 54 -15 14 -23 30 -20 39 5 12 21 8 87
-25 45 -21 86 -40 92 -42z m1394 67 c4 -9 -4 -25 -19 -39 -13 -13 -28 -37 -32
-54 -6 -27 -11 -32 -36 -32 -16 0 -40 -7 -53 -15 -23 -15 -24 -15 -38 29 l-15
44 36 11 c20 6 59 24 86 40 60 34 64 35 71 16z m-250 -40 c3 -25 4 -51 1 -59
-14 -36 -267 -91 -255 -55 2 8 36 26 74 42 48 19 82 41 111 72 23 25 47 45 52
45 5 0 13 -20 17 -45z m-613 -122 c14 -14 37 -18 92 -18 55 0 78 4 92 18 13
11 36 17 72 17 l52 0 -3 -42 c-3 -42 -4 -43 -48 -51 -53 -9 -377 -4 -402 8
-27 11 -24 63 5 75 39 16 119 12 140 -7z m647 -3 c0 -12 -10 -25 -25 -32 -19
-9 -25 -19 -25 -44 0 -28 -4 -33 -30 -39 -17 -4 -36 -2 -43 4 -10 7 -24 3 -53
-14 -51 -32 -72 -32 -79 0 -3 14 -7 36 -10 50 -5 23 -2 25 27 25 48 0 153 27
196 50 20 10 38 19 40 20 1 0 2 -9 2 -20z m-1050 -19 c30 -11 81 -23 113 -27
62 -7 63 -10 51 -73 -8 -38 -25 -39 -78 -6 -29 17 -43 21 -53 14 -7 -6 -26 -8
-43 -4 -26 6 -30 11 -30 39 0 25 -6 35 -25 44 -14 6 -25 19 -25 28 0 18 0 18
90 -15z m480 -106 c96 0 194 3 217 8 42 7 42 7 48 -27 11 -54 -8 -77 -58 -75
-23 0 -67 -2 -98 -6 -45 -6 -61 -4 -83 10 -25 16 -27 16 -52 0 -22 -14 -38
-16 -83 -10 -31 4 -73 6 -94 6 -22 -1 -45 3 -53 10 -14 12 -20 80 -7 92 3 4
25 3 47 -1 23 -4 120 -7 216 -7z m-403 -55 c14 -11 36 -20 50 -20 14 0 35 -13
54 -35 29 -32 34 -34 102 -37 50 -2 72 -7 71 -15 -1 -7 -2 -55 -2 -107 l-2
-94 -65 -7 c-62 -7 -230 6 -242 19 -6 5 -31 232 -33 288 0 9 8 19 18 21 9 3
19 5 20 6 2 0 15 -8 29 -19z m871 5 c5 -5 -24 -294 -31 -301 -12 -13 -180 -26
-242 -19 l-65 7 -1 94 c-1 52 -2 100 -3 107 -1 8 21 13 71 15 68 3 73 5 102
37 19 22 40 35 55 35 13 0 34 9 47 20 20 16 51 19 67 5z m-728 -369 c71 -1
128 -5 132 -11 4 -5 8 -50 8 -100 0 -57 8 -117 20 -164 11 -41 20 -78 20 -81
0 -4 -26 2 -57 13 -32 10 -73 19 -90 19 -35 0 -106 -37 -137 -71 -53 -59 -69
-8 -71 221 l-2 188 26 -7 c14 -4 82 -7 151 -7z m695 -173 c-2 -230 -18 -281
-71 -222 -29 32 -99 70 -131 71 -15 1 -54 -7 -87 -16 -32 -10 -60 -15 -62 -13
-2 2 5 37 16 78 12 46 20 107 20 161 0 47 3 93 6 101 4 12 22 14 87 10 65 -3
165 4 218 16 3 0 5 -83 4 -186z m-546 -232 c22 -12 41 -26 41 -32 0 -51 -76
-72 -241 -67 -84 2 -112 7 -119 18 -14 21 -12 36 2 22 20 -20 46 -14 85 21 72
63 84 69 139 64 28 -3 70 -15 93 -26z m391 12 c14 -9 42 -31 63 -50 39 -35 65
-41 85 -21 14 14 16 -1 2 -22 -7 -11 -35 -16 -119 -18 -165 -5 -241 16 -241
67 0 11 49 39 90 52 43 13 95 10 120 -8z"/>
<path d="M2250 3435 c-41 -8 -135 -17 -207 -21 -132 -7 -133 -7 -133 -31 0
-13 11 -35 24 -48 69 -69 321 -63 398 10 44 41 51 107 11 104 -10 -1 -52 -7
-93 -14z m35 -65 c-3 -5 -11 -10 -16 -10 -6 0 -7 5 -4 10 3 6 11 10 16 10 6 0
7 -4 4 -10z m-66 -9 c8 -5 9 -11 3 -15 -16 -10 -141 -10 -192 0 l-45 9 55 6
c87 9 164 9 179 0z"/>
<path d="M2130 2065 c0 -8 5 -15 10 -15 6 0 10 7 10 15 0 8 -4 15 -10 15 -5 0
-10 -7 -10 -15z"/>
</g>
</svg>
