<?xml version="1.0" encoding="UTF-8"?>
<!DOCTYPE svg PUBLIC "-//W3C//DTD SVG 1.1//EN" "http://www.w3.org/Graphics/SVG/1.1/DTD/svg11.dtd">
<svg xmlns="http://www.w3.org/2000/svg" version="1.1" width="500px" height="500px" style="shape-rendering:geometricPrecision; text-rendering:geometricPrecision; image-rendering:optimizeQuality; fill-rule:evenodd; clip-rule:evenodd" xmlns:xlink="http://www.w3.org/1999/xlink">
<g><path style="opacity:1" fill="#8b8b8b" d="M 305.5,72.5 C 307.628,71.3709 309.961,71.2042 312.5,72C 311.956,72.7172 311.289,73.2172 310.5,73.5C 309.081,72.5489 307.415,72.2155 305.5,72.5 Z"/></g>
<g><path style="opacity:1" fill="#fcfcfc" d="M 305.5,72.5 C 307.415,72.2155 309.081,72.5489 310.5,73.5C 298.392,83.4439 288.225,95.1105 280,108.5C 267.776,127.611 257.11,147.611 248,168.5C 244.711,177.654 242.045,186.987 240,196.5C 230.872,248.266 221.206,299.933 211,351.5C 207.134,367.963 202.801,384.297 198,400.5C 196.789,403.759 194.956,406.592 192.5,409C 182.888,413.139 173.554,417.806 164.5,423C 160.848,423.897 157.181,424.73 153.5,425.5C 151.272,424.781 149.439,423.448 148,421.5C 144,414.167 140,406.833 136,399.5C 127.031,358.925 115.031,319.259 100,280.5C 96.0105,271.18 91.0105,262.513 85,254.5C 75.0656,242.563 64.3989,231.23 53,220.5C 51.1952,217.878 51.1952,215.211 53,212.5C 61.232,198.635 72.3987,187.802 86.5,180C 94.0451,176.061 101.712,172.394 109.5,169C 112.468,168.306 115.468,167.806 118.5,167.5C 120.808,167.365 122.808,168.031 124.5,169.5C 129.949,219.581 140.449,268.581 156,316.5C 159.207,323.086 163.041,329.253 167.5,335C 168.944,335.781 170.277,335.614 171.5,334.5C 179.681,311.435 185.514,287.768 189,263.5C 195.172,216.007 197.505,168.341 196,120.5C 208.949,109.268 223.449,100.435 239.5,94C 261.055,85.3146 283.055,78.1479 305.5,72.5 Z"/></g>
<g><path style="opacity:1" fill="#fbfbfb" d="M 355.5,119.5 C 372.105,119.52 388.439,121.687 404.5,126C 416.833,129.667 429.167,133.333 441.5,137C 449.516,139.225 457.183,142.225 464.5,146C 451.234,148.178 437.901,149.844 424.5,151C 417.914,152.229 411.581,154.229 405.5,157C 403.291,158.873 401.458,161.04 400,163.5C 396.522,174.081 393.355,184.748 390.5,195.5C 389.167,195.833 387.833,196.167 386.5,196.5C 375.248,194.343 363.915,193.509 352.5,194C 343.814,195.018 338.648,199.851 337,208.5C 335.696,214.423 335.196,220.423 335.5,226.5C 324.716,224.185 314.05,221.351 303.5,218C 295.057,217.198 286.724,217.865 278.5,220C 270.232,223.552 261.732,226.385 253,228.5C 249.415,227.929 246.581,226.096 244.5,223C 245.868,221.127 247.534,219.46 249.5,218C 269.971,206.544 288.471,192.378 305,175.5C 306.927,172.052 308.261,168.385 309,164.5C 310.764,153.204 311.93,141.871 312.5,130.5C 321.652,127.838 330.652,124.671 339.5,121C 345.016,120.827 350.349,120.327 355.5,119.5 Z"/></g>
</svg>
