<?xml version="1.0" encoding="UTF-8"?>
<!DOCTYPE svg PUBLIC "-//W3C//DTD SVG 1.1//EN" "http://www.w3.org/Graphics/SVG/1.1/DTD/svg11.dtd">
<svg xmlns="http://www.w3.org/2000/svg" version="1.1" width="868px" height="862px" style="shape-rendering:geometricPrecision; text-rendering:geometricPrecision; image-rendering:optimizeQuality; fill-rule:evenodd; clip-rule:evenodd" xmlns:xlink="http://www.w3.org/1999/xlink">
<g><path style="opacity:1" fill="#080f07" d="M 376.5,-0.5 C 413.5,-0.5 450.5,-0.5 487.5,-0.5C 526.375,4.7703 559.375,21.437 586.5,49.5C 586.738,51.4044 587.738,52.7377 589.5,53.5C 590.5,53.8333 591.167,54.5 591.5,55.5C 591.427,57.0269 592.094,58.0269 593.5,58.5C 598.27,63.6068 602.27,69.2734 605.5,75.5C 605.427,77.0269 606.094,78.0269 607.5,78.5C 619.87,99.9212 629.537,122.588 636.5,146.5C 636.41,149.152 637.076,151.485 638.5,153.5C 640.263,157.96 641.763,162.627 643,167.5C 646.113,172.729 648.947,178.062 651.5,183.5C 651.427,185.027 652.094,186.027 653.5,186.5C 654.89,187.899 655.89,189.566 656.5,191.5C 656.427,193.027 657.094,194.027 658.5,194.5C 660.192,196.205 661.525,198.205 662.5,200.5C 662.427,202.027 663.094,203.027 664.5,203.5C 664.427,205.027 665.094,206.027 666.5,206.5C 669.115,211.502 671.449,216.669 673.5,222C 683.62,228.658 694.62,233.491 706.5,236.5C 709.632,240.143 708.966,242.643 704.5,244C 686.237,247.045 668.404,245.545 651,239.5C 654.506,257.844 661.339,274.844 671.5,290.5C 672.419,293.089 674.086,295.089 676.5,296.5C 683.439,301.595 690.272,306.928 697,312.5C 697.667,313.833 697.667,315.167 697,316.5C 685.842,317.501 675.009,316.168 664.5,312.5C 662.485,311.076 660.152,310.41 657.5,310.5C 652.31,309.381 647.477,307.381 643,304.5C 637.898,330.083 635.065,355.917 634.5,382C 636.623,397.412 643.123,410.579 654,421.5C 657.338,415.985 659.171,409.985 659.5,403.5C 688.64,402.206 712.307,412.873 730.5,435.5C 730.738,437.404 731.738,438.738 733.5,439.5C 734.5,439.833 735.167,440.5 735.5,441.5C 735.427,443.027 736.094,444.027 737.5,444.5C 740.605,447.275 742.938,450.608 744.5,454.5C 744.427,456.027 745.094,457.027 746.5,457.5C 757.529,473.427 762.362,491.094 761,510.5C 755.825,513.783 751.658,512.783 748.5,507.5C 748.027,506.094 747.027,505.427 745.5,505.5C 724.178,489.756 702.011,488.423 679,501.5C 678.333,502.833 678.333,504.167 679,505.5C 688.673,517.514 694.506,531.18 696.5,546.5C 696.5,547.5 696.5,548.5 696.5,549.5C 693.545,548.841 690.545,548.508 687.5,548.5C 687.794,542.972 686.961,537.639 685,532.5C 673.281,513.102 659.614,495.102 644,478.5C 640.482,474.114 638.649,469.114 638.5,463.5C 641.187,463.336 643.854,463.503 646.5,464C 670.794,479.527 694.794,479.193 718.5,463C 688.163,457.417 662.33,443.584 641,421.5C 630.291,407 624.958,390.666 625,372.5C 621.019,397.089 615.019,421.089 607,444.5C 598.932,462.233 588.098,478.067 574.5,492C 577.083,497.838 580.416,503.171 584.5,508C 588.67,508.812 592.67,508.312 596.5,506.5C 597.554,506.68 598.554,507.013 599.5,507.5C 608.117,526.735 617.284,545.735 627,564.5C 632.504,566.673 637.504,569.673 642,573.5C 641.782,576.179 641.115,578.845 640,581.5C 634.073,576.535 627.406,572.869 620,570.5C 619.667,566.167 619.333,561.833 619,557.5C 617.208,553.872 614.375,551.539 610.5,550.5C 605.824,538.983 600.491,527.817 594.5,517C 592.5,516.333 590.5,516.333 588.5,517C 578.206,522.73 568.706,529.564 560,537.5C 557.216,540.717 555.882,544.384 556,548.5C 558.205,551.04 560.705,553.207 563.5,555C 560.57,556.318 557.57,556.985 554.5,557C 551.667,554.167 548.833,551.333 546,548.5C 545.75,545.047 546.083,541.714 547,538.5C 533.825,522.136 520.658,505.803 507.5,489.5C 507.217,488.711 506.717,488.044 506,487.5C 505.175,497.342 505.342,507.009 506.5,516.5C 506.593,530.949 510.259,544.449 517.5,557C 513.698,555.858 509.698,555.358 505.5,555.5C 503.758,547.039 501.591,538.706 499,530.5C 498.776,517.782 497.943,505.115 496.5,492.5C 471.603,493.01 446.77,492.01 422,489.5C 405.269,492.611 388.435,493.278 371.5,491.5C 370.856,501.865 369.856,512.199 368.5,522.5C 366.833,523.167 365.167,523.833 363.5,524.5C 362.844,512.147 362.011,499.813 361,487.5C 348.265,505.571 334.765,523.071 320.5,540C 322.393,542.917 322.893,546.084 322,549.5C 312.287,559.714 302.121,569.381 291.5,578.5C 287.139,579.455 282.806,579.955 278.5,580C 290.846,568.988 302.512,557.321 313.5,545C 303.787,531.27 290.787,521.604 274.5,516C 272.32,513.755 269.987,511.755 267.5,510C 269.411,506.476 272.078,505.809 275.5,508C 278.167,508.667 280.833,508.667 283.5,508C 286.691,504.31 289.691,500.477 292.5,496.5C 274.618,483.122 261.451,466.122 253,445.5C 248.394,431.016 243.394,416.683 238,402.5C 230.79,418.714 219.624,431.547 204.5,441C 187.623,451.937 169.29,459.27 149.5,463C 163.665,473.815 179.665,477.482 197.5,474C 207.649,471.838 216.982,467.838 225.5,462C 226.784,461.316 227.951,461.483 229,462.5C 229.186,467.828 227.852,472.828 225,477.5C 210.823,493.494 197.656,510.161 185.5,527.5C 184.26,524.804 182.593,522.471 180.5,520.5C 180.5,519.833 180.5,519.167 180.5,518.5C 182.825,513.853 185.659,509.52 189,505.5C 189.667,504.5 189.667,503.5 189,502.5C 179.658,493.387 168.491,489.887 155.5,492C 139.997,494.491 126.664,501.157 115.5,512C 113.5,512.667 111.5,512.667 109.5,512C 107.923,509.436 106.923,506.603 106.5,503.5C 107.044,496.973 108.044,490.64 109.5,484.5C 110.924,482.485 111.59,480.152 111.5,477.5C 113.182,470.471 116.182,464.138 120.5,458.5C 121.906,458.027 122.573,457.027 122.5,455.5C 122.328,454.508 122.662,453.842 123.5,453.5C 124.906,453.027 125.573,452.027 125.5,450.5C 126.072,448.745 126.906,447.078 128,445.5C 130.668,441.666 133.835,438.333 137.5,435.5C 139.833,433.833 141.833,431.833 143.5,429.5C 144.167,428.167 145.167,427.167 146.5,426.5C 148.749,425.92 150.415,424.587 151.5,422.5C 162.319,413.592 174.652,407.592 188.5,404.5C 195.255,404.207 201.922,404.54 208.5,405.5C 209.625,411.04 211.458,416.373 214,421.5C 225.395,410.017 232.229,396.183 234.5,380C 230.479,354.645 227.812,329.145 226.5,303.5C 226.762,302.022 226.429,300.689 225.5,299.5C 224.893,299.624 224.56,299.957 224.5,300.5C 205.472,311.892 184.805,317.059 162.5,316C 161.483,314.951 161.316,313.784 162,312.5C 164.069,310.915 166.236,309.581 168.5,308.5C 170.749,307.92 172.415,306.587 173.5,304.5C 173.5,303.833 173.833,303.5 174.5,303.5C 177.427,302.243 179.761,300.243 181.5,297.5C 183.5,294.833 185.833,292.5 188.5,290.5C 189.906,290.027 190.573,289.027 190.5,287.5C 197.502,272.162 204.502,256.829 211.5,241.5C 212.885,240.698 212.718,240.031 211,239.5C 210.235,239.57 209.735,239.903 209.5,240.5C 191.82,244.96 173.82,246.626 155.5,245.5C 154.791,244.596 153.791,244.263 152.5,244.5C 152.5,242.833 152.5,241.167 152.5,239.5C 152.33,238.178 152.663,237.011 153.5,236C 170.937,231.868 186.104,223.701 199,211.5C 201.275,207.268 203.775,203.268 206.5,199.5C 207.906,199.027 208.573,198.027 208.5,196.5C 208.328,195.508 208.662,194.842 209.5,194.5C 210.906,194.027 211.573,193.027 211.5,191.5C 216.056,182.726 220.889,174.06 226,165.5C 234.797,135.268 246.297,106.268 260.5,78.5C 261.906,78.0269 262.573,77.0269 262.5,75.5C 264.062,71.6082 266.395,68.2749 269.5,65.5C 270.906,65.0269 271.573,64.0269 271.5,62.5C 271.5,61.8333 271.833,61.5 272.5,61.5C 273.906,61.0269 274.573,60.0269 274.5,58.5C 278.795,52.5374 283.795,47.204 289.5,42.5C 292.089,41.5806 294.089,39.914 295.5,37.5C 302.384,30.2864 310.384,24.6197 319.5,20.5C 321.027,20.573 322.027,19.9063 322.5,18.5C 333.756,12.0784 345.756,7.41169 358.5,4.5C 361.152,4.59047 363.485,3.92381 365.5,2.5C 369.142,1.39341 372.809,0.393406 376.5,-0.5 Z"/></g>
<g><path style="opacity:1" fill="#0e540b" d="M 365.5,2.5 C 363.485,3.92381 361.152,4.59047 358.5,4.5C 360.515,3.07619 362.848,2.40953 365.5,2.5 Z"/></g>
<g><path style="opacity:1" fill="#fbfbfb" d="M 383.5,8.5 C 418.864,8.04738 454.198,8.54738 489.5,10C 550.117,20.622 591.45,54.622 613.5,112C 613.167,112.5 612.833,113 612.5,113.5C 609.086,107.255 605.086,101.421 600.5,96C 598.888,95.2797 597.388,95.4464 596,96.5C 595.333,98.5 595.333,100.5 596,102.5C 617.673,139.843 638.84,177.51 659.5,215.5C 655.555,216.491 651.555,216.824 647.5,216.5C 647.666,211.156 647.499,205.823 647,200.5C 644.427,193.744 639.594,190.41 632.5,190.5C 633.077,196.173 631.744,201.34 628.5,206C 624.82,207.027 621.653,206.194 619,203.5C 616.099,192.895 612.432,182.562 608,172.5C 608.53,146.774 601.697,123.274 587.5,102C 584.208,101.104 581.875,102.271 580.5,105.5C 589.015,117.534 594.515,130.868 597,145.5C 597.829,163.525 597.496,181.525 596,199.5C 593.037,197.539 590.371,195.206 588,192.5C 586.784,160.578 579.284,130.245 565.5,101.5C 562.196,99.6447 560.196,100.478 559.5,104C 567.02,121.893 572.52,140.393 576,159.5C 577.151,167.496 577.818,175.496 578,183.5C 554.791,161.437 537.291,135.437 525.5,105.5C 523.401,103.48 521.067,103.146 518.5,104.5C 519.977,114.062 523.143,123.062 528,131.5C 547.336,165.338 572.836,193.672 604.5,216.5C 605.474,218.743 605.808,221.076 605.5,223.5C 619.665,224.002 630.499,218.336 638,206.5C 638.077,216.833 633.577,224.667 624.5,230C 540.719,238.841 485.886,203.341 460,123.5C 458.519,117.243 457.519,110.91 457,104.5C 454.413,102.804 451.579,101.804 448.5,101.5C 451.312,144.395 456.146,187.062 463,229.5C 469.107,256.486 478.774,282.152 492,306.5C 492.699,308.074 492.365,309.407 491,310.5C 457.025,295.192 432.359,270.525 417,236.5C 400.659,193.128 392.159,148.294 391.5,102C 388.692,101.08 386.525,101.913 385,104.5C 384.605,108.019 383.605,111.352 382,114.5C 367.629,129.869 353.629,145.535 340,161.5C 327.33,178.185 315.164,195.185 303.5,212.5C 295.429,179.76 301.096,149.593 320.5,122C 319.831,120.153 318.497,118.986 316.5,118.5C 312.894,120.603 309.727,123.269 307,126.5C 302.841,133.816 299.508,141.483 297,149.5C 292.762,173.356 287.762,197.023 282,220.5C 273.715,186.098 275.049,152.098 286,118.5C 289.139,110.888 292.806,103.554 297,96.5C 297.977,94.26 298.477,91.9267 298.5,89.5C 295.635,89.0548 293.135,89.7215 291,91.5C 279.502,109.17 272.502,128.504 270,149.5C 262.095,167.89 254.595,186.39 247.5,205C 235.397,211.924 222.397,215.591 208.5,216C 215.202,202.648 222.702,189.814 231,177.5C 243.478,151.202 257.478,125.868 273,101.5C 272.774,94.8639 270.108,93.8639 265,98.5C 262,103.5 259,108.5 256,113.5C 268.331,76.148 291.498,47.3147 325.5,27C 343.893,17.4783 363.227,11.3117 383.5,8.5 Z"/></g>
<g><path style="opacity:1" fill="#fd7207" d="M 322.5,18.5 C 322.027,19.9063 321.027,20.573 319.5,20.5C 319.973,19.0937 320.973,18.427 322.5,18.5 Z"/></g>
<g><path style="opacity:1" fill="#0d550d" d="M 295.5,37.5 C 294.089,39.914 292.089,41.5806 289.5,42.5C 290.911,40.086 292.911,38.4194 295.5,37.5 Z"/></g>
<g><path style="opacity:1" fill="#008f01" d="M 586.5,49.5 C 588.262,50.2623 589.262,51.5956 589.5,53.5C 587.738,52.7377 586.738,51.4044 586.5,49.5 Z"/></g>
<g><path style="opacity:1" fill="#fe7d05" d="M 591.5,55.5 C 592.906,55.9731 593.573,56.9731 593.5,58.5C 592.094,58.0269 591.427,57.0269 591.5,55.5 Z"/></g>
<g><path style="opacity:1" fill="#ff8702" d="M 274.5,58.5 C 274.573,60.0269 273.906,61.0269 272.5,61.5C 272.427,59.9731 273.094,58.9731 274.5,58.5 Z"/></g>
<g><path style="opacity:1" fill="#ff7505" d="M 271.5,62.5 C 271.573,64.0269 270.906,65.0269 269.5,65.5C 269.427,63.9731 270.094,62.9731 271.5,62.5 Z"/></g>
<g><path style="opacity:1" fill="#028107" d="M 262.5,75.5 C 262.573,77.0269 261.906,78.0269 260.5,78.5C 260.427,76.9731 261.094,75.9731 262.5,75.5 Z"/></g>
<g><path style="opacity:1" fill="#fe8b05" d="M 605.5,75.5 C 606.906,75.9731 607.573,76.9731 607.5,78.5C 606.094,78.0269 605.427,77.0269 605.5,75.5 Z"/></g>
<g><path style="opacity:1" fill="#fcfcfc" d="M 380.5,126.5 C 382.5,126.5 384.5,126.5 386.5,126.5C 386.178,170.911 396.011,212.911 416,252.5C 435.914,289.078 465.914,313.078 506,324.5C 509.031,323.494 510.365,321.494 510,318.5C 504.667,311.171 499.833,303.504 495.5,295.5C 497.416,293.683 499.749,292.516 502.5,292C 515.873,289.218 528.873,290.385 541.5,295.5C 542.757,298.844 542.757,302.177 541.5,305.5C 542.217,307.828 543.217,309.995 544.5,312C 542.803,315.894 540.97,319.727 539,323.5C 531.705,332.464 524.038,341.13 516,349.5C 515.576,352.328 516.91,353.661 520,353.5C 525.427,351.879 530.927,351.046 536.5,351C 495.585,369.663 452.585,376.663 407.5,372C 385.556,370.144 364.222,365.478 343.5,358C 337.663,354.582 331.996,350.916 326.5,347C 324.057,333.665 322.723,320.165 322.5,306.5C 322.521,303.248 322.854,300.081 323.5,297C 330.826,292.279 338.826,290.112 347.5,290.5C 356.296,290.688 364.963,291.855 373.5,294C 381.153,296.329 388.819,298.496 396.5,300.5C 397.204,296.197 395.87,292.697 392.5,290C 374.571,278.204 354.904,273.204 333.5,275C 330.088,276.455 326.921,278.288 324,280.5C 320.519,247.349 324.186,215.016 335,183.5C 349.24,163.76 364.407,144.76 380.5,126.5 Z"/></g>
<g><path style="opacity:1" fill="#0e660d" d="M 636.5,146.5 C 637.924,148.515 638.59,150.848 638.5,153.5C 637.076,151.485 636.41,149.152 636.5,146.5 Z"/></g>
<g><path style="opacity:1" fill="#f9f9f9" d="M 460.5,152.5 C 461.376,152.369 462.043,152.702 462.5,153.5C 478.758,190.093 505.425,215.76 542.5,230.5C 543.379,234.154 544.213,237.821 545,241.5C 545.833,254.513 545.666,267.513 544.5,280.5C 532.843,274.347 520.51,272.847 507.5,276C 501.835,277.461 496.335,279.295 491,281.5C 490.228,281.355 489.561,281.022 489,280.5C 481.947,265.008 476.28,249.008 472,232.5C 467.179,205.926 463.346,179.259 460.5,152.5 Z"/></g>
<g><path style="opacity:1" fill="#f6f6f6" d="M 266.5,175.5 C 267.777,176.694 268.444,178.36 268.5,180.5C 268.979,198.676 272.146,216.343 278,233.5C 279.455,236.912 281.288,240.079 283.5,243C 286.494,242.642 288.327,240.808 289,237.5C 290.858,228.921 292.192,220.254 293,211.5C 295.541,216.513 297.207,221.846 298,227.5C 300.315,229.83 302.815,229.83 305.5,227.5C 309.501,220.16 314.001,213.16 319,206.5C 314.908,246.019 313.574,285.686 315,325.5C 318.004,358.206 321.004,390.873 324,423.5C 302.6,391 289.267,355.334 284,316.5C 282.414,301.853 281.08,287.186 280,272.5C 277.733,271.065 275.733,271.398 274,273.5C 268.509,295.78 259.842,316.78 248,336.5C 243.411,281.551 249.577,227.884 266.5,175.5 Z"/></g>
<g><path style="opacity:1" fill="#008706" d="M 651.5,183.5 C 652.906,183.973 653.573,184.973 653.5,186.5C 652.094,186.027 651.427,185.027 651.5,183.5 Z"/></g>
<g><path style="opacity:1" fill="#008707" d="M 211.5,191.5 C 211.573,193.027 210.906,194.027 209.5,194.5C 209.427,192.973 210.094,191.973 211.5,191.5 Z"/></g>
<g><path style="opacity:1" fill="#d2d3d2" d="M 605.5,192.5 C 608.925,197.194 610.258,202.527 609.5,208.5C 608.178,208.67 607.011,208.337 606,207.5C 605.501,202.511 605.334,197.511 605.5,192.5 Z"/></g>
<g><path style="opacity:1" fill="#ff8706" d="M 656.5,191.5 C 657.906,191.973 658.573,192.973 658.5,194.5C 657.094,194.027 656.427,193.027 656.5,191.5 Z"/></g>
<g><path style="opacity:1" fill="#008407" d="M 208.5,196.5 C 208.573,198.027 207.906,199.027 206.5,199.5C 206.427,197.973 207.094,196.973 208.5,196.5 Z"/></g>
<g><path style="opacity:1" fill="#ff8f02" d="M 662.5,200.5 C 663.906,200.973 664.573,201.973 664.5,203.5C 663.094,203.027 662.427,202.027 662.5,200.5 Z"/></g>
<g><path style="opacity:1" fill="#fe8305" d="M 664.5,203.5 C 665.906,203.973 666.573,204.973 666.5,206.5C 665.094,206.027 664.427,205.027 664.5,203.5 Z"/></g>
<g><path style="opacity:1" fill="#f6f6f6" d="M 235.5,218.5 C 238.056,218.132 240.056,218.966 241.5,221C 242.943,224.688 243.61,228.522 243.5,232.5C 241.177,247.465 239.01,262.465 237,277.5C 224.855,292.155 209.355,300.322 190.5,302C 193,298.833 195.5,295.667 198,292.5C 206.807,273.082 215.807,253.748 225,234.5C 228.769,229.281 232.269,223.947 235.5,218.5 Z"/></g>
<g><path style="opacity:1" fill="#f0f0f0" d="M 641.5,223.5 C 653.654,223.496 664.654,226.996 674.5,234C 663.571,234.88 653.237,232.713 643.5,227.5C 642.295,226.423 641.628,225.09 641.5,223.5 Z"/></g>
<g><path style="opacity:1" fill="#ecedec" d="M 198.5,224.5 C 205.143,225.165 211.809,225.665 218.5,226C 208.585,231.812 197.919,234.479 186.5,234C 190.975,231.35 194.975,228.183 198.5,224.5 Z"/></g>
<g><path style="opacity:1" fill="#f5f6f5" d="M 556.5,284.5 C 555.508,277.018 555.175,269.352 555.5,261.5C 555.5,252.5 555.5,243.5 555.5,234.5C 561.711,236.101 568.044,236.768 574.5,236.5C 571.05,253.523 565.05,269.523 556.5,284.5 Z"/></g>
<g><path style="opacity:1" fill="#f9f9f9" d="M 630.5,234.5 C 632.017,234.511 633.184,235.177 634,236.5C 641.272,247.713 646.939,259.713 651,272.5C 655.085,282.567 660.752,291.567 668,299.5C 668.49,300.793 668.657,302.127 668.5,303.5C 654.97,301.319 642.804,295.986 632,287.5C 630.064,271.304 628.231,255.138 626.5,239C 628.041,237.629 629.375,236.129 630.5,234.5 Z"/></g>
<g><path style="opacity:1" fill="#00a500" d="M 209.5,240.5 C 209.735,239.903 210.235,239.57 211,239.5C 212.718,240.031 212.885,240.698 211.5,241.5C 211.158,240.662 210.492,240.328 209.5,240.5 Z"/></g>
<g><path style="opacity:1" fill="#f9f9f9" d="M 581.5,240.5 C 587.5,240.5 593.5,240.5 599.5,240.5C 601.441,258.827 607.441,275.661 617.5,291C 617,291.167 616.5,291.333 616,291.5C 599.061,284.727 586.895,273.06 579.5,256.5C 580.604,251.214 581.27,245.881 581.5,240.5 Z"/></g>
<g><path style="opacity:1" fill="#f6f6f6" d="M 608.5,240.5 C 611.833,240.5 615.167,240.5 618.5,240.5C 624.198,292.799 620.531,293.632 607.5,243C 607.743,242.098 608.077,241.265 608.5,240.5 Z"/></g>
<g><path style="opacity:1" fill="#009e00" d="M 152.5,239.5 C 152.5,241.167 152.5,242.833 152.5,244.5C 153.791,244.263 154.791,244.596 155.5,245.5C 154.167,245.5 152.833,245.5 151.5,245.5C 151.205,243.265 151.539,241.265 152.5,239.5 Z"/></g>
<g><path style="opacity:1" fill="#f1f1f1" d="M 574.5,267.5 C 579.766,271.61 583.766,276.777 586.5,283C 578.609,307.719 563.276,326.219 540.5,338.5C 539.833,338.167 539.167,337.833 538.5,337.5C 547.919,325.66 554.419,312.327 558,297.5C 564.288,287.923 569.788,277.923 574.5,267.5 Z"/></g>
<g><path style="opacity:1" fill="#5d615d" d="M 555.5,261.5 C 555.175,269.352 555.508,277.018 556.5,284.5C 556.217,285.289 555.717,285.956 555,286.5C 554.177,277.99 554.343,269.656 555.5,261.5 Z"/></g>
<g><path style="opacity:1" fill="#009300" d="M 190.5,287.5 C 190.573,289.027 189.906,290.027 188.5,290.5C 188.427,288.973 189.094,287.973 190.5,287.5 Z"/></g>
<g><path style="opacity:1" fill="#d5d5d5" d="M 427.5,291.5 C 435.126,290.066 441.292,292.399 446,298.5C 446.687,300.568 446.52,302.568 445.5,304.5C 437.564,308.427 429.731,308.427 422,304.5C 421.333,302.5 421.333,300.5 422,298.5C 424.43,296.578 426.263,294.245 427.5,291.5 Z"/></g>
<g><path style="opacity:1" fill="#009600" d="M 671.5,290.5 C 673.914,291.911 675.581,293.911 676.5,296.5C 674.086,295.089 672.419,293.089 671.5,290.5 Z"/></g>
<g><path style="opacity:1" fill="#f9f9f9" d="M 601.5,295.5 C 607.73,298.942 614.397,301.275 621.5,302.5C 622.896,313.579 622.396,324.579 620,335.5C 611.917,323.004 605.75,309.67 601.5,295.5 Z"/></g>
<g><path style="opacity:1" fill="#026a08" d="M 181.5,297.5 C 179.761,300.243 177.427,302.243 174.5,303.5C 176.239,300.757 178.573,298.757 181.5,297.5 Z"/></g>
<g><path style="opacity:1" fill="#00c300" d="M 224.5,300.5 C 224.56,299.957 224.893,299.624 225.5,299.5C 226.429,300.689 226.762,302.022 226.5,303.5C 225.833,302.5 225.167,301.5 224.5,300.5 Z"/></g>
<g><path style="opacity:1" fill="#f7f7f7" d="M 272.5,303.5 C 273.117,303.611 273.617,303.944 274,304.5C 278.376,344.96 290.376,382.96 310,418.5C 312.439,429.754 315.272,440.921 318.5,452C 318.167,452.833 317.833,453.667 317.5,454.5C 300.457,436.243 290.624,414.577 288,389.5C 286.192,387.604 284.025,387.104 281.5,388C 277.217,399.917 275.217,412.25 275.5,425C 276.389,441.598 277.889,458.098 280,474.5C 268.531,460.232 260.198,444.232 255,426.5C 246.011,399.898 241.344,372.565 241,344.5C 245.625,348.646 249.959,348.313 254,343.5C 261.53,330.775 267.697,317.442 272.5,303.5 Z"/></g>
<g><path style="opacity:1" fill="#f7f7f7" d="M 592.5,301.5 C 599.844,317.185 608.011,332.518 617,347.5C 618.552,349.768 619.385,352.268 619.5,355C 615.473,393.078 604.973,429.245 588,463.5C 585,467.167 582,470.833 579,474.5C 580.473,462.577 581.806,450.577 583,438.5C 583.751,424.107 583.084,409.773 581,395.5C 579.463,391.463 577.296,387.796 574.5,384.5C 585.357,357.879 591.357,330.213 592.5,301.5 Z"/></g>
<g><path style="opacity:1" fill="#10530d" d="M 173.5,304.5 C 172.415,306.587 170.749,307.92 168.5,308.5C 169.585,306.413 171.251,305.08 173.5,304.5 Z"/></g>
<g><path style="opacity:1" fill="#fbfbfb" d="M 582.5,308.5 C 580.786,350.015 568.286,388.015 545,422.5C 547.66,395.566 549.993,368.566 552,341.5C 565.146,333.19 575.313,322.19 582.5,308.5 Z"/></g>
<g><path style="opacity:1" fill="#0e660c" d="M 657.5,310.5 C 660.152,310.41 662.485,311.076 664.5,312.5C 661.848,312.59 659.515,311.924 657.5,310.5 Z"/></g>
<g><path style="opacity:1" fill="#080808" d="M 456.5,332.5 C 460.571,332.234 464.571,332.567 468.5,333.5C 470.969,336.674 471.136,340.007 469,343.5C 461.754,352.697 452.254,357.531 440.5,358C 429.639,359.067 418.973,358.067 408.5,355C 400.78,352.122 397.447,346.622 398.5,338.5C 418.237,338.883 437.571,336.883 456.5,332.5 Z"/></g>
<g><path style="opacity:1" fill="#f0f0f0" d="M 453.5,343.5 C 457.588,343.218 458.088,343.885 455,345.5C 453.97,345.164 453.47,344.497 453.5,343.5 Z"/></g>
<g><path style="opacity:1" fill="#dedede" d="M 423.5,344.5 C 431.337,343.968 439.003,344.801 446.5,347C 434.844,350.246 423.178,350.246 411.5,347C 415.736,346.665 419.736,345.832 423.5,344.5 Z"/></g>
<g><path style="opacity:1" fill="#f3f3f3" d="M 326.5,358.5 C 345.434,368.126 365.434,374.626 386.5,378C 382.057,379.94 377.39,380.94 372.5,381C 370.707,382.78 369.04,384.613 367.5,386.5C 360.729,380.531 352.896,376.531 344,374.5C 340.928,375.953 338.095,377.787 335.5,380C 332.963,382.906 330.796,386.073 329,389.5C 326.987,379.263 326.153,368.93 326.5,358.5 Z"/></g>
<g><path style="opacity:1" fill="#f0f1f0" d="M 535.5,359.5 C 537.981,359.323 539.814,360.323 541,362.5C 542.01,371.002 541.344,379.336 539,387.5C 534.646,381.646 529.48,376.646 523.5,372.5C 515.434,375.7 507.768,379.7 500.5,384.5C 496.196,379.811 491.029,378.477 485,380.5C 482.578,380.25 480.411,379.416 478.5,378C 498.79,375.514 517.79,369.347 535.5,359.5 Z"/></g>
<g><path style="opacity:1" fill="#f9f9f9" d="M 455.5,378.5 C 465.278,376.798 471.612,380.631 474.5,390C 470.48,399.88 465.313,409.047 459,417.5C 452.833,407.833 446.667,398.167 440.5,388.5C 445.541,385.108 450.541,381.774 455.5,378.5 Z"/></g>
<g><path style="opacity:1" fill="#f2f2f2" d="M 399.5,378.5 C 410.002,378.033 419.002,381.366 426.5,388.5C 421.003,398.831 415.003,408.831 408.5,418.5C 402.991,409.485 397.991,400.151 393.5,390.5C 395.527,386.447 397.527,382.447 399.5,378.5 Z"/></g>
<g><path style="opacity:1" fill="#f2f2f2" d="M 508.5,425.5 C 508.264,422.774 509.097,420.441 511,418.5C 514.066,415.604 516.899,412.604 519.5,409.5C 524.575,409.82 526.408,407.486 525,402.5C 518.25,401.017 511.583,401.35 505,403.5C 503.42,400.028 503.087,396.362 504,392.5C 509.235,388.577 514.902,385.577 521,383.5C 527.899,384.736 531.732,388.902 532.5,396C 531.672,401.825 529.839,407.325 527,412.5C 525.661,417.85 526.661,422.517 530,426.5C 533.32,430.872 533.32,435.205 530,439.5C 524.289,433.63 517.455,429.63 509.5,427.5C 508.702,427.043 508.369,426.376 508.5,425.5 Z"/></g>
<g><path style="opacity:1" fill="#fafbf9" d="M 696.5,546.5 C 697.404,547.209 697.737,548.209 697.5,549.5C 712.221,553.725 721.388,563.392 725,578.5C 728.781,605.414 729.448,632.414 727,659.5C 726.208,661.587 725.041,663.421 723.5,665C 710.995,668.653 698.662,668.32 686.5,664C 683.654,651.734 681.987,639.234 681.5,626.5C 681.543,622.107 681.043,621.774 680,625.5C 679.5,632.826 679.334,640.159 679.5,647.5C 681.14,656.051 678.14,662.218 670.5,666C 660.167,668 649.833,668 639.5,666C 635.899,660.769 634.232,654.936 634.5,648.5C 629.737,648.226 625.07,648.559 620.5,649.5C 617.36,648.359 614.027,648.192 610.5,649C 605.362,662.138 596.195,671.305 583,676.5C 580.373,675.925 579.206,674.259 579.5,671.5C 580.63,663.777 582.963,656.443 586.5,649.5C 583.232,648.513 579.898,648.18 576.5,648.5C 571.381,647.897 566.715,648.564 562.5,650.5C 559.169,648.702 555.502,648.036 551.5,648.5C 551.12,652.066 549.12,654.399 545.5,655.5C 543.358,659.475 540.358,662.642 536.5,665C 529.842,665.5 523.175,665.666 516.5,665.5C 516.665,669.182 516.499,672.848 516,676.5C 514.802,679.366 512.635,681.2 509.5,682C 503.608,683.807 497.608,684.974 491.5,685.5C 487.298,685.817 483.298,685.483 479.5,684.5C 485.319,679.833 491.986,677 499.5,676C 503.016,672.651 506.349,669.151 509.5,665.5C 506.986,664.412 504.652,663.078 502.5,661.5C 501.833,660.5 501.167,659.5 500.5,658.5C 500.664,655.813 500.497,653.146 500,650.5C 498.221,649.521 496.555,649.854 495,651.5C 493.85,654.768 493.016,658.101 492.5,661.5C 490.372,663.446 488.039,665.279 485.5,667C 482.657,667.446 479.824,667.946 477,668.5C 469.533,667.585 462.033,667.252 454.5,667.5C 452.436,667.238 451.103,666.071 450.5,664C 449.5,663.833 448.5,663.667 447.5,663.5C 438.521,664.582 429.521,664.749 420.5,664C 401.908,660.92 383.241,658.253 364.5,656C 355.959,654.648 348.793,650.814 343,644.5C 343.532,648.757 343.532,653.091 343,657.5C 342.288,659.847 341.121,661.847 339.5,663.5C 333.626,661.486 327.959,658.986 322.5,656C 319.305,654.305 316.972,651.805 315.5,648.5C 318.23,640.675 320.897,632.842 323.5,625C 318.177,624.501 312.844,624.334 307.5,624.5C 300.833,624.5 294.167,624.5 287.5,624.5C 284.833,624.5 282.167,624.5 279.5,624.5C 281.374,642.074 284.207,659.407 288,676.5C 278.563,673.782 270.563,668.782 264,661.5C 258.947,650.728 254.447,639.728 250.5,628.5C 254.792,624.71 258.958,620.71 263,616.5C 263.667,612.167 263.667,607.833 263,603.5C 260.717,604.719 258.384,604.719 256,603.5C 254.018,603.99 252.351,604.99 251,606.5C 250.625,609 249.792,611.333 248.5,613.5C 250.295,613.034 252.295,613.034 254.5,613.5C 252.419,616.748 249.586,619.081 246,620.5C 244.5,624.333 243,628.167 241.5,632C 241.743,632.902 242.077,633.735 242.5,634.5C 238.176,641.573 234.676,649.239 232,657.5C 224.428,665.539 215.094,668.872 204,667.5C 198.839,666.94 193.673,666.44 188.5,666C 187.944,665.617 187.611,665.117 187.5,664.5C 186.833,663.167 185.833,662.167 184.5,661.5C 180.519,652.841 177.019,643.841 174,634.5C 162,610.5 150,586.5 138,562.5C 136.047,550.836 136.047,539.169 138,527.5C 142.752,518.38 150.252,515.047 160.5,517.5C 164.833,517.667 169.167,517.833 173.5,518C 175.058,518.21 176.391,518.71 177.5,519.5C 178.209,520.404 179.209,520.737 180.5,520.5C 182.593,522.471 184.26,524.804 185.5,527.5C 197.656,510.161 210.823,493.494 225,477.5C 227.852,472.828 229.186,467.828 229,462.5C 227.951,461.483 226.784,461.316 225.5,462C 216.982,467.838 207.649,471.838 197.5,474C 179.665,477.482 163.665,473.815 149.5,463C 169.29,459.27 187.623,451.937 204.5,441C 219.624,431.547 230.79,418.714 238,402.5C 243.394,416.683 248.394,431.016 253,445.5C 261.451,466.122 274.618,483.122 292.5,496.5C 289.691,500.477 286.691,504.31 283.5,508C 280.833,508.667 278.167,508.667 275.5,508C 272.078,505.809 269.411,506.476 267.5,510C 269.987,511.755 272.32,513.755 274.5,516C 290.787,521.604 303.787,531.27 313.5,545C 302.512,557.321 290.846,568.988 278.5,580C 282.806,579.955 287.139,579.455 291.5,578.5C 302.121,569.381 312.287,559.714 322,549.5C 322.893,546.084 322.393,542.917 320.5,540C 334.765,523.071 348.265,505.571 361,487.5C 362.011,499.813 362.844,512.147 363.5,524.5C 365.167,523.833 366.833,523.167 368.5,522.5C 369.856,512.199 370.856,501.865 371.5,491.5C 388.435,493.278 405.269,492.611 422,489.5C 446.77,492.01 471.603,493.01 496.5,492.5C 497.943,505.115 498.776,517.782 499,530.5C 501.591,538.706 503.758,547.039 505.5,555.5C 509.698,555.358 513.698,555.858 517.5,557C 510.259,544.449 506.593,530.949 506.5,516.5C 506.173,507.318 506.507,498.318 507.5,489.5C 520.658,505.803 533.825,522.136 547,538.5C 546.083,541.714 545.75,545.047 546,548.5C 548.833,551.333 551.667,554.167 554.5,557C 557.57,556.985 560.57,556.318 563.5,555C 560.705,553.207 558.205,551.04 556,548.5C 555.882,544.384 557.216,540.717 560,537.5C 568.706,529.564 578.206,522.73 588.5,517C 590.5,516.333 592.5,516.333 594.5,517C 600.491,527.817 605.824,538.983 610.5,550.5C 614.375,551.539 617.208,553.872 619,557.5C 619.333,561.833 619.667,566.167 620,570.5C 627.406,572.869 634.073,576.535 640,581.5C 641.115,578.845 641.782,576.179 642,573.5C 637.504,569.673 632.504,566.673 627,564.5C 617.284,545.735 608.117,526.735 599.5,507.5C 598.554,507.013 597.554,506.68 596.5,506.5C 592.67,508.312 588.67,508.812 584.5,508C 580.416,503.171 577.083,497.838 574.5,492C 588.098,478.067 598.932,462.233 607,444.5C 615.019,421.089 621.019,397.089 625,372.5C 624.958,390.666 630.291,407 641,421.5C 662.33,443.584 688.163,457.417 718.5,463C 694.794,479.193 670.794,479.527 646.5,464C 643.854,463.503 641.187,463.336 638.5,463.5C 638.649,469.114 640.482,474.114 644,478.5C 659.614,495.102 673.281,513.102 685,532.5C 686.961,537.639 687.794,542.972 687.5,548.5C 690.545,548.508 693.545,548.841 696.5,549.5C 696.5,548.5 696.5,547.5 696.5,546.5 Z"/></g>
<g><path style="opacity:1" fill="#f7f8f7" d="M 346.5,410.5 C 347.614,411.885 348.614,413.385 349.5,415C 353.061,418.073 356.728,420.906 360.5,423.5C 359.984,428.781 356.984,431.281 351.5,431C 347.833,434 344.167,437 340.5,440C 339.365,440.749 338.365,440.583 337.5,439.5C 336.425,436.562 336.259,433.562 337,430.5C 341.217,424.976 342.551,418.643 341,411.5C 339.479,406.956 337.312,402.789 334.5,399C 336.553,392.8 340.22,387.967 345.5,384.5C 354.707,385.731 361.374,390.397 365.5,398.5C 365.226,401.65 364.06,404.316 362,406.5C 355.776,403.819 349.276,402.486 342.5,402.5C 341.774,406.26 343.107,408.927 346.5,410.5 Z"/></g>
<g><path style="opacity:1" fill="#ebebeb" d="M 481.5,391.5 C 484.168,392.457 485.668,394.457 486,397.5C 487.205,405.119 487.705,412.786 487.5,420.5C 481.6,419.722 475.934,418.055 470.5,415.5C 475.28,407.945 478.946,399.945 481.5,391.5 Z"/></g>
<g><path style="opacity:1" fill="#ededed" d="M 383.5,393.5 C 387.113,397.343 390.28,401.677 393,406.5C 395.072,409.971 396.572,413.638 397.5,417.5C 392.516,417.278 387.85,418.278 383.5,420.5C 380.831,420.493 379.498,419.159 379.5,416.5C 381.352,408.911 382.685,401.244 383.5,393.5 Z"/></g>
<g><path style="opacity:1" fill="#fafafa" d="M 428.5,399.5 C 432.2,399.921 435.867,400.588 439.5,401.5C 444.337,408.504 448.671,415.837 452.5,423.5C 445.869,428.463 439.869,434.13 434.5,440.5C 428.61,434.44 422.277,428.94 415.5,424C 420.241,416.017 424.574,407.851 428.5,399.5 Z"/></g>
<g><path style="opacity:1" fill="#7a7c7a" d="M 372.5,398.5 C 373.924,405.498 373.424,412.498 371,419.5C 370.446,412.428 370.946,405.428 372.5,398.5 Z"/></g>
<g><path style="opacity:1" fill="#e5e5e5" d="M 566.5,400.5 C 566.257,419.347 559.424,435.68 546,449.5C 543.016,445.161 542.682,440.494 545,435.5C 554.195,425.115 561.362,413.448 566.5,400.5 Z"/></g>
<g><path style="opacity:1" fill="#006401" d="M 188.5,404.5 C 191.649,403.835 194.982,403.502 198.5,403.5C 202.239,403.514 205.572,404.18 208.5,405.5C 201.922,404.54 195.255,404.207 188.5,404.5 Z"/></g>
<g><path style="opacity:1" fill="#7a7c7a" d="M 493.5,394.5 C 497.024,401.689 498.19,409.356 497,417.5C 495.26,409.913 494.094,402.246 493.5,394.5 Z"/></g>
<g><path style="opacity:1" fill="#bababa" d="M 519.5,409.5 C 516.899,412.604 514.066,415.604 511,418.5C 509.097,420.441 508.264,422.774 508.5,425.5C 503.687,414.474 507.354,409.141 519.5,409.5 Z"/></g>
<g><path style="opacity:1" fill="#c0c1c0" d="M 346.5,410.5 C 351.618,411.429 356.618,412.762 361.5,414.5C 361.81,417.713 361.477,420.713 360.5,423.5C 356.728,420.906 353.061,418.073 349.5,415C 348.614,413.385 347.614,411.885 346.5,410.5 Z"/></g>
<g><path style="opacity:1" fill="#f4f4f4" d="M 194.5,411.5 C 196.288,411.215 197.955,411.548 199.5,412.5C 201.444,417.999 203.778,423.332 206.5,428.5C 186.271,446.137 162.605,454.303 135.5,453C 149.986,431.761 169.652,417.927 194.5,411.5 Z"/></g>
<g><path style="opacity:1" fill="#9d9e9d" d="M 534.5,410.5 C 536.907,413.115 537.074,416.115 535,419.5C 534.502,416.518 534.335,413.518 534.5,410.5 Z"/></g>
<g><path style="opacity:1" fill="#f2f3f2" d="M 669.5,411.5 C 697.477,416.323 718.81,430.823 733.5,455C 706.38,454.352 682.38,445.519 661.5,428.5C 664.47,422.897 667.137,417.23 669.5,411.5 Z"/></g>
<g><path style="opacity:1" fill="#a9a9a9" d="M 331.5,411.5 C 332.117,411.611 332.617,411.944 333,412.5C 333.667,414.833 333.667,417.167 333,419.5C 331.921,416.937 331.421,414.271 331.5,411.5 Z"/></g>
<g><path style="opacity:1" fill="#a1a2a1" d="M 573.5,450.5 C 574.139,440.773 573.472,431.44 571.5,422.5C 571.848,420.287 572.681,418.287 574,416.5C 575.785,427.969 575.618,439.302 573.5,450.5 Z"/></g>
<g><path style="opacity:1" fill="#f7f7f7" d="M 284.5,417.5 C 291.616,434.39 301.283,449.723 313.5,463.5C 307.914,472.339 302.081,481.006 296,489.5C 292.253,481.417 289.253,473.084 287,464.5C 285.141,448.888 284.308,433.221 284.5,417.5 Z"/></g>
<g><path style="opacity:1" fill="#f8f8f8" d="M 571.5,422.5 C 573.472,431.44 574.139,440.773 573.5,450.5C 573.126,460.77 570.626,470.436 566,479.5C 560.166,473.157 555.333,466.157 551.5,458.5C 559.392,447.251 566.059,435.251 571.5,422.5 Z"/></g>
<g><path style="opacity:1" fill="#09620c" d="M 151.5,422.5 C 150.415,424.587 148.749,425.92 146.5,426.5C 147.585,424.413 149.251,423.08 151.5,422.5 Z"/></g>
<g><path style="opacity:1" fill="#c6c7c6" d="M 389.5,425.5 C 396.256,424.347 400.923,426.847 403.5,433C 405.384,433.216 407.051,433.883 408.5,435C 407.737,435.944 406.737,436.444 405.5,436.5C 398.219,434.577 390.886,432.911 383.5,431.5C 385.827,429.839 387.827,427.839 389.5,425.5 Z"/></g>
<g><path style="opacity:1" fill="#c2c3c2" d="M 471.5,425.5 C 476.78,426.306 481.446,428.473 485.5,432C 479.339,433.62 473.006,433.953 466.5,433C 465.549,432.282 465.383,431.449 466,430.5C 467.73,428.598 469.563,426.931 471.5,425.5 Z"/></g>
<g><path style="opacity:1" fill="#dedede" d="M 369.5,427.5 C 374.185,428.763 375.518,431.596 373.5,436C 371.655,437.128 369.655,437.628 367.5,437.5C 367.152,433.915 367.819,430.582 369.5,427.5 Z"/></g>
<g><path style="opacity:1" fill="#d1d2d1" d="M 494.5,427.5 C 501.39,429.137 503.223,433.137 500,439.5C 497.708,438.21 495.708,436.543 494,434.5C 493.982,432.203 494.149,429.869 494.5,427.5 Z"/></g>
<g><path style="opacity:1" fill="#007701" d="M 143.5,429.5 C 141.833,431.833 139.833,433.833 137.5,435.5C 138.5,432.5 140.5,430.5 143.5,429.5 Z"/></g>
<g><path style="opacity:1" fill="#d7d7d7" d="M 322.5,435.5 C 327.577,437.334 328.744,440.667 326,445.5C 324.53,442.256 323.363,438.923 322.5,435.5 Z"/></g>
<g><path style="opacity:1" fill="#fe8505" d="M 730.5,435.5 C 732.262,436.262 733.262,437.596 733.5,439.5C 731.738,438.738 730.738,437.404 730.5,435.5 Z"/></g>
<g><path style="opacity:1" fill="#b1b2b1" d="M 416.5,436.5 C 417.496,436.414 418.329,436.748 419,437.5C 419.494,439.134 419.66,440.801 419.5,442.5C 415.846,441.859 414.846,439.859 416.5,436.5 Z"/></g>
<g><path style="opacity:1" fill="#b9b9b9" d="M 448.5,436.5 C 449.708,437.234 451.041,437.567 452.5,437.5C 452.756,439.912 451.756,441.579 449.5,442.5C 448.534,440.604 448.201,438.604 448.5,436.5 Z"/></g>
<g><path style="opacity:1" fill="#fbfbfb" d="M 377.5,441.5 C 386.959,441.044 396.292,441.877 405.5,444C 415.558,450.058 425.058,456.892 434,464.5C 443.213,456.477 453.046,449.311 463.5,443C 471.77,441.463 480.103,441.13 488.5,442C 495.543,443.889 500.043,448.389 502,455.5C 502.667,463.167 502.667,470.833 502,478.5C 496.786,481.993 490.953,483.493 484.5,483C 446.167,483.065 407.834,482.732 369.5,482C 367.714,481.215 366.214,480.049 365,478.5C 364.333,470.167 364.333,461.833 365,453.5C 367.744,447.921 371.911,443.921 377.5,441.5 Z"/></g>
<g><path style="opacity:1" fill="#016f06" d="M 735.5,441.5 C 736.906,441.973 737.573,442.973 737.5,444.5C 736.094,444.027 735.427,443.027 735.5,441.5 Z"/></g>
<g><path style="opacity:1" fill="#d2d2d2" d="M 354.5,444.5 C 356.912,444.244 358.579,445.244 359.5,447.5C 358.352,450.289 357.019,452.956 355.5,455.5C 354.914,455.291 354.414,454.957 354,454.5C 353.253,451.076 353.42,447.743 354.5,444.5 Z"/></g>
<g><path style="opacity:1" fill="#dbdcdb" d="M 509.5,444.5 C 514.183,446.21 515.683,449.543 514,454.5C 513.333,455.167 512.667,455.833 512,456.5C 510.973,453.246 509.473,450.246 507.5,447.5C 508.193,446.482 508.859,445.482 509.5,444.5 Z"/></g>
<g><path style="opacity:1" fill="#f8f8f8" d="M 332.5,450.5 C 333.15,450.804 333.817,451.137 334.5,451.5C 332.449,463.45 336.449,472.617 346.5,479C 349.588,479.847 352.421,479.347 355,477.5C 355.5,478 356,478.5 356.5,479C 344.196,497.977 330.362,515.81 315,532.5C 306.995,525.991 299.161,519.325 291.5,512.5C 305.177,491.805 318.844,471.138 332.5,450.5 Z"/></g>
<g><path style="opacity:1" fill="#028207" d="M 125.5,450.5 C 125.573,452.027 124.906,453.027 123.5,453.5C 123.427,451.973 124.094,450.973 125.5,450.5 Z"/></g>
<g><path style="opacity:1" fill="#f7f7f7" d="M 532.5,449.5 C 548.705,469.553 563.705,490.553 577.5,512.5C 569.233,518.76 561.233,525.427 553.5,532.5C 537.971,515.112 523.637,496.778 510.5,477.5C 511.813,475.115 513.48,474.948 515.5,477C 520.965,478.289 525.465,476.789 529,472.5C 533.191,465.27 534.358,457.603 532.5,449.5 Z"/></g>
<g><path style="opacity:1" fill="#ff9703" d="M 744.5,454.5 C 745.906,454.973 746.573,455.973 746.5,457.5C 745.094,457.027 744.427,456.027 744.5,454.5 Z"/></g>
<g><path style="opacity:1" fill="#008306" d="M 122.5,455.5 C 122.573,457.027 121.906,458.027 120.5,458.5C 120.427,456.973 121.094,455.973 122.5,455.5 Z"/></g>
<g><path style="opacity:1" fill="#eeeeee" d="M 712.5,483.5 C 709.433,482.317 706.433,480.983 703.5,479.5C 715.282,476.214 725.449,470.214 734,461.5C 734.333,460.167 734.667,458.833 735,457.5C 745.332,468.827 750.332,482.161 750,497.5C 738.952,489.107 726.452,484.44 712.5,483.5 Z"/></g>
<g><path style="opacity:1" fill="#f8f8f8" d="M 164.5,479.5 C 159.866,480.96 155.199,482.293 150.5,483.5C 138.304,485.015 127.47,489.682 118,497.5C 116.965,490.22 117.965,483.22 121,476.5C 124.635,470.035 128.468,463.702 132.5,457.5C 139.899,469.229 150.566,476.562 164.5,479.5 Z"/></g>
<g><path style="opacity:1" fill="#dfdfdf" d="M 344.5,458.5 C 347.771,460.591 350.937,462.924 354,465.5C 353.773,468.395 352.106,470.062 349,470.5C 347.11,470.215 345.777,469.215 345,467.5C 344.502,464.518 344.335,461.518 344.5,458.5 Z"/></g>
<g><path style="opacity:1" fill="#e5e5e5" d="M 520.5,458.5 C 524.965,460.477 525.632,463.477 522.5,467.5C 519.743,468.982 517.41,468.482 515.5,466C 517.415,463.6 519.081,461.1 520.5,458.5 Z"/></g>
<g><path style="opacity:1" fill="#f2f3f2" d="M 178.5,485.5 C 178.389,484.883 178.056,484.383 177.5,484C 183.016,483.827 188.349,483.327 193.5,482.5C 200.282,481.618 206.949,480.451 213.5,479C 208.684,484.983 203.351,490.483 197.5,495.5C 192.092,490.43 185.759,487.097 178.5,485.5 Z"/></g>
<g><path style="opacity:1" fill="#e4e4e4" d="M 673.5,482.5 C 679.406,482.854 685.073,483.854 690.5,485.5C 683.158,487.088 676.658,490.421 671,495.5C 664.702,490.701 659.202,485.034 654.5,478.5C 654.667,478.167 654.833,477.833 655,477.5C 660.745,480.645 666.911,482.312 673.5,482.5 Z"/></g>
<g><path style="opacity:1" fill="#717271" d="M 164.5,479.5 C 166.767,480.423 169.1,481.256 171.5,482C 178.826,482.5 186.159,482.666 193.5,482.5C 188.349,483.327 183.016,483.827 177.5,484C 178.056,484.383 178.389,484.883 178.5,485.5C 169.25,484.005 159.916,483.338 150.5,483.5C 155.199,482.293 159.866,480.96 164.5,479.5 Z"/></g>
<g><path style="opacity:1" fill="#6a6b6a" d="M 703.5,479.5 C 706.433,480.983 709.433,482.317 712.5,483.5C 705.014,483.091 697.681,483.758 690.5,485.5C 685.073,483.854 679.406,482.854 673.5,482.5C 683.754,483.25 693.754,482.25 703.5,479.5 Z"/></g>
<g><path style="opacity:1" fill="#096308" d="M 111.5,477.5 C 111.59,480.152 110.924,482.485 109.5,484.5C 109.41,481.848 110.076,479.515 111.5,477.5 Z"/></g>
<g><path style="opacity:1" fill="#929492" d="M 507.5,489.5 C 506.507,498.318 506.173,507.318 506.5,516.5C 505.342,507.009 505.175,497.342 506,487.5C 506.717,488.044 507.217,488.711 507.5,489.5 Z"/></g>
<g><path style="opacity:1" fill="#ff8602" d="M 745.5,505.5 C 747.027,505.427 748.027,506.094 748.5,507.5C 746.973,507.573 745.973,506.906 745.5,505.5 Z"/></g>
<g><path style="opacity:1" fill="#2ecd26" d="M 180.5,518.5 C 180.5,519.167 180.5,519.833 180.5,520.5C 179.209,520.737 178.209,520.404 177.5,519.5C 178.609,519.443 179.609,519.11 180.5,518.5 Z"/></g>
<g><path style="opacity:1" fill="#020202" d="M 246.5,521.5 C 250.846,521.334 255.179,521.501 259.5,522C 262.728,523.563 264.895,526.063 266,529.5C 266.667,535.167 266.667,540.833 266,546.5C 261.781,556.606 256.781,566.273 251,575.5C 241.61,599.946 231.944,624.279 222,648.5C 216.424,655.358 209.257,657.858 200.5,656C 198.448,655.07 196.948,653.57 196,651.5C 182.822,619.968 168.489,588.968 153,558.5C 149.78,552.521 148.447,546.188 149,539.5C 156.223,525.928 165.223,524.928 176,536.5C 178.665,544.489 181.331,552.489 184,560.5C 192.403,577.019 200.903,593.352 209.5,609.5C 211.604,606.72 213.438,603.72 215,600.5C 222.514,579.281 228.847,557.614 234,535.5C 236.636,529.369 240.803,524.703 246.5,521.5 Z"/></g>
<g><path style="opacity:1" fill="#020202" d="M 404.5,527.5 C 416.487,526.646 428.154,528.146 439.5,532C 451.554,537.692 453.22,545.359 444.5,555C 440.091,558.581 435.091,559.915 429.5,559C 420.205,551.212 409.872,549.545 398.5,554C 386.794,556.768 376.627,562.268 368,570.5C 356.573,590.82 360.74,606.987 380.5,619C 388.733,621.825 397.066,622.158 405.5,620C 414.037,618.208 422.037,615.208 429.5,611C 434.74,608.513 439.573,609.013 444,612.5C 448.185,621.47 447.018,629.637 440.5,637C 426.375,643.821 411.542,647.988 396,649.5C 377.023,649.67 361.023,643.003 348,629.5C 338.716,617.027 335.383,603.027 338,587.5C 338.894,576.15 342.561,565.816 349,556.5C 363.749,539.213 382.249,529.546 404.5,527.5 Z"/></g>
<g><path style="opacity:1" fill="#020202" d="M 474.5,527.5 C 480.103,526.918 484.603,528.918 488,533.5C 487.069,545.788 486.569,558.122 486.5,570.5C 490.913,570.147 495.246,569.314 499.5,568C 503.167,567.333 506.833,567.333 510.5,568C 525.18,578.335 533.347,592.501 535,610.5C 536.435,622.135 536.768,633.801 536,645.5C 530.246,656.723 522.58,658.389 513,650.5C 510.434,636.596 508.434,622.596 507,608.5C 502.867,593.045 497.867,592.712 492,607.5C 488.624,618.924 486.624,630.59 486,642.5C 483.329,657.165 475.329,661.498 462,655.5C 460.725,653.283 459.725,650.949 459,648.5C 458.842,614.44 460.176,580.44 463,546.5C 463.809,538.195 467.643,531.862 474.5,527.5 Z"/></g>
<g><path style="opacity:1" fill="#131613" d="M 649.5,553.5 C 652.4,553.28 655.067,553.946 657.5,555.5C 655.476,557.358 653.309,559.025 651,560.5C 649.648,558.406 649.148,556.073 649.5,553.5 Z"/></g>
<g><path style="opacity:1" fill="#0a0f0a" d="M 212.5,553.5 C 213.5,553.5 214.5,553.5 215.5,553.5C 214.139,560.61 212.306,567.61 210,574.5C 209.311,575.357 208.478,576.023 207.5,576.5C 205.408,574.654 204.074,572.321 203.5,569.5C 205.689,563.661 208.689,558.327 212.5,553.5 Z"/></g>
<g><path style="opacity:1" fill="#f4fcf3" d="M 95.5,610.5 C 94.5,610.5 93.5,610.5 92.5,610.5C 92.1673,617.926 92.5006,624.592 93.5,630.5C 98.9801,628.176 102.813,629.843 105,635.5C 105.832,645.184 105.665,654.851 104.5,664.5C 99.292,667.535 93.9586,670.368 88.5,673C 82.1271,679.042 75.4604,684.708 68.5,690C 60.5139,689.942 52.5139,689.609 44.5,689C 42.683,687.2 41.5163,685.034 41,682.5C 40.0713,673.405 40.5713,664.405 42.5,655.5C 48.6882,650.144 55.0215,644.977 61.5,640C 41.485,639.736 21.485,639.069 1.5,638C 0.348035,627.91 0.181368,617.744 1,607.5C 5.10475,605.011 9.60475,603.511 14.5,603C 29.4919,602.154 44.4919,601.487 59.5,601C 52.4455,596.806 45.1122,593.139 37.5,590C 36.8742,589.25 36.3742,588.416 36,587.5C 35.6183,581.323 35.1183,575.156 34.5,569C 34.6051,559.223 39.4384,554.723 49,555.5C 55.5137,555.819 62.0137,556.319 68.5,557C 79.9964,563.247 91.3297,569.747 102.5,576.5C 104.938,586.074 105.105,595.741 103,605.5C 101.207,608.308 98.7067,609.974 95.5,610.5 Z"/></g>
<g><path style="opacity:1" fill="#f4fbf3" d="M 817.5,645.5 C 813.818,645.335 810.152,645.501 806.5,646C 807.244,647.039 808.244,647.539 809.5,647.5C 814.167,649.833 818.833,652.167 823.5,654.5C 824.287,656.104 825.62,656.771 827.5,656.5C 833.409,658.312 834.075,661.478 829.5,666C 833.367,669.249 833.367,672.582 829.5,676C 832.791,678.332 833.291,681.165 831,684.5C 828.795,687.04 826.295,689.207 823.5,691C 815.833,691.667 808.167,691.667 800.5,691C 788.08,684.04 775.58,677.206 763,670.5C 760.972,667.237 761.139,664.07 763.5,661C 760.833,657.333 760.833,653.667 763.5,650C 761.959,646.13 762.292,642.463 764.5,639C 767.005,637.247 769.671,635.747 772.5,634.5C 771.858,630.726 772.525,627.059 774.5,623.5C 773.668,620.839 772.834,618.172 772,615.5C 767.805,617.357 764.471,616.357 762,612.5C 759.33,603.262 758.83,593.928 760.5,584.5C 761.833,583.833 762.833,582.833 763.5,581.5C 776.22,574.96 787.387,566.293 797,555.5C 799.343,556.127 801.51,557.127 803.5,558.5C 805.179,557.218 807.013,556.218 809,555.5C 810.667,556.5 812.333,557.5 814,558.5C 817,555.833 820,555.833 823,558.5C 825.942,569.38 826.276,580.38 824,591.5C 817.773,597.028 811.273,602.194 804.5,607C 817.126,608.655 829.792,608.821 842.5,607.5C 850.223,607.56 857.889,608.227 865.5,609.5C 866.639,618.452 866.805,627.452 866,636.5C 864.025,641.649 860.191,644.149 854.5,644C 842.199,645.252 829.866,645.752 817.5,645.5 Z"/></g>
<g><path style="opacity:1" fill="#030303" d="M 594.5,561.5 C 601.515,559.926 606.681,562.26 610,568.5C 609.511,581.868 609.677,595.202 610.5,608.5C 611.5,608.833 612.5,609.167 613.5,609.5C 619.37,608.314 625.204,606.981 631,605.5C 633.881,606.043 635.881,607.709 637,610.5C 638.452,632.366 628.285,641.866 606.5,639C 601.469,637.601 596.469,636.101 591.5,634.5C 554.813,647.965 539.98,635.631 547,597.5C 549.223,585.307 555.39,575.807 565.5,569C 575.215,566.061 584.882,563.561 594.5,561.5 Z"/></g>
<g><path style="opacity:1" fill="#040404" d="M 683.5,561.5 C 694.317,560.326 702.483,564.326 708,573.5C 714.275,583.6 717.609,594.6 718,606.5C 718.667,620.167 718.667,633.833 718,647.5C 714.698,656.399 708.532,659.233 699.5,656C 698.333,654.833 697.167,653.667 696,652.5C 694.304,636.528 692.971,620.528 692,604.5C 691.043,600.044 689.71,595.711 688,591.5C 685.847,589.556 683.347,589.056 680.5,590C 676.334,593.165 673.834,597.332 673,602.5C 672.612,606.219 671.945,609.886 671,613.5C 670.938,625.57 670.272,637.57 669,649.5C 663.74,657.492 657.074,659.159 649,654.5C 648.027,652.608 647.36,650.608 647,648.5C 646.333,637.167 646.333,625.833 647,614.5C 647.216,598.181 652.383,583.681 662.5,571C 669.015,566.559 676.015,563.393 683.5,561.5 Z"/></g>
<g><path style="opacity:1" fill="#0d120d" d="M 414.5,566.5 C 408.642,566.822 402.975,566.489 397.5,565.5C 402.766,563.175 408.099,563.008 413.5,565C 414.056,565.383 414.389,565.883 414.5,566.5 Z"/></g>
<g><path style="opacity:1" fill="#676a67" d="M 397.5,565.5 C 402.975,566.489 408.642,566.822 414.5,566.5C 414.833,566.5 415.167,566.5 415.5,566.5C 408.833,567.833 402.167,567.833 395.5,566.5C 396.167,566.167 396.833,565.833 397.5,565.5 Z"/></g>
<g><path style="opacity:1" fill="#070707" d="M 51.5,567.5 C 54.6074,567.351 57.6074,567.851 60.5,569C 72.7405,574.589 83.9072,581.756 94,590.5C 94.4572,595.08 92.6239,598.58 88.5,601C 87.1667,601.667 85.8333,601.667 84.5,601C 72.2784,592.386 59.2784,585.053 45.5,579C 44.9094,574.018 46.9094,570.185 51.5,567.5 Z"/></g>
<g><path style="opacity:1" fill="#e9eae9" d="M 395.5,566.5 C 402.167,567.833 408.833,567.833 415.5,566.5C 417.49,567.999 419.823,568.832 422.5,569C 431.16,569.5 439.827,569.666 448.5,569.5C 448.5,571.833 448.5,574.167 448.5,576.5C 427.084,577.012 405.751,576.012 384.5,573.5C 387.961,570.931 391.628,568.597 395.5,566.5 Z"/></g>
<g><path style="opacity:1" fill="#050505" d="M 807.5,567.5 C 808.873,567.343 810.207,567.51 811.5,568C 816.937,572.121 817.77,576.954 814,582.5C 804.451,590.384 794.618,597.884 784.5,605C 778.344,609.249 774.177,607.749 772,600.5C 771.289,598.101 771.456,595.768 772.5,593.5C 785.337,586.319 797.004,577.652 807.5,567.5 Z"/></g>
<g><path style="opacity:1" fill="#0c110c" d="M 384.5,573.5 C 405.751,576.012 427.084,577.012 448.5,576.5C 448.5,579.167 448.5,581.833 448.5,584.5C 424.357,585.354 400.357,584.021 376.5,580.5C 379.158,578.169 381.824,575.836 384.5,573.5 Z"/></g>
<g><path style="opacity:1" fill="#83fe7b" d="M 763.5,581.5 C 762.833,582.833 761.833,583.833 760.5,584.5C 760.5,582.5 761.5,581.5 763.5,581.5 Z"/></g>
<g><path style="opacity:1" fill="#030303" d="M 294.5,590.5 C 303.839,590.334 313.173,590.5 322.5,591C 329.037,596.475 330.204,602.975 326,610.5C 322.548,612.976 318.715,614.476 314.5,615C 304.5,615.667 294.5,615.667 284.5,615C 275.129,613.11 272.962,607.943 278,599.5C 282.613,594.699 288.113,591.699 294.5,590.5 Z"/></g>
<g><path style="opacity:1" fill="#f1f2f1" d="M 575.5,590.5 C 578.864,589.873 580.864,591.206 581.5,594.5C 579.639,600.612 577.472,606.612 575,612.5C 573.989,613.337 572.822,613.67 571.5,613.5C 570.504,608.537 570.337,603.537 571,598.5C 571.738,595.352 573.238,592.685 575.5,590.5 Z"/></g>
<g><path style="opacity:1" fill="#0b1508" d="M 287.5,624.5 C 287.205,626.735 287.539,628.735 288.5,630.5C 292.162,647.809 295.829,665.143 299.5,682.5C 299.5,683.5 299.5,684.5 299.5,685.5C 296.833,685.5 294.167,685.5 291.5,685.5C 281.456,685.468 272.789,682.134 265.5,675.5C 264.415,673.413 262.749,672.08 260.5,671.5C 258.901,669.396 257.068,667.396 255,665.5C 250.264,655.367 246.098,645.034 242.5,634.5C 242.077,633.735 241.743,632.902 241.5,632C 243,628.167 244.5,624.333 246,620.5C 249.586,619.081 252.419,616.748 254.5,613.5C 252.295,613.034 250.295,613.034 248.5,613.5C 249.792,611.333 250.625,609 251,606.5C 252.351,604.99 254.018,603.99 256,603.5C 258.384,604.719 260.717,604.719 263,603.5C 263.667,607.833 263.667,612.167 263,616.5C 258.958,620.71 254.792,624.71 250.5,628.5C 254.447,639.728 258.947,650.728 264,661.5C 270.563,668.782 278.563,673.782 288,676.5C 284.207,659.407 281.374,642.074 279.5,624.5C 282.167,624.5 284.833,624.5 287.5,624.5 Z"/></g>
<g><path style="opacity:1" fill="#30ff2c" d="M 95.5,610.5 C 93.6007,616.882 92.9341,623.549 93.5,630.5C 92.5006,624.592 92.1673,617.926 92.5,610.5C 93.5,610.5 94.5,610.5 95.5,610.5 Z"/></g>
<g><path style="opacity:1" fill="#060606" d="M 22.5,613.5 C 42.1695,613.333 61.8362,613.5 81.5,614C 83.5037,616.841 84.0037,620.007 83,623.5C 82.3147,626.057 80.8147,627.891 78.5,629C 56.8377,628.471 35.171,628.471 13.5,629C 10.3461,626.225 9.84609,623.058 12,619.5C 14.9746,616.311 18.4746,614.311 22.5,613.5 Z"/></g>
<g><path style="opacity:1" fill="#050505" d="M 845.5,617.5 C 849.257,617.071 852.757,617.737 856,619.5C 856.5,621 857,622.5 857.5,624C 856.261,627.815 854.261,631.148 851.5,634C 830.512,635.283 809.512,635.616 788.5,635C 786.939,634.682 785.772,633.849 785,632.5C 783.419,626.938 784.919,622.438 789.5,619C 798.11,619.82 806.777,620.32 815.5,620.5C 825.749,620.542 835.749,619.542 845.5,617.5 Z"/></g>
<g><path style="opacity:1" fill="#8ce289" d="M 287.5,624.5 C 294.167,624.5 300.833,624.5 307.5,624.5C 307.5,624.833 307.5,625.167 307.5,625.5C 301.167,625.5 294.833,625.5 288.5,625.5C 288.5,627.167 288.5,628.833 288.5,630.5C 287.539,628.735 287.205,626.735 287.5,624.5 Z"/></g>
<g><path style="opacity:1" fill="#0b1309" d="M 307.5,624.5 C 312.844,624.334 318.177,624.501 323.5,625C 320.897,632.842 318.23,640.675 315.5,648.5C 316.972,651.805 319.305,654.305 322.5,656C 327.959,658.986 333.626,661.486 339.5,663.5C 341.121,661.847 342.288,659.847 343,657.5C 343.532,653.091 343.532,648.757 343,644.5C 348.793,650.814 355.959,654.648 364.5,656C 383.241,658.253 401.908,660.92 420.5,664C 429.521,664.749 438.521,664.582 447.5,663.5C 448.5,663.667 449.5,663.833 450.5,664C 451.103,666.071 452.436,667.238 454.5,667.5C 458.312,668.324 462.312,668.824 466.5,669C 443.43,672.586 420.43,672.252 397.5,668C 388.76,664.921 380.093,661.754 371.5,658.5C 371.56,662.514 373.227,665.681 376.5,668C 391.574,675.584 407.574,678.918 424.5,678C 433.361,684.183 442.027,683.85 450.5,677C 459.865,676.732 469.198,676.065 478.5,675C 483.462,672.09 488.796,670.09 494.5,669C 497.692,666.972 500.359,664.472 502.5,661.5C 504.652,663.078 506.986,664.412 509.5,665.5C 506.349,669.151 503.016,672.651 499.5,676C 491.986,677 485.319,679.833 479.5,684.5C 478.711,684.783 478.044,685.283 477.5,686C 482.352,686.815 487.019,686.648 491.5,685.5C 497.608,684.974 503.608,683.807 509.5,682C 512.635,681.2 514.802,679.366 516,676.5C 516.499,672.848 516.665,669.182 516.5,665.5C 523.175,665.666 529.842,665.5 536.5,665C 540.358,662.642 543.358,659.475 545.5,655.5C 549.12,654.399 551.12,652.066 551.5,648.5C 555.502,648.036 559.169,648.702 562.5,650.5C 565.831,656.807 567.664,663.474 568,670.5C 560.124,673.545 555.29,679.212 553.5,687.5C 549.261,688.982 544.927,690.148 540.5,691C 535.997,694.755 530.997,697.755 525.5,700C 524.085,703.73 522.918,707.563 522,711.5C 520.004,711.996 518.337,712.996 517,714.5C 511.937,759.383 509.937,804.383 511,849.5C 509.969,852.539 508.135,855.039 505.5,857C 484.783,861.796 464.116,861.462 443.5,856C 441.094,854.378 439.261,852.211 438,849.5C 436.761,843.539 436.427,837.539 437,831.5C 443.892,798.867 446.392,765.867 444.5,732.5C 440.907,732.359 437.407,731.692 434,730.5C 430.593,731.692 427.093,732.359 423.5,732.5C 423.35,753.848 423.85,775.182 425,796.5C 427.253,810.006 429.42,823.506 431.5,837C 431.99,842.869 430.824,848.369 428,853.5C 426.59,854.787 425.09,855.954 423.5,857C 403.154,861.596 382.82,861.596 362.5,857C 359.894,855.062 358.061,852.562 357,849.5C 358.393,803.708 356.56,758.041 351.5,712.5C 346.5,713.5 344.5,711.5 345.5,706.5C 345.5,704.167 345.5,701.833 345.5,699.5C 343.5,699.5 341.5,699.5 339.5,699.5C 339.167,699.5 338.833,699.5 338.5,699.5C 338.027,698.094 337.027,697.427 335.5,697.5C 334.5,694.5 332.5,692.5 329.5,691.5C 325.942,689.888 322.275,688.555 318.5,687.5C 316.706,686.767 315.039,685.767 313.5,684.5C 312.427,681.356 311.093,678.356 309.5,675.5C 308.738,673.738 307.404,672.738 305.5,672.5C 302.039,672.204 300.039,670.371 299.5,667C 304.553,654.732 308.886,642.232 312.5,629.5C 311.738,627.738 310.404,626.738 308.5,626.5C 307.833,626.5 307.5,626.167 307.5,625.5C 307.5,625.167 307.5,624.833 307.5,624.5 Z"/></g>
<g><path style="opacity:1" fill="#007b08" d="M 308.5,626.5 C 310.404,626.738 311.738,627.738 312.5,629.5C 310.596,629.262 309.262,628.262 308.5,626.5 Z"/></g>
<g><path style="opacity:1" fill="#060606" d="M 87.5,640.5 C 93.8227,642.464 96.6561,646.798 96,653.5C 90.9232,657.624 85.4232,661.124 79.5,664C 73.2079,668.623 67.2079,673.623 61.5,679C 59.2311,680.558 56.8978,680.724 54.5,679.5C 50.5192,674.221 50.6859,669.221 55,664.5C 65.2781,655.625 76.1114,647.625 87.5,640.5 Z"/></g>
<g><path style="opacity:1" fill="#6afe63" d="M 681.5,626.5 C 680.833,633.5 680.167,640.5 679.5,647.5C 679.334,640.159 679.5,632.826 680,625.5C 681.043,621.774 681.543,622.107 681.5,626.5 Z"/></g>
<g><path style="opacity:1" fill="#47ff42" d="M 817.5,645.5 C 814.833,646.167 812.167,646.833 809.5,647.5C 808.244,647.539 807.244,647.039 806.5,646C 810.152,645.501 813.818,645.335 817.5,645.5 Z"/></g>
<g><path style="opacity:1" fill="#060606" d="M 779.5,646.5 C 781.655,646.372 783.655,646.872 785.5,648C 795.917,656.878 807.583,663.712 820.5,668.5C 821.553,669.438 822.22,670.605 822.5,672C 820.979,678.542 816.979,681.542 810.5,681C 799.685,676.095 789.352,670.428 779.5,664C 776.465,661.917 774.131,659.25 772.5,656C 774.265,652.404 776.598,649.237 779.5,646.5 Z"/></g>
<g><path style="opacity:1" fill="#0d1908" d="M 576.5,648.5 C 579.898,648.18 583.232,648.513 586.5,649.5C 582.963,656.443 580.63,663.777 579.5,671.5C 579.206,674.259 580.373,675.925 583,676.5C 596.195,671.305 605.362,662.138 610.5,649C 614.027,648.192 617.36,648.359 620.5,649.5C 615.212,664.951 605.212,676.118 590.5,683C 582.894,685.633 575.227,685.966 567.5,684C 566.941,683.275 566.608,682.442 566.5,681.5C 570.25,670.587 573.583,659.587 576.5,648.5 Z"/></g>
<g><path style="opacity:1" fill="#101410" d="M 500.5,658.5 C 497.993,659.892 495.327,660.892 492.5,661.5C 493.016,658.101 493.85,654.768 495,651.5C 496.555,649.854 498.221,649.521 500,650.5C 500.497,653.146 500.664,655.813 500.5,658.5 Z"/></g>
<g><path style="opacity:1" fill="#72fe69" d="M 823.5,654.5 C 825.153,654.66 826.486,655.326 827.5,656.5C 825.62,656.771 824.287,656.104 823.5,654.5 Z"/></g>
<g><path style="opacity:1" fill="#ececec" d="M 351.5,657.5 C 355.633,659.4 359.633,661.567 363.5,664C 366.464,667.966 369.797,671.633 373.5,675C 378.003,677.39 382.669,679.39 387.5,681C 388.423,683.041 388.756,685.208 388.5,687.5C 375.593,687.188 363.26,684.521 351.5,679.5C 350.21,672.159 350.21,664.826 351.5,657.5 Z"/></g>
<g><path style="opacity:1" fill="#e1e2e1" d="M 454.5,667.5 C 462.033,667.252 469.533,667.585 477,668.5C 479.824,667.946 482.657,667.446 485.5,667C 488.039,665.279 490.372,663.446 492.5,661.5C 495.327,660.892 497.993,659.892 500.5,658.5C 501.167,659.5 501.833,660.5 502.5,661.5C 500.359,664.472 497.692,666.972 494.5,669C 488.796,670.09 483.462,672.09 478.5,675C 469.198,676.065 459.865,676.732 450.5,677C 442.027,683.85 433.361,684.183 424.5,678C 407.574,678.918 391.574,675.584 376.5,668C 373.227,665.681 371.56,662.514 371.5,658.5C 380.093,661.754 388.76,664.921 397.5,668C 420.43,672.252 443.43,672.586 466.5,669C 462.312,668.824 458.312,668.324 454.5,667.5 Z"/></g>
<g><path style="opacity:1" fill="#e9e9e9" d="M 552.5,659.5 C 554.635,659.147 555.968,659.98 556.5,662C 553.868,666.1 551.368,670.267 549,674.5C 548.503,676.81 548.337,679.143 548.5,681.5C 542.395,680.651 536.895,681.984 532,685.5C 530.127,682.195 528.627,678.695 527.5,675C 536.053,670.104 544.387,664.937 552.5,659.5 Z"/></g>
<g><path style="opacity:1" fill="#ebeceb" d="M 311.5,659.5 C 321.171,664.336 330.838,669.169 340.5,674C 339.037,677.766 337.704,681.599 336.5,685.5C 331.779,681.954 326.445,680.62 320.5,681.5C 320.66,679.801 320.494,678.134 320,676.5C 318.118,671.956 315.451,667.956 312,664.5C 311.506,662.866 311.34,661.199 311.5,659.5 Z"/></g>
<g><path style="opacity:1" fill="#5dff57" d="M 184.5,661.5 C 185.833,662.167 186.833,663.167 187.5,664.5C 185.5,664.5 184.5,663.5 184.5,661.5 Z"/></g>
<g><path style="opacity:1" fill="#009201" d="M 260.5,671.5 C 262.749,672.08 264.415,673.413 265.5,675.5C 263.251,674.92 261.585,673.587 260.5,671.5 Z"/></g>
<g><path style="opacity:1" fill="#ff7d08" d="M 305.5,672.5 C 307.404,672.738 308.738,673.738 309.5,675.5C 307.596,675.262 306.262,674.262 305.5,672.5 Z"/></g>
<g><path style="opacity:1" fill="#ecedec" d="M 457.5,683.5 C 468.379,682.208 472.046,686.708 468.5,697C 444.833,700.1 421.166,700.267 397.5,697.5C 396.838,693.534 396.505,689.534 396.5,685.5C 405.308,683.772 413.975,684.272 422.5,687C 425.701,689.964 429.535,691.13 434,690.5C 442.548,690.242 450.382,687.909 457.5,683.5 Z"/></g>
<g><path style="opacity:1" fill="#00b600" d="M 299.5,682.5 C 300.434,683.568 300.768,684.901 300.5,686.5C 297.287,686.81 294.287,686.477 291.5,685.5C 294.167,685.5 296.833,685.5 299.5,685.5C 299.5,684.5 299.5,683.5 299.5,682.5 Z"/></g>
<g><path style="opacity:1" fill="#858785" d="M 479.5,684.5 C 483.298,685.483 487.298,685.817 491.5,685.5C 487.019,686.648 482.352,686.815 477.5,686C 478.044,685.283 478.711,684.783 479.5,684.5 Z"/></g>
<g><path style="opacity:1" fill="#00a000" d="M 313.5,684.5 C 315.039,685.767 316.706,686.767 318.5,687.5C 316.833,687.5 315.167,687.5 313.5,687.5C 313.5,686.5 313.5,685.5 313.5,684.5 Z"/></g>
<g><path style="opacity:1" fill="#f6f6f6" d="M 517.5,686.5 C 519.167,686.5 520.833,686.5 522.5,686.5C 521.833,690.5 519.5,692.833 515.5,693.5C 515.5,697.167 515.5,700.833 515.5,704.5C 510.833,706.008 506.333,705.674 502,703.5C 497.843,705.65 493.677,707.816 489.5,710C 485.277,710.787 483.111,708.953 483,704.5C 482.502,701.183 482.335,697.85 482.5,694.5C 495.223,695.892 506.89,693.225 517.5,686.5 Z"/></g>
<g><path style="opacity:1" fill="#f0f0f0" d="M 345.5,686.5 C 351.644,689.122 357.978,691.289 364.5,693C 371.445,694.23 378.445,694.73 385.5,694.5C 385.313,699.845 384.98,705.178 384.5,710.5C 382.143,710.663 379.81,710.497 377.5,710C 374.23,706.531 370.23,704.364 365.5,703.5C 355.517,707.867 351.184,704.534 352.5,693.5C 347.833,693.5 345.5,691.167 345.5,686.5 Z"/></g>
<g><path style="opacity:1" fill="#098807" d="M 329.5,691.5 C 332.5,692.5 334.5,694.5 335.5,697.5C 333.167,695.833 331.167,693.833 329.5,691.5 Z"/></g>
<g><path style="opacity:1" fill="#fe8205" d="M 335.5,697.5 C 337.027,697.427 338.027,698.094 338.5,699.5C 336.973,699.573 335.973,698.906 335.5,697.5 Z"/></g>
<g><path style="opacity:1" fill="#00c400" d="M 339.5,699.5 C 341.5,699.5 343.5,699.5 345.5,699.5C 345.5,701.833 345.5,704.167 345.5,706.5C 344.539,704.735 344.205,702.735 344.5,700.5C 342.585,700.784 340.919,700.451 339.5,699.5 Z"/></g>
<g><path style="opacity:1" fill="#f1f1f1" d="M 392.5,704.5 C 418.129,708.283 443.795,708.283 469.5,704.5C 472.301,704.464 474.135,705.797 475,708.5C 476.793,720.471 471.793,724.471 460,720.5C 450.955,723.72 442.288,723.053 434,718.5C 431.61,719.278 429.443,720.445 427.5,722C 424.532,722.694 421.532,723.194 418.5,723.5C 410.824,722.757 403.157,721.923 395.5,721C 392.962,715.827 391.962,710.327 392.5,704.5 Z"/></g>
<g><path style="opacity:1" fill="#f7f7f7" d="M 364.5,712.5 C 370.358,716.092 376.691,718.592 383.5,720C 385.833,723.667 388.833,726.667 392.5,729C 399.492,729.5 406.492,729.666 413.5,729.5C 413.5,741.167 413.5,752.833 413.5,764.5C 397.386,766.228 381.386,765.561 365.5,762.5C 364.731,746.117 363.397,729.783 361.5,713.5C 362.791,713.737 363.791,713.404 364.5,712.5 Z"/></g>
<g><path style="opacity:1" fill="#f8f8f8" d="M 497.5,713.5 C 500.833,713.5 504.167,713.5 507.5,713.5C 506.092,729.734 504.425,745.9 502.5,762C 486.618,764.322 470.618,765.156 454.5,764.5C 454.5,752.833 454.5,741.167 454.5,729.5C 462.22,729.762 469.887,729.262 477.5,728C 480.206,725.629 482.539,722.963 484.5,720C 487.73,718.692 491.064,717.692 494.5,717C 496.426,716.578 497.426,715.411 497.5,713.5 Z"/></g>
<g><path style="opacity:1" fill="#fcfcfc" d="M 368.5,771.5 C 383.78,773.107 399.113,773.774 414.5,773.5C 414.334,779.842 414.5,786.175 415,792.5C 417.065,804.558 419.231,816.558 421.5,828.5C 416.962,827.563 412.629,826.063 408.5,824C 403.213,822.738 397.88,822.404 392.5,823C 385.618,826.552 379.284,830.885 373.5,836C 372.551,836.617 371.718,836.451 371,835.5C 369.139,833.112 367.806,830.446 367,827.5C 366.057,808.78 366.557,790.114 368.5,771.5 Z"/></g>
<g><path style="opacity:1" fill="#fbfbfb" d="M 486.5,771.5 C 490.555,771.176 494.555,771.509 498.5,772.5C 499.97,775.308 500.803,778.308 501,781.5C 501.667,797.167 501.667,812.833 501,828.5C 499.894,831.726 498.061,834.393 495.5,836.5C 482.128,822.774 466.628,819.774 449,827.5C 448.228,827.355 447.561,827.022 447,826.5C 448.9,819.652 450.567,812.652 452,805.5C 452.097,794.717 452.931,784.05 454.5,773.5C 465.368,773.638 476.035,772.971 486.5,771.5 Z"/></g>
<g><path style="opacity:1" fill="#eeeeee" d="M 393.5,830.5 C 403.698,830.621 413.198,833.287 422,838.5C 423.462,844.051 421.295,847.218 415.5,848C 400.265,850.455 384.931,851.121 369.5,850C 366.913,848.475 366.08,846.308 367,843.5C 369.497,845.478 372.331,845.978 375.5,845C 381.387,839.908 387.387,835.074 393.5,830.5 Z"/></g>
<g><path style="opacity:1" fill="#ebebeb" d="M 462.5,830.5 C 466.182,830.335 469.848,830.501 473.5,831C 480.677,834.509 487.01,839.175 492.5,845C 495.23,845.728 497.897,845.562 500.5,844.5C 501.583,845.365 501.749,846.365 501,847.5C 498.07,849.066 494.903,849.9 491.5,850C 477.354,851.229 463.354,850.396 449.5,847.5C 446.13,845.418 444.963,842.418 446,838.5C 451.162,834.957 456.662,832.29 462.5,830.5 Z"/></g>
</svg>
